<mxfile host="Electron" modified="2023-07-24T12:13:23.619Z" agent="Mozilla/5.0 (Windows NT 10.0; Win64; x64) AppleWebKit/537.36 (KHTML, like Gecko) draw.io/21.6.1 Chrome/112.0.5615.204 Electron/24.6.1 Safari/537.36" etag="Gsna2RqNo8uiKCi_wn0v" version="21.6.1" type="device">
  <diagram name="Page-1" id="R_sKQ_zSRP5xfJRO8hLk">
    <mxGraphModel dx="1676" dy="838" grid="1" gridSize="10" guides="1" tooltips="1" connect="1" arrows="1" fold="1" page="1" pageScale="1" pageWidth="827" pageHeight="1169" math="0" shadow="0">
      <root>
        <mxCell id="0" />
        <mxCell id="1" parent="0" />
        <mxCell id="7zLjmCOxjH0i3wly7O3S-24" value="" style="rounded=1;whiteSpace=wrap;html=1;absoluteArcSize=1;arcSize=14;strokeWidth=2;" parent="1" vertex="1">
          <mxGeometry x="100" y="145" width="1130" height="630" as="geometry" />
        </mxCell>
        <mxCell id="7zLjmCOxjH0i3wly7O3S-22" value="" style="rounded=1;whiteSpace=wrap;html=1;absoluteArcSize=1;arcSize=14;strokeWidth=2;" parent="1" vertex="1">
          <mxGeometry x="290" y="200" width="810" height="400" as="geometry" />
        </mxCell>
        <mxCell id="7zLjmCOxjH0i3wly7O3S-15" style="rounded=0;orthogonalLoop=1;jettySize=auto;html=1;exitX=1;exitY=0.5;exitDx=0;exitDy=0;entryX=0;entryY=0.5;entryDx=0;entryDy=0;" parent="1" source="7zLjmCOxjH0i3wly7O3S-1" target="7zLjmCOxjH0i3wly7O3S-3" edge="1">
          <mxGeometry relative="1" as="geometry" />
        </mxCell>
        <mxCell id="7zLjmCOxjH0i3wly7O3S-16" style="rounded=0;orthogonalLoop=1;jettySize=auto;html=1;exitX=1;exitY=0.25;exitDx=0;exitDy=0;entryX=0;entryY=0.5;entryDx=0;entryDy=0;" parent="1" source="7zLjmCOxjH0i3wly7O3S-1" target="7zLjmCOxjH0i3wly7O3S-2" edge="1">
          <mxGeometry relative="1" as="geometry" />
        </mxCell>
        <mxCell id="7zLjmCOxjH0i3wly7O3S-56" style="edgeStyle=orthogonalEdgeStyle;rounded=0;orthogonalLoop=1;jettySize=auto;html=1;exitX=0.5;exitY=1;exitDx=0;exitDy=0;entryX=0.5;entryY=0;entryDx=0;entryDy=0;" parent="1" source="7zLjmCOxjH0i3wly7O3S-1" target="7zLjmCOxjH0i3wly7O3S-6" edge="1">
          <mxGeometry relative="1" as="geometry" />
        </mxCell>
        <mxCell id="7zLjmCOxjH0i3wly7O3S-1" value="API Gateway" style="rounded=0;whiteSpace=wrap;html=1;" parent="1" vertex="1">
          <mxGeometry x="150" y="340" width="120" height="60" as="geometry" />
        </mxCell>
        <mxCell id="7zLjmCOxjH0i3wly7O3S-2" value="Product Service" style="rounded=0;whiteSpace=wrap;html=1;" parent="1" vertex="1">
          <mxGeometry x="400" y="260" width="120" height="60" as="geometry" />
        </mxCell>
        <mxCell id="7zLjmCOxjH0i3wly7O3S-17" style="rounded=0;orthogonalLoop=1;jettySize=auto;html=1;exitX=1;exitY=0.25;exitDx=0;exitDy=0;entryX=0;entryY=0.5;entryDx=0;entryDy=0;" parent="1" source="7zLjmCOxjH0i3wly7O3S-3" target="7zLjmCOxjH0i3wly7O3S-4" edge="1">
          <mxGeometry relative="1" as="geometry" />
        </mxCell>
        <mxCell id="7zLjmCOxjH0i3wly7O3S-18" style="rounded=0;orthogonalLoop=1;jettySize=auto;html=1;exitX=1;exitY=0.75;exitDx=0;exitDy=0;entryX=0;entryY=0.5;entryDx=0;entryDy=0;" parent="1" source="7zLjmCOxjH0i3wly7O3S-3" target="7zLjmCOxjH0i3wly7O3S-5" edge="1">
          <mxGeometry relative="1" as="geometry" />
        </mxCell>
        <mxCell id="7zLjmCOxjH0i3wly7O3S-3" value="Order Service" style="rounded=0;whiteSpace=wrap;html=1;" parent="1" vertex="1">
          <mxGeometry x="600" y="360" width="120" height="60" as="geometry" />
        </mxCell>
        <mxCell id="7zLjmCOxjH0i3wly7O3S-4" value="Notification Service" style="rounded=0;whiteSpace=wrap;html=1;" parent="1" vertex="1">
          <mxGeometry x="900" y="260" width="120" height="60" as="geometry" />
        </mxCell>
        <mxCell id="7zLjmCOxjH0i3wly7O3S-5" value="Inventory Service" style="rounded=0;whiteSpace=wrap;html=1;" parent="1" vertex="1">
          <mxGeometry x="900" y="430" width="120" height="60" as="geometry" />
        </mxCell>
        <mxCell id="7zLjmCOxjH0i3wly7O3S-6" value="Auth Server" style="whiteSpace=wrap;html=1;aspect=fixed;" parent="1" vertex="1">
          <mxGeometry x="160" y="465" width="100" height="100" as="geometry" />
        </mxCell>
        <mxCell id="7zLjmCOxjH0i3wly7O3S-7" value="Eureka" style="rounded=0;whiteSpace=wrap;html=1;" parent="1" vertex="1">
          <mxGeometry x="230" y="640" width="120" height="60" as="geometry" />
        </mxCell>
        <mxCell id="7zLjmCOxjH0i3wly7O3S-8" value="Config Server" style="rounded=0;whiteSpace=wrap;html=1;" parent="1" vertex="1">
          <mxGeometry x="450" y="640" width="120" height="60" as="geometry" />
        </mxCell>
        <mxCell id="7zLjmCOxjH0i3wly7O3S-25" style="edgeStyle=orthogonalEdgeStyle;rounded=0;orthogonalLoop=1;jettySize=auto;html=1;exitX=0.5;exitY=0.5;exitDx=0;exitDy=0;exitPerimeter=0;" parent="1" source="7zLjmCOxjH0i3wly7O3S-23" target="7zLjmCOxjH0i3wly7O3S-1" edge="1">
          <mxGeometry relative="1" as="geometry" />
        </mxCell>
        <mxCell id="7zLjmCOxjH0i3wly7O3S-23" value="Actor" style="shape=umlActor;verticalLabelPosition=bottom;verticalAlign=top;html=1;outlineConnect=0;" parent="1" vertex="1">
          <mxGeometry x="20" y="340" width="30" height="60" as="geometry" />
        </mxCell>
        <mxCell id="7zLjmCOxjH0i3wly7O3S-26" value="&lt;b&gt;&lt;font style=&quot;font-size: 14px;&quot;&gt;Async Communication&lt;/font&gt;&lt;/b&gt;" style="text;html=1;strokeColor=none;fillColor=none;align=center;verticalAlign=middle;whiteSpace=wrap;rounded=0;" parent="1" vertex="1">
          <mxGeometry x="760" y="290" width="60" height="30" as="geometry" />
        </mxCell>
        <mxCell id="7zLjmCOxjH0i3wly7O3S-52" style="edgeStyle=orthogonalEdgeStyle;rounded=0;orthogonalLoop=1;jettySize=auto;html=1;exitX=0.75;exitY=1;exitDx=0;exitDy=0;" parent="1" source="7zLjmCOxjH0i3wly7O3S-27" target="7zLjmCOxjH0i3wly7O3S-50" edge="1">
          <mxGeometry relative="1" as="geometry" />
        </mxCell>
        <mxCell id="7zLjmCOxjH0i3wly7O3S-27" value="&lt;b&gt;&lt;font style=&quot;font-size: 14px;&quot;&gt;Sync Communication&lt;/font&gt;&lt;/b&gt;" style="text;html=1;strokeColor=none;fillColor=none;align=center;verticalAlign=middle;whiteSpace=wrap;rounded=0;" parent="1" vertex="1">
          <mxGeometry x="767" y="440" width="60" height="30" as="geometry" />
        </mxCell>
        <mxCell id="7zLjmCOxjH0i3wly7O3S-29" value="" style="sketch=0;aspect=fixed;pointerEvents=1;shadow=0;dashed=0;html=1;strokeColor=none;labelPosition=center;verticalLabelPosition=bottom;verticalAlign=top;align=center;fillColor=#00188D;shape=mxgraph.mscae.enterprise.lock" parent="1" vertex="1">
          <mxGeometry x="399" y="222.82" width="29" height="37.18" as="geometry" />
        </mxCell>
        <mxCell id="7zLjmCOxjH0i3wly7O3S-30" value="" style="sketch=0;aspect=fixed;pointerEvents=1;shadow=0;dashed=0;html=1;strokeColor=none;labelPosition=center;verticalLabelPosition=bottom;verticalAlign=top;align=center;fillColor=#00188D;shape=mxgraph.mscae.enterprise.lock" parent="1" vertex="1">
          <mxGeometry x="445.5" y="602.8199999999999" width="29" height="37.18" as="geometry" />
        </mxCell>
        <mxCell id="7zLjmCOxjH0i3wly7O3S-31" value="" style="sketch=0;aspect=fixed;pointerEvents=1;shadow=0;dashed=0;html=1;strokeColor=none;labelPosition=center;verticalLabelPosition=bottom;verticalAlign=top;align=center;fillColor=#00188D;shape=mxgraph.mscae.enterprise.lock" parent="1" vertex="1">
          <mxGeometry x="231" y="602.8199999999999" width="29" height="37.18" as="geometry" />
        </mxCell>
        <mxCell id="7zLjmCOxjH0i3wly7O3S-32" value="" style="sketch=0;aspect=fixed;pointerEvents=1;shadow=0;dashed=0;html=1;strokeColor=none;labelPosition=center;verticalLabelPosition=bottom;verticalAlign=top;align=center;fillColor=#00188D;shape=mxgraph.mscae.enterprise.lock" parent="1" vertex="1">
          <mxGeometry x="600" y="320" width="29" height="37.18" as="geometry" />
        </mxCell>
        <mxCell id="7zLjmCOxjH0i3wly7O3S-33" value="" style="sketch=0;aspect=fixed;pointerEvents=1;shadow=0;dashed=0;html=1;strokeColor=none;labelPosition=center;verticalLabelPosition=bottom;verticalAlign=top;align=center;fillColor=#00188D;shape=mxgraph.mscae.enterprise.lock" parent="1" vertex="1">
          <mxGeometry x="900" y="392.82" width="29" height="37.18" as="geometry" />
        </mxCell>
        <mxCell id="7zLjmCOxjH0i3wly7O3S-35" value="" style="sketch=0;aspect=fixed;pointerEvents=1;shadow=0;dashed=0;html=1;strokeColor=none;labelPosition=center;verticalLabelPosition=bottom;verticalAlign=top;align=center;fillColor=#00188D;shape=mxgraph.mscae.enterprise.lock" parent="1" vertex="1">
          <mxGeometry x="900" y="222.82" width="29" height="37.18" as="geometry" />
        </mxCell>
        <mxCell id="7zLjmCOxjH0i3wly7O3S-37" value="" style="shape=image;verticalLabelPosition=bottom;labelBackgroundColor=default;verticalAlign=top;aspect=fixed;imageAspect=0;image=data:image/jpeg,/9j/4AAQSkZJRgABAQAAAQABAAD/2wCEAAoHCBEPDxERDxESDxAREhISEQ8SERgRGBARGBgZGRgYGRgcIS4lHCErIRgYJjomKy80NTU1GiQ7QDs0Py40NTEBDAwMBgYGEAYGEDEdFh0xMTExMTExMTExMTExMTExMTExMTExMTExMTExMTExMTExMTExMTExMTExMTExMTExMf/AABEIAIsBaQMBIgACEQEDEQH/xAAcAAEAAwEBAQEBAAAAAAAAAAAAAQcIBgUEAwL/xABCEAACAQMBBQUEBwYFAwUAAAABAgMABBEFBgcSITETQVFhcRQiMoE1UnKRobGzCDNCc4KyFSNidMEk0eFDU5Kiwv/EABQBAQAAAAAAAAAAAAAAAAAAAAD/xAAUEQEAAAAAAAAAAAAAAAAAAAAA/9oADAMBAAIRAxEAPwC5aUpQKUpQfyTgZPIDmfIVTu3G9pld7fSuEhSVa9YBw3L/ANIdMZ/iOc45Dvrot8uvNZ6aIY2KyXjGPI6iJQDJ9+VX+qqD0nT5Lu4it4F4pJnCIPM9SfIDJPkKD0bja/U5Dl7+6PPi5TMoz6KQPlXraJvL1WzcM1wbqPI4op/fDDIzhviU48Djn0NWVo+52wjiAu3luZiPeZXMSqf9Kjny8yfSuE3ibuzpKi4t3aa0Z+EhwOOAn4QxHJgemeXdQXJsftdbaxAZIMpImBNbsctETnB5dVODg/keVdJWWdgtefTtSt5VJ4HdYpkBwHic4OfTIYea1qagmopSgUpSgmopSgUpSgUpSgUpSgUpSgUpSgUpSgUpSgUpSgUpSgUpSgUpSgUpSgUpSgUpSgVNRSgUpSgUpSgp39oFDwaccHhDXIJ7gSIsfkfurid015FBrVs0xChw8as2AFkdSF5nxPL51eG8LZz/ABTTpIEx2yESwE/+4oPu57uIEr86zHPDJBIyOrxSxthlYFWRh5dQaDYlcdvUvoYNGuhMRmZRFEp5lpCcjA8sE/Kqq0Le5qFrF2cypeYGEklJV18OJh8Xz5+dcttLtTd6rKHu5OILns4lHCkYPXhX5dTk0HkW8Rd0RerMqr6k4FbDjBCqD1AAPris87pdkmvrxbqVP+ktWDEsDiWUfCq+ODhj6Ad9aJoFK8TajaW20qAz3LkZ5RxLzeVvqqP+TyFUvr293ULhsWgWxjHQBVldufezjHTHICg0HSs2WO9PWInDNcrOo6xyRR8JHqqgj76tPYjeXb6o4t5l9lumzwIW4km6nCtjkcD4T8s0FgUpSgUpSgUpSgUpSgUpSgUpSgUpSgUpSgUpSgmopSgUpSgUpU0EUpSgUpSgUpSgUpSgUpU0EUpSgVyG127+y1XLupguMYFxGBxHHTjXo/z5+Yrr6+PUNSgtU47maOBOnHJIEBPgMnmaDLm1+gHS76S0aQTGMIe0ClOIMoYcsnHXxrvd3u7CC9tob67mdopOIrbRjgyFcrhnznB4egA9a5PebqcF7q089tIJYmWJVcAgEqiqcZA7watjdXtLYjS7S0N1ElynGrQu/AxZndgF4scXIjpmg7uwsYraJYbeNYok5KiLwgD/AL+ffX1Z8eVTXyann2afh+LspMY8eE4oMy7ebRvqmoTSliYUZo7dAcqsSnAI82xxH18hXqbDbup9XQztILa1DcIkKcbSEfEEXI6dM56+OK4WtS7uSn+C2HZ/D2C5+3z4/wD7ZoK12g3MyRRNJY3BuGVSewkQIz47lYHGfIgetVSC8UnLijkRvNWRwfvBBFbGrK+8AxHWL42+Oz7dscPTjwOPH9XFQaD2A146lpkFw/70Axzcsf5icicd2Rg/Oulqrtwgb/DrrPw+1nHr2aZ/4q0aBSlcxvD1mbTtLmurYqJUaIKWXiGGdVPL0JoOnpVB6HvU1We8tYZGg4JbiGNsQgHhd1U4OeXI1ftBFKmlBFKmlBFKmlBFKmlBFK/iRwqlmICqCSScAAcyTVIbWb37h5Xj0wJFCCVW4dQ7yY/iVW91R4ZBP5UF5UqjN2u2Oo32sQxXV08sTLKWj4URSQhI5Ko766/evtbd6SLQ2bRr2xmD8cfHng4MY8PiNBYlKqDdtvA1DU9SW3umiMRikchIwhyoGOefOrgoIpU0oIpU0oIpU1FApU0oIpU1FAqaipoIpSlApSvzmlVFZ2OFVSzHwUDJNBx28LbiPR4giBZbyUHs4ieSL07R/LPQd5z4EjPWr6zc30plu5nmkJ6seS9OSqOSjkOQFfttPrT6jfTXUmcyseFc54IxyRR6DHzzXQ7tth21iVnmLR2cJAd1+KRzzCKe7lzJ7sjxoOHpWrLHY7TLdeCOxt8YAJeJZGI82bJNcvtjuts7uJnsY1tLkKxRU92OVu5WXouemRj50HAbBbyp7BlgvGe4s2IGSeJ7cE82U9WHP4fu8D7+1++HIeHSkwCMe2SLz9UjYfi33VUE8LRO8bqVdGZXU9VZTgg+hBrtN2ex0OsTzCeZkS3CO0cY5yhiR8R+EcvDPPuoOHJyc+NdpsRvBudIVogourZjxCBn4DG56lGwcZ7xgjv8c3he7E6dNZGx9mSOHPEpQcLRyYwHDdS3mc56Gqq1vc3exufYpI7mI/CHYROvkQfdPqD8qD9df3yXE8LR2lsLRmHCZzL2rLnrwjhAB8+dVhHG8rhVVpJHbAVQWZ2J6ADmSTXdWe6PV5GAkSGBSebvMrYHjhck1aOxG7i10oiZz7TdgcpWHCsWRg8C9xwep5+lB6+wWgnTdMgt2x2uDJNg5/zXOWGfLkv9NdHSlArht8f0Fc/bt/1Vrua4bfH9BXP27f8AVWgoLZb6Ssf93bfqLWtqyTst9JWP+7tv1FrVGr6nDY273Fw4jijGWY9/gAO8k4AFB9xNRxDxH31l7bHbK51W6Mpd4YUyIIFcjs08TjqxwCT/ANq7/dXsRK/Z6hqDScPJ7a2ct731ZGBPTvA9D4UFyV/DuFBJIAHUk4ArxdrNo4dKtGuZuZ+GKMHBlkIJVR4dMk9wBrOW0+197qkha4lIjyeC3QlY0Hhjv9Tk0Gj5NqtNQ8LahZhhyIN1FkHz97lXp2t3FOgeGRJkPR43DqfmpxWQoLSSXPZRvJjrwIXx64FfZpOsXWnTCS2keCVDzXmAfJlPI+hFBrfIqQay1thtS+pXQuVLws0MSuisQokUYYrz6HrVj7hJmdL/AI3Z8NBjiYtjk/jQdzvDuey0a/YHB9ndBg4I48J/+qy9bx8ciITjiZVz4ZIFd1vS0+9/xO+l7K49l4oz2nA/Z44EGc/DjP41wSgkgDJJPIDrmg1foOzVlp8aLbQRqyAAy8ILucYLM3Uk8/vqtv2gfg077Vx+UdePut0rUItXge6gu0iCS5eVJAgJQ4yW5V7H7QPwad9q4/KOg5fcn9NJ/Im/IVoys57k/ppP5E35Crq2x2oh0m0aeQgyMGWCHODLJjkOXQDlk91B0BIoCPGsmX2sXl/dNI8kjzTuAqIxGWYgKiqPkAKvjdvsY2nQrcXbPJeyqOJWbiFsp6ovMjPifLA8w72vnubmOFC80iRIOrSOEUfMnFcfvG25TR4ljjAkvJVJjQ/DGnTjbyznA7yD4VnzV9aub6RpbuZ5nJz7ze6vkq9FHkBQagG1mmE4Go2RPQD2qLmf/lXro6uAVIZTzDKcgjyIrH6WcrqXWKRkGcuqEqMdeYGK97ZHbK70qZWidngyO0tmbKOPLPwnn1H40GpOIeI++prIuo6m8lxM6SSKjySOo42GFZiQMZ8DWhd0bs2iWxYliWmyWJJP+Y3eaDtamlRQTUUpQKmopQK8DbpiukagVJBFrNgjlj3DXv182oWq3EEsLjKyxvG3oykH86DHtaU3QRquhWpXGWadmPi3auOfyAHyrO2qWL2txLbzLwyQu0bDzU4yPI9fnVmbn9t47Ti0+8cJC7cVvK3JY5D8SMe4E4IPcc+PIL0pX8qwIBBBB5gjmCK8Larai20q3Mtw47Qg9lBn35W7gB3DOMnoKChN68KJrl4I8YJjdgO52jQt+Jz869zcQ7DVZlBPC1nISO4kSRYP4n76r/VtQkvLma4lOZJpGkbnkDJzgZ7gMAeQrvdzOsWdldz+1yiGSaNI4WdfdPvEsC/8OcL1wDjr0oNA0r8Lm6jhjaWV1SJFLtIxAVVHPJPhVba1vlsoXZLWGW74SR2nEIkb0JBYj5CgtClVDZ77oSwE9i6KTzdJg5A+yVGfvqxNnNprTU4jJaSh+H44yOF4yfrKenr0oPapSlArht8f0Fc/bt/1Vrua4bfH9BXP27f9VaDP+z06xX1pJI3CkdzC7sf4VV1Yn7ga6HeJto+r3GE4ks4iRDGeXGenaMPrHw7h865fTLQ3FxDAGCmaVIwxGQpdgoJHzr+9T0+WzuJLedeCWFyrKeYyOhGeoPIjxBoLK3VbvjcNHqF+g9nHvW8DD98e6Rh9Qdw7+R6dbzrkN3W1keq2Sn3VuYAiXESgAA4wrKO5Wx8uY7q7Cgzxvq1drjVDbhsx2kaoF547RwHY+uCo+Vfjus2MXVLhprgH2S3K8Sjl20h5hM+GOZ+Q768TeIrDWtQDZz7Q55/VOCv4Yq29xJQ6VMF+IXb8fnlI+H8KCxbS1jgjWOFFijQYVEUKqjyA6V5G1Oy1pqsJjuEHHwkR3AUdpEe4q3hnu6GvfqKDImuaXJY3U1rNjtIXKMR0I6hh5EEH51bX7P8A8Gofbg/J643fA6NrlzwYyqQh8DGX7Nc/gRXZfs//ALvUPtQfk9B2+876Dv8A+Uv961maw/fxfzI/7hWmd530Hf8A8pf71rM1h+/i/mR/3Cg2HVOftA/Bp32rj8o6uOqc/aB+DTvtXH5R0HC7tdag03UDc3DEIlvNhQMl3IHCq+Z8687abaG51e7M02SzHghhXLCNSfdRR3nz6k1+WzmhS6lM8EBHarDJKiEfvCgzwDnyJ8a/LRdQewvYbgIC9vKGMbjqQcFSD0PUeRoLu3Ybvhp6reXihr1x7iEA+yqQQR9sg4J7s48c2SzAAknAAyT4CvN0HWYdQtY7m3OUkGcHqrDkynwIPKvp1IE28wHUxSY9eE4oMsbXasb/AFG6uS3EryuI/KJTwoB/SBVl7othYZYV1G9jE3Gx9mhYBlAQlS7A8ieIEAHpjPfypqtV7CvG2kaeYvg9liH9QXD58+INnzoPfAAGAMAdwrg94mwUGpQPNBGsV8gZ1kRQO3IHwPjrnHI9QfLNd9UUGNSMVpTdB9BWv2pv1GrO2rOjXNw0YxG00rIPBCxKj7sVondB9BWv2pv1GoO3pSlBFKUoJqKUoFKUoKq3r7AteH2+yTiuFXFxCoAMyKOTL4sAMY7xjw50WykEgggg4IPIg+FbJrldpNgdO1Is80PZztnNxCeBycAZbuY8h8QNBm+z1u8t14ILq5hX6sc7xj7lIr4553kYvI7SMerOxYn1J517m2+gJpeoSWiSNKsaxsHYAE8ShsED1qwt3m7SyvLKC9u2llMoc9gGEaLwuy8yPePw+I60Fe7JbJ3OrTiO3XEYI7adh7sKnvP1j4KOZ8hzr1drd299pvFIq+12q8/aI1wVHLm8eSV69RkcutaK0/T4bWNYreJIIhnEaKFAJ5k8up86/rUZSkEzr8SRyMPUKSKDJsmr3LW4tWuJWt1biEDOSgPdgHp6dK+jQNnLzUnMdnA0xXHG2QqoCf4mJAHp1ryCc8zzJrT27Kwjt9Gs+zABliE0hHVnfmcny5D5UFF67u/1OwiM09vxRLzeSN1kCDxYDmB54xXi6Jq89hcpc2z8EiHl4MverDvB7xWt3QMpVgCCCCCMgg9QR31lXbfTUs9VvLeLlGkp4B9VWAYL8uLHyoNMbN6ymo2UF3HyEyZK5zwODhlJ8iCK9aqw3D3DNpk6McrHdNw+QZEJH35Pzqz6CK4ffH9BXP27f9VK7iuM3r2sk+jXEcMbzOzwcKRoXY4kUnAXn0oM+bLfSVj/ALu2/UWrs3ubF+3Qe2WyZurdffVRznhHUebL1HlkeFVRs3s7frf2bvZXSKt1bszNbyKFUSKSSSOQArUVBk3ZXaCbS7yO5g58PuyRk4EsZ+JD/wAHuIBrUOi6rDf20dzbsHjkXI8VPQqw7iDkEeVUrvP2AlguvadPgeWC4ZmeKKMuYJTzI4VyeFuZHLA5jwr+91t7qOmXIgns7v2K4bD5tpP8mQ4CyD3enIA+XPuoPw336I8N+t4q/wCTcoqswGAJkGCD5lQp+R8K8XdztkdHuW7QM9pPhZlXmUI6SKOhIzzHePlWg9odEg1K1e2uFyj/AAsPijcfCynuI/8AFZ92n3cahp7MRE11bg+7PCvH7v8AqQe8p/DzoNA6ZtHY3adpb3UMi9/vhSPIqcEfMV4e1e8Gx06J+CWO4uQvuW8bcWXI5cbDko8e+s0OhU4YEEdQRgive2e2Pv8AUnC21u3B/FM4McaDzY9fQZPlQeTqF69zNJPMxaSV2dmPPLMc9/dVwfs//u9Q+1B+T1xe2Ow1xZ3SwWltc3Mawxcc6QyOskpGXIIBA593dXfbjtNuLZL4XMEsBZoeESxNHxYD5xxAZ6ig63ed9B3/APKX+9azNYfv4v5kf9wrTu8S3eXR72OJHkdo1Coil2Y8anAA5ms8WWzWoCaMmxuwBIhJNtJyHEP9NBq0VTn7QPwad9q4/KOrjqp9+Om3Fyth7NBLccLT8fZRtJw5CYzwg46H7qDjNyf00n8ib8hXu75Ni+yY6lap7kh/6tFAARzjEgA7mOeLz595r4t0Oi3dvq6vPbXEMfYSjjkheNckDAywxV53tqlxFJDKoeORGR1PMMpGCKDOm7DbA6Vd8EzH2O4IWYEnETdFkA8uh8vQVo+ORXUMpDKwBDA5DKRkEHvGKzTtVsFe2N5JFDbz3MBJaGWKJpAUJ5BuEHDDoQfDNWXuk1W+SP8Aw+/trmNY1zbTSQSIvAOsbMVwMd2T5eFBU23mivYancwleFGkaWHlgGF2JXHpzX+k12W6veDFYx+w3zFLfiJgmwSIyxyysB0Ukk57smrL262Nh1iDhbEdzGD2E+M8J68LeKnw7utZ/wBe2P1DTnK3Nu4XJ4ZkHaRsB4OOnocHyoNOQaxaSIJEuYHQjIcSqQR65qut4u8q3it3ttOlWe4lVo2mjJKQIRglWHJm7hg8uvkaKVCTgAk9MAZOfSu12O3dXupSI0sTW1pnLzuOFmUdRGp5knxxgfgQ4itK7oPoK1+1N+o1UXqWyt8lxMsVjdmNZZFjIt5GBQMQuDw8+WOdXzurtZINGt45keJ1abKSIUYZkYjIPMUHZUpUUCpqKmgilKUClKUCvO1jWbaxj7W7mSBO4uebHwVerHyFfjtNrcem2c11LzEa+6ne7nkqj1JH41mDaDXLjUrhp7py7MeSgnhjHcqgnkKD1N4uswajqk1zbFmhdYlVmXhJ4UCk4PPGRVpbrNsbBdPtrGS4WG4j414JPcDFpGKhWPIn3hyzmqb03Zu+u0L21rNKirxFwhwR5E8j07q865tpIWKSo8TjBKOpRgD05HnQbFr+JIw6srDKsCpHiCMGqZ3QbcyGVNNvHZ1YEWsjZZlYZJjZiemOnhjHhi6aDI+0WkPYXk9rICDE7KCf4k6q3zUg/OrK3abyYLS2Wy1AskcZxBcKpYBSSeBwBkYPQjPXyzXcbwdhItYjDoRDeRjEcpHuyL9STHPHgeo8+lULrOy99YyNHcW0i8HMyBS6EZIBDLywcetBd20G9fTraJvZpDeTkHgRFZVB7uNyBgeQyeVZ/v7x7iaSaVuOSV2d2PezHJ61/VtptxMcRQSykYyEjZ8Z8cCrW2C3VSdolzqqhVRgUs8hi5HQy45Beh4c8+/HQh2m6bRWstIi7ReCS4drhlIIIDABQQeh4VX767agqaCKUqaCKVNKCKmlKBSlKD8Hto2OWjRm+sUBP34r9hU0oFKUoFKUoFKUoIpU0oFKUoIpU0oPwFrGDxBEDfWCKD9+K/elKBUVNKCKVNRQTUVNKCKUpQKUpQVDv+u3WCxhBwkjzO6+LIEC/dxtVdbutETUdVt4JucQ4pJF+uqDPD6E4B8s1aO/XSWmsbe6TmLWRxIB3JLwji+TIo/qqn9ldbfTb6C6QcXZt76/XjPJl9cE488UGroolRQiKFVQAqqAAoHQADpXB73dnorvTZbkgLcWa9okmObR595Ce8Ecx4Eete/om2Gn30Paw3MS8stHI6xvH4hlY/j0qut6u8C3mt3sLGQTcZAuJ15pwDnwK38WTjJHLlj0Co9PuTBPFKpIMUiSAjkcqwPL7q1+j5UHxAP31kvZvTGvb62tkHEZZVUg9AoOWJ8goY/KtbKMDA6DkKCaVNRQAMUpSgUpU0EUpU0EVNRSgmoqaUEVNKUCoqaigmlKUClKUCoqaUCoqaUEVNKUEVNKUEUqaigmlKUEVNKUClKUCopSgUpSg+e9tEuInhmUPHIhR1PRlIwRWdtuN3dzpjvJAj3NlklZVHE0a4ziQAcsc/exjl3VpGlBjSvt0zTZ7uVYraJ55GxhUXOMnGSeijn1PKtWTaDZS85LS2c54stAhPF45xX0w2kUA4YY44lJ5hECA/cKDid2uwY0lDPcEPeyrwtwkMsCZzwqccyeWT5YHn39KUE0qKUCpqKUCpqKmgUqKmgUqKmgUqKmgUpSgUqKmgippUUE0pUUE0pUUE0pUUE0pSgUqKmgUqKmgUpUUE0qKmgVFTSg/9k=;" parent="1" vertex="1">
          <mxGeometry x="666" y="240" width="101" height="38.89" as="geometry" />
        </mxCell>
        <mxCell id="7zLjmCOxjH0i3wly7O3S-38" value="" style="shape=image;aspect=fixed;image=data:image/png,iVBORw0KGgoAAAANSUhEUgAAAu4AAAEsCAIAAAATt6G/AAARSnpUWHRSYXcgcHJvZmlsZSB0eXBlIGV4aWYAAHja1ZlZkmQ7bkT/uQotgfOwHJAAzbQDLV8HjKjp9WuZdUs/yszKiLxxLwfA4e5gBfuv/7zhP/iqedVQ25h99R75qquuLLyZ8fP1eU2xvt/vyyzm79U/rod8vm8zr4XX8vmg2+c1CdfbrwdG/V7ff14P43ze5Pkd6PvBjwGLz+xr0O8ivwOV/Lmevn+H9VlolP7bdr7/9vfhN3P8x7/rIBjaGK/kkK2kEj+/PzMVVlFWEV4rv3mf/UrifXtXWln/GL/wnSP9XQD7j1X+JX7xR1zLr3B8BvrxQP9LnL7XU/v7+L0o/b6ilH9mLv++IrF44+9fv8XvXp332md3UnsgXP27qR9bfO+4cRPO8h7rfA/+Nd6P9734nlHiIWvKVneImz9WysT6ppo0SbrJ3utJhyXWbHnwmvPJ5V2bZeSVz0tK9e908wjkR8skV4fMFS7nn2tJb97l8zHZZGZN3JkTgyWe+OM7/PXCv/v9x0D3OsxT8mD2/mLFurJDlmV45vw3d5GQdL8xbS++KXxe4l+/PLGFDLYX5skGJe7PELulX9gqL88ltsCtNX7qJQ39DkCImLuxGBBdU+yptNRTHDmPlIjjJD/CynOpeZOB1ELLyipzLaWTnJl9bp4Z6d2bW/5chl5IRCu9DFJDAZGsWlvt1NsEQhJaabW11ttos60mvfTaW+99dOcpGWXU0UYfY8yxhswy62yzzzHnXFNWXgUaa2H1NdZca4kwqVRhLOF+4cLOu+y62+577LnXlgN8Tj3t9DPOPOuIZi0KBQTtOnTqUrFkQMmqNes2bNoyuWDtlltvu/2OO++68jNr36z+mbW/Zu5/zlr6Zi2/RPl941fWuDzGjyGS00nznJGxXBMZH54BAJ09Z3GmCuWTOc9ZXLmEUlpmlc2To8kzRgarpdxu+pm7X5n7p3kLRPdfzVv+u8wFT93/ReaCp+63zP1j3v4mayqPbstLkFchMYUhC+XHTZInP9Div/ca4v9yAF5lb71B1xk5TTW0uDmJtnrQSk/jyn3ZKSMRnppISC9COuRM8rH3jGRvZuk1rXODND6CMi/A+/FEqjpIoVbiHFtLWlcBOAdRmxSbKZG/14MCP/Oqt+cgnvbR9Ahs6jW5pC4ZO+ppohq3j9uKkwovzWqda4Ack7lNznharxU+clLJ0Wr67niRqFzr3gJ6artsiNWYbaA+PS5r5Qqef9yRtOQzUqgxt5FubTkDGZm95SiLceOYpfL0ZylJ+lwOpioz4QGQA4xAMQ+4uAVhaz5yL9mOCISwDuJlyP2Rkne8LY7CaOYPyFEBbnmberBrGdLRsJh6Z6D6ioPnKM2icRalLn6lt5y+2/WQrjSzv17be49b5BLEfLzq2lqhKDivL/YR97bynbNcQ373e1zM9B7bSm3yK597d5JzqBUUGB451mGSFC4TA/xDXbW5RIe9x3exRZXPjTGU0tvVtpJV8jWuFnZ0xeQzw+4oVAsp+YNbyl24yakocd9nNTjHoVlZ3tSx80njwghqaDfYRfN5MGsc0therlS/iA97W7KhqVuqcva+NhvQqjeNcQ+LHnqNEmZSm0gQ6nQ7qwTZek6Gj+y5Gus739PUbwQHjSLe8tCLesntO8EUFMCGli575Dtn7Tkv5cZ7ziHYqZyk0kyApALmqsbNmyJy3Fgc7bJ8ImUJPlKYeHjk27a1xoFsBbCfYFgWqIefvnE0cftOdnkBJEPkYEFjZayooKKNkdk65hk8eZgMGnZllmC5zXIKWdEKzkbfqn3eXrYahV8Ay6jG4jcp7UNIFZNA41ByG4rD2NiejUDOnuBHCpZsEcVll4Inb/1aWpPEiWfvHEPKah7zWkN4yJ7AvAKy4AhNI1TmhV8IHy5gt8ISYFbgTHWy2trnyY0dQetCqO1MqwxRBxtuSEBq4uHaAZ8AG1BKG3ZK55Pr8rBlixiRtBnvdAhWaoOyoc7qvrtQ5+nEJWXowdbUy5Iyt6Icj01GZTRlF3j11CxBm4pFB9OkmrLe52iJCnetOlKjyjc4JUYCGe47ajd1WR/rPKy3o4CgoTGHVMwp1qghmLdCemX4ghK1xeXdhaUFFgB3sHJ0zaq+RQ+ijV9yUTRKkuhiqpMoPG6L7JIHbgC2/EBAq1Oboa1jIJDgUif8kPEzygfh+rCt0OA12DiyNILJh166WWzsd+u7MdzvffD7eBuAVO0kggETAoJM89NW3F1rhREWuDpLUQayVpWqrOP4dOBIO0YQAYA+KdzJUBXoQ5a2qMBBloV9gkdcBiRpmTKr8ZJAJIyMwg4wIm4EHb+lQ+RVFSxRCuSK+yKqvi9/4yWgY6EbIO9jKy5lgWV6D1VFTkYCEcSoMWMTdwPr8oBS+euuBRAhIgEBGZCp4RRczvA9uJ5dsTfSQbCkAXekGVjWiGlSAR2rFBEzxIqd8A+Dkjbp7GymUDukhfocxHNjb3SkaItOBdjQuXjRZhHslwzs6UGaiIwcapIKmaRRKrc1LM1Aj5pBoelItMLA1AdujPbZUgztki5BBjCjFw93GJIRm+BfmvsicdUgCa2dRsiRXravRhpIXWqsEqBLCRe+R2WJNqSA+C1EC3zWBa2VtAdIh0RsUBu7O6lIdRWh+ve2yd22D0m4wemg0SlDYJSHFDeXjff87JUpHv1oGk+PdpiL2p1YypHPoXEbno+rXQg2NmR2bOPUDA/gMS9El0cl8wDZF0Gx7pxwemVYLtA5seLqzMndHbA+V/HZrmFogs8b6/qI4sTBYVA39dCZbzd4EK+BBmCLqTTIJrFhEoxfPXVIDpu8glGoo0okrxmP8qwkhY8A72zUP+YAgaJE4dJxXbRd50++Qlndvm6BRih3cgyGyQucSnjZFftHBWFsWa9eadjjwuLAS/RR2GTcOdphNVP+JRnN8XibMq8cAJzG8bZuFfZYyj44930xEsMjFdW1G48LlS18SgHH7NsJxk4gn892pMVuLMe/9R3YGc0Xy0RsXLv9s6ZEeSnsOE40elqKl8xQX1joJ2d4uObO6y7U/2IPwSQkYE7Tahi4QprgNewZJYp+Uo5nBsJjC2924umYgn32RQegIudu/P0AHrSsERtAE1LRNvqQws0HMT18u9wTrED4733r6A96gJPVoSTw6wcUyAp25A8LgbljQoMw1bMpfOLOn6XJtsw4C1DDIvASfUJ0ge6MR323zf5rR0SZzm4DZ26Z0oHarquVBqiSGmLjYEB3As86+8GE4b0ERsCkeqkCmO3MCtlgPzoccDAhUJqrH7zVw09U4yid3PfDNo66uXvs8M09xeEwD3hb0OwTBhBGC6+7HOKKAZVAqzWodYU86aw6scQMTCbK4uIH7qDBgQNxI6tHb6FMsASVmBItd9/QHZwtmGpkHWPqu6VcsbpUmTpFWod/cfVUiERXGad/ALTxoAmLSfwL2KLv3SuwMCQPt2Y388btojK0qwnhmRX0D9LDYwzQMobl0rTMy2aFRr24b0y4xoA+oTwbU5IXHIOwOMV0pGvBCgXzXlycYB50BXcSgQsmYbJXaLYA8zk0lhLScRnHR7p2UjSEEbThoulo10hIcG4IPq0XGcALLbewbp/lwm+WKBTcYZ2h06V7HrCR5o3U2milr4eyAIYMj7nuyddGi8EoG6k2pqQIyBCu9O2wBtMouihCtUrxVqpjr17OpzApfccw8wpW7ewJzRUjMbhX1IeoxNcftBsSZKN0gstlr+NgwWXKK2FpqGBCDn3BxLg9KhHHyAfm9ImxzD2ladGo2p2De0IIf2G0UCE8IHTta9q30AwSMzTgMsN0vRXqyfpdlX7bhb751pStjbc11umnXyvR1iwI3dokQADa94VT7c+C+vZwwjmtXOYYYHDP5J2+HwWsHlosLj4bzGGb+4Gq3a2RMdYH78DxdPxwZ8q+TcGGdkOxqSw2Avmz49ttBToKPmz8eTDFAHvjL/xEznxC4oNDvAggnHkuQO1jVYUF6U7JAWJSHBwygkAu0BxUjJYjM+hb9yMFmmB1E41BHb5FnJzgi4XNAMKFmam8ae7SIYDSw3IYIxZE7NU9i3XHp5SEW/OZnH1d3gS4YefW1UzRPHgYBKG+dhpqGj/xk08nNRQURwizVV+dutlFR7lguJ58ivPbPY9Gitsyn+V+SGW1oD57JqRkfNiO+REuvSIU8VFdNHxlhl1O66goG2BYPCcNJitEAxA43MhCfFGVza6xqL0iXoNryD/7pR8shwgR2FJpqGi9MUwPyyuWiXrt9NHF50bMqYtOG+vK+o1EqCZ0w895LD8xB3r9VjSITnVicwmyIC0kAnXnBsEfER+UejnJuJZcLw4IHAKhKhOWXb4U7hYXT4UbomSosk0LcP0UD8Y/4VP7rHE9YaF1oXLo+QyfQdfjdQDSYY9K58x2sI70GJ4MCoE9FLfF6clRjsUZ3x2zi9ZSOqIMR2000DOICWhOoc15ErMNtO4BA1AerU0Bp4jYCB2/0SGUnmqepz56RrIpYPHi6QINEb8y8atocK74JPh3Zdoj83Dgkjq6EGbrFZyjJIdq77FXuOE4eR73hJAyrrvRVgw/TWK7HQs+af4zN4LkRtt9e7MgL32wh7cnw5ZDDgHz84lobkppABDGpSg2qa5IKFs8GSNLiviDEL1ehH6/Oa5v+kjjvtSkJVLfvYMnQp853Kn/NovzJX3wxZlgrfxIY/bXnxsOtMOqmKg33KAU+wHWkbRh5dm8eJUpK2hovh/GdOxOwWsvdaWl16xsAIC3frB4T/q3wF0y6DbgVEN86TkXftnP8BLDdA9ne+cveAIkvdew/BS3uD11Lo/UWBfr4uXYt+vfq+8BKCmP6yN1XKLizmhFuc+dF7rUApYVlpneiRuFSn3MjKwRC1DSKJNcMWH7dAcDFfjKAo8xr1td4MmWJhXqp8dpR1KKT6NlQMyAIRRPyieb5ioqNnIjsrvgNYiQH7q4qNPy6nCFxgtJAGagb6t/WrzWr9MepuTU3RMETEsGz9PWbSgznUbJAh6DCVkPqILw3PtTa/Tw4KQWbsjYdQgMgdP0KgB6IQHUCTrrU0MhBH01EjWFIhllnp74cAbCQ4OdcNQUEjWE7NDsUfhufDshwDth5JwfIlZrYpgsO1bQQRaZumY/AGohFjez2f9LC85HkFXw1sdzQzyZ3at1VT96UXdHnwO3IVEq/OIl3unUbg1cw2Vl9fX7+UHFeJ3J556tvCAznd5FHD93spzd46AEWG5fMnnHagGw41t7a2YdRBX/z4s2uku3kTSzNIzdMIwgmHa881h1OliSlTYaS3TVXQA+e8MnaOLq3oLRHg7NtOHu62FVTPZwwkFA8AElgxgw5v87OtyzY7O9D2Utha0h0e/wGcOZM7GFWA3995O/7UydKDKpjiTFMupiZCbJMG7EeVY6jkOHHKjL5C4Fq4EWD1pmVJqGyu23t6IwIbRZ4Gl6kDqPWz22r+8IqvkRHmZnZRiS9rD2VkuK5IjU05pg7LiEy/XjWEDl6p/FG8NGZ4h0JjpmiholbgaIaqI7gvARAqqV7iu+/3exNLZijUtSiAdkMESh/LZTD1yzZ2UHlBRMRqJwCLBOCaz/8Ic3oOh98lMRdjMwyr36URqN7ag5YYjojfHNfqDIIsF1KfiNiuGNFRcSnk7AIOtGP2FKnYa/Vyiq+4F+PIwNgt348gRR0IJPYi0D7EGPOhBbdxbBz+6hVpKAxXfk0jhggiA/uLVBPSAcoYV0pG0/MZzq57T0xRTQ8BMdjNAcMbh5xwJSxCiPu+HtZzdwvmsSbnW7GIqvCG+4Dt07ZVEEPsIZWe8EZuyxVsBatErXgC+uOAVCMf38171XBJn9OB09jwu2azz55yn/n6/hn33wr77+PxgIA7fCfwPCHgv1amonmQAAAYRpQ0NQSUNDIHByb2ZpbGUAACiRfZE9SMNAHMVf04ofVBzaQcQhQ3WyUFSko1ahCBVCrdCqg8mlX9CkIUlxcRRcCw5+LFYdXJx1dXAVBMEPEBdXJ0UXKfF/aaFFjAfH/Xh373H3DhAaFaZZgRig6baZTibEbG5V7H1FACH0I4a4zCxjTpJS8Bxf9/Dx9S7Ks7zP/TkG1bzFAJ9IPMsM0ybeIJ7ZtA3O+8RhVpJV4nPiCZMuSPzIdaXFb5yLLgs8M2xm0vPEYWKx2MVKF7OSqRFPE0dUTad8IdtilfMWZ61SY+178hcG8/rKMtdpjiKJRSxBgggFNZRRgY0orTopFtK0n/Dwj7h+iVwKucpg5FhAFRpk1w/+B7+7tQpTk62kYALoeXGcjzGgdxdo1h3n+9hxmieA/xm40jv+agOIf5Je72iRI2BoG7i47mjKHnC5Aww/GbIpu5KfplAoAO9n9E05IHQLDKy1emvv4/QByFBXqRvg4BAYL1L2use7+7p7+/dMu78fuxZyxEPxOtIAAAAGYktHRAD/AP8A/6C9p5MAAAAJcEhZcwAADsQAAA7EAZUrDhsAAAAHdElNRQfjBBMJNjvc7t7jAAAgAElEQVR42uy9d5xdV3mv/6y19z51ep9Rly3bcjeu4IABh+5AcEjoOCEhcG9ucnNJI/nlptxAbi4hCaFcICEhF0gIJRBCCzbGNtjG2LjJTbZsyZJG08vpde+1fn/sM7KkOWc0mpkzRXqfz3xsldGZvddee73f9a63KGstgiAIgiAIGxMtQyAIgiAIgkgZQRAEQRAEkTKCIAiCIAgiZQRBEARBECkjCIIgCIIgUkYQBEEQBEGkjCAIgiAIgkgZQRAEQRBEygiCIAiCIIiUEQRBEARBECkjCIIgCIJIGUEQBEEQBJEygiAIgiAIImUEQRAEQRBEygiCIAiCIFJGEARBEARBpIwgCIIgCIJIGUEQBEEQBJEygiAIgiCIlBEEQRAEQRApIwiCIAiCIFJGEARBEASRMoIgCIIgCCJlBEEQBEEQRMoIgiAIgiCIlBEEQRAEQaSMIAiCIAiCSBlBEARBEASRMoIgCIIgCCJlBEEQBEEQKSMIgiAIgiBSRhAEQRAEQaSMIAiCIAgiZQRBEARBEETKCIIgCIIgiJQRBEEQBEEQKSMIgiAIgkgZQRAEQRAEkTKCIAiCIAgiZQRBEARBECkjCIIgCIIgUkYQBEEQBEGkjCAIgiAIgkgZQRAEQRBEygiCIAiCIIiUEQRBEARBECkjCIIgCIIgUkYQBEEQBJEygiAIgiAIImUEQRAEQRBEygiCIAiCIFJGEARBEARBpIwgCIIgCIJIGUEQBEEQBJEygiAIgiCIlBEEQRAEQRApIwiCIAiCIFJGEARBEARBpIwgCIIgCCJlBEEQBEEQRMoIgiAIgiCIlBEEQRAEQaSMIAiCIAiCSBlBEARBEASRMoIgCIIgCCJlBEEQBEEQKSMIgiAIgiBSRhAEQRAEQaSMIAiCIAiCSBlBEARBEETKCIIgCIIgiJQRBEEQBEEQKSMIgiAIgkgZQRAEQRAEkTKCIAiCIAgiZQRBEARBEETKCIIgCIIgUkYQBEEQBEGkjCAIgiAIgkgZQRAEQRBEygiCIAiCIIiUEQRBEARBECkjCIIgCIIgUkYQBEEQBJEygiAIgiAIImUEQRAEQRBEygiCIAiCIByPK0MgCIIgCGuItXYx36aUkrGqPzLzRtCyuDE9dnShCeNrzRJuB3nSgiAIwsaRL6ckUJb2r84wKRP4aI3Sp/pAMD7aXTEZYQwYtHPKCskEWIvjngZznKDanAeuUUc1nyi/ZRBU64t+pTfmDLQEQf39g1I4blO2K829IUPgn3wbpj1O05fAmFPbDSqlNq51tNbaU9yEr8n9WmstFovW+hjDZfLFQmCCUrkc/kmlUqkGvue60UjUGOM4TjQS8dxIPBY7esnGWqw99nNEyoQD46Nd/DIjj+F4i/LNKIVfZWg3XhxrTlkDNVqAQnswc5BCarELqDVEknRvxY1gQhkkLEIw+WWURimUrv1CEARBaI7YOqqf/MBPZzOZXLZQLBaKxXQuEwRBoVgIv7lULper5agXicfixhjXdWPRWDQSaUu2JhOJ1mRrW0tLPB7XSofaSCmlOKNX72OkjDU8djN3/yMT+9DOYqWMCeg9iyvfxCWvw/FWwLgqRTHNbR/j8e9Szp/CP3QjbLmMF/8amy4k8Desb8aCophh761UiyujDo8VfB2bibUQSdC1BS9xnHYxBlNFOyhHNM1JhlFpHvkWhVm0e+Lj69zK2dfWZvIGolriwL3MHjpuG6MUQZX2Tey4imiyNjk3hEZXiqlnOfgTgkrDl8gExNs496VEkxvveZ3MaiqlRiZGq76/GMeDgsCYlmSyp6N7g95ypVqdmp2u+tXF3K+11nGcrrbORDy+OpdnjAlFjLE2nU2PTYynsplUJpPOpsvViqO1ox2UcuZcLEoprbTBWGPDCzbWWmv8wNdKh1Kmo62jt6u7v7vX87xQ0Gh15npojlmIn/gen/klRseIqVMIl1GKJx7m0Vt4a56r37G85cBiDb7Pv7+Pb/0dyuDBIi9EgXHY82MO389N/4/B3ZhgQ/pmwiU1PcIXf4PUCG5s0UOwSCmziWgLkTidm/CSdG2hexvd2+jZSd8uVASlsAa/gnbFuVWfwMeN8LU/4PAeYonnXpbwF8/7Oc6+FmtQzkaacqUMt36YB79GrBUzdy6jXUpZLnwlb/vURrL34eDv/xFf/O8UZnEidV4ipSgXGNzNb3xnI6m0U5EyD+99LJvLOc7J56FSqlypbBkcuuaSdtd1w3++sW52YnrywccfKZVLizlwMcbEorHLL7g4EY83+2bDcy+tte/7o5PjY5MTM+nZyZlpY43neq7jtLgJOy/s11ob2IC5gBilQpHiRL2ItbZYLuWLhcOjIy3JRH9X70D/wNbBzZ7rGmsU6syMoZmTMqUM//RLpMfpihIEp/YZCYdyji++l3NfQufWZVkIx+PWv+b7nyEBXoRTOutVipYIj97HzX/JOz5dcyxt1IdqqZaoGmxxJaUMMLYfCxZ8sBBAh6Z9kPYhenYwcB67XsS2K4i3Yy2BD3YFnG2nJX6JKjjFY6RMOI0rG9T6EVRqd3SslKmCX15SDP5aY3yqRao+JqgvZargl1b4/VpXkjswweIWc6UU2HQmM5tJ9Xb1bETdNjE9lSvkHa0Xc8vGGGMCY5v+6I01WmlrzeHR0UMjw2NTE8ViwXXdWDTK3JFTsOBlnCBxwm92lHJcN+J5vh/sHz40OjkxPDoyNDC4Y9MW13GNMWdgAI37nIwYHqHDo1peypLhekzO8PC3ePF7lrq5mXtgD3ydUpkWB//UTYI1ePDMj3j2J+y4aiPtjOcPRnj0ueJSzJv7wJiqubMCn4kjjByheh8RzUA/gxey7QoueS07rwGL8bGcDsHUK0udB2RrQ7phb6l2R0dvqnb+rjbmTamFXiKlUFYOUo/aS9dxU9nMxPRUb1fPBvLKWFBaG2NSmbQJAtdxrLXrZEittVrr2Uzqyf1PHxkfLRQKEc+LRqNYe6oR2XWM5VyYcywaDaw5eOTwxPTk2MTYeTvP6e3q3lh+tRWVMkCUpe+9TEAcxp6oeVaWtil0PAozVLJoWNp0tBYXMmNkxmq/3bA2BWux4S3YlX73j/s/ShFRRMLIJ8PkKEdG2fN97v8iO57PC25i90/XMqq0g5Jo+WMmW/iATvDKbOBd/vw7suGquTFvyp7kJbIbeYlYeWWugiBIZzN2YyXFWKuUGpueyBfzej3pmPAX+w8f3PvMU6lMSmsnFostIc1qMT9LQzwWM8YcPHI4k83s3LLj3J1nn8FSZpkjvCIe6GqJZclVi4Kg0qxM5tPUJtcW9HACRDRRhTEcPsCh/ez9T3a+iFf9AduvoFrGkQAaQTg9HTOe62by2Zl0qrujc6Ns68PrnJ6dLRSLzvpQYOElFUvFx/btPTB8qOpXPS/SDBFzgpNGKxWLRNO53J6nHs/ms5fuvigSiZw5E3idqe/lngep2k2J82Dpr4XBBAAJTVIzPcO9X+Ojr+Dffo9SBu2cvFaHIAgbUMq4jjuTTs2kZ1l08dm1txhKAalMepG5S6ujYzK57F0P3Pf0wWcDYzzXW8JgqjlOSdAYaz3Xxdr9hw/ecd/dpUpJpMzaeQhW5kPEb7zsMTQBxhBVxDQzM9z8Yf7u5xl9AscVNSMIpx9KqcD3U+k0sCHOmELdMDkznc5lnXXgLT6qY+5+4N7J6UnH0Y7Wi9ExYeq11trRjqMdpZSdI/xDrbXWejExa+E1aK2nZmfu/MmPi+XyGWIMxXuxQZ+bg3YX8eUc93W0Dt7ixb4xGEPMwRoev4OP38De23BcEYuCcNptX6zjuKlsOp3NsBEcM+EVzqRnC8WCXpxoaLaOyRXydz9wbyqTdl2Xkx0qHfW7BEFQrlZK5XK+WMgXC1qplkSiNZGIx2KlSjlfLJTKpUqlEhjDol01ruNMzkzfdf89Ff+MCLeQtJQNueRQCBYVnKSPl/HOsf9156JkFtF1ywRohaMZ38/HX8e7v8CFr5HnIAin1bpires4s+lUKpNub22z2HVeQDY06rPpVLlSjkaiayhlajomn7/z/nvS2YxzsgDk8MqNtYHvRyORvp6e3s6eRCze09kNhD6Y8GONMYEJsvlcJpednp0Zm5qoVKue46iTSbfwaU5OT91x710vvOKaaDR2eocBi5TZWCh8S2cf7/4S3dsxQcOoIGtxPSYPMHuo5kHRLiNPkJ9m9HHyMzyzB23RoCEsomXNQpomTGzRimKOT72RX/0iF4maEYTTCq11oVScTc9u27RlnZeOPXqak85mVYNLXbXgZaVUsVS65+GfzKZTC+uYmogxxmI39Q/u2LS1q6PL81zXcRe41PbWNmNNEJhypTI5M7X/0IGp2ZnQqbPAzwqLGk/Pzjzw2J4XXHaVwZzG5YBFymwwJYMFx6PnLDo3n7zvVcfm450rPsbUKp5Vixx+mH238+TtPHMPvsK1i9iDWVxFscA/3MTv/oCh80+ziu+CcNq7XhzHScTj2Vxuvu201jraSedyxVIpHout5zym8NrGpibS2bTnuvMturW2v6d3cmZ6Fbw1fuA/8uTjE1OTrnsSk2qN8W1w7vZdZ2/dnkwm3UXX69JKa1d7rpuMb9k2tGVyZurBJ/bMpFLuyao5K6WGx0b2PPnYxeddcBrXmxEpsxFXI4O/pNB07aLBjQDE27lggPOvJzAUM/zkX7nrMzz9AFF9ksR6a3E1uWk+/WZ+82ba+kXNCEJD6Y+ilMUEJDrWQ3sEa63nekN9g4+lnohEIvPr5XuuOzkzNZtJxWMD639805lMqVxOxOLm+KJoChVYs3lgaDo16y+uEdVyODgy/PSh/QvrGKVUtVrt7+29dPdF3R1dy/EAKUVfd88rfuqle5/Z99jTe8PGTAt8v7H26YP7uzu6Ng0Mnq5qRsJ+z3A3j4sbobWHF/8a77uL932PHVdSAZyF4nqtwXM5sIdbP4xfER0jrD8BAdZiONmXbWKVPGtAsf9u/vYVPPhVYF2k/imsNVHP6+/pDYJgvlXTWheKhVQmva4fsLVa60KxmM1nHcexdRpTYEywqW9QN391mkmnHnjs4YX9Kwqqvn/hObtfdOW1y9ExxwoUYPfZ57z06he2JVurvr+gR0dVqtVH9z1eqpTFKyOc3ppG4cY473redz0P/Ttf+HWmh3Eae2iMT9ThP/+Ci3+Gs14g4yesq9kM0DHIuddRzs7rXj434aslurfhJZ77JytnaWtNxb/313z9j1AOL1o/m0ZlrPW8yFDfwPj0ZJ1mk9Y6jpPKpMuVSjQSWZ+b+DAkeTo1k85mXafOvsta29HWHo1Gm322VPWr9+15wASmUQqVUsoY47juCy+7csvgphU87QoDZbo6O1927YvvfODHoxPjCxw2Ka1S2cwjex+78uLnhZ2hRMoIp/eG1nDpz7Lz+XzxN/jRl4g42KDhehLAN/+E93yVaIuMnLBeCEuM7H4Zu192ClJ+ZXXMxFN85pfYezeewnXWTxMrBdbYiOd1d3T+5LGH58eNWnAdd2pmOpvLRru61+syBYqZ1Gwml0kmkie0NFJK+UGwfdM2rXVTe1NYa59+9sB0arZusM7R73Fd9+qLL988OLTiujD8NM/zXnj5NXfe/+PRibFGjdAVyhgzPDayZWjzQE/f6XfMJAdMwonqHWtp6+ddX+RN/4dKgNX1F3pr8Bzuv4VDD8mwCUKNoMqd/8AHruKZu4npWjeV9acE4rFYd0dnEAQnZFyHccEzmdRsOrVOZYy1WutSpZTKZVynvoawxgz19dHk+lf5Qn7PU4830jEKZazV2rnyosuaoWOOxXGcn7rimq6OTr/xSZPWulguP/rkE5yOZcFEygh1d6gWa3n57/Lzf4ZvMKqhmonCt/6USlGGTRCYOcQn38CnfoVKrtYUdj2+4FhjopHoQE+/H/h13mxrXcedzaarzQ+YXfpIp1KpdNp1nbpaJxlPJOKJZiuqPU89vkAdPGutMcEFu87dOrR5FbwgruNcfcnzWpItQeM+hlqrTD67//CzWilzevVSFSkjNFjtws3bq/6An34PRVO/PZa1OJonb2X2kAyZcAZjATLj/MU17PkmrW6tkdl6xVirlOrv6TXGzN+lWAjzmHKFHOuv7G94PelsJpPLOvrEIi5KqcCYTYNDi89zXhqzmfTB4cONgk6UUpWgeva2neft3MXcSVAzt5/KWtvR1rH7rHM8p+Fpl1a6VC4dGD4EnGbRvyJlhIYvB8aA5uW/yyUvouDXD58EqpaffGV5Lc0FYcMrGaolRkbxIhuhSZkF2lpaO9o6jDEnGNraGVMqlcnl1t91W611YIJ0NqMaah2zdWiz4zSxK5O19pEnH6+fPDWXdz3Q3Xf+WecuXMVuxdXMru07B/v6FjL5WqezmWcOPatOL8eMSBlhgdnh4Ffo2cHVbyOuCfw6x0zWouHhf8dKj0nhDFf/tajajXK9iVh8c/9Q1a/WaVBgrdZqfGpinXScPkE1Ts3MTM5Mua5r64mMlkSyLdna1KuYTs2MTow1+ltjjOd52zdvbUkm5yvFpqoZ4NLdF8WiUdtgb+lop1gqPnvkdHPMiJQRFsTxAC5/A+e/nCL1jpksWnHoAYoZGS3hjMZuoHBKBbiu29nRYUydwGQLjnZm06liqcR6OmMKvSCZXDaTy81vERBmPvd29bhOcxtlP/b0k42ahyulfN/f1D949tYdYYTyqo6PtclEcufW7Y2aNIUFnXP5/KHRI6eTY0akjHASnU9QIdHJha8k6dR3zAC+4cnvy2gJwsaio7U1GY+beTv4sBnh1OxMrpBfXxZLaSCTzxpTp76fAj8INvUPnrSBwHIolUrTszMNspYIgiAZT2wZGEJhV13bhmLuonPOTyYaRj072skX8kfGjoRPWqSMcGYQhshcdiM7rqZE/a5PCob3yFAJwsYiEU8M9Q/UL+2vlLUmtNnr5IwpVA+pTHpyetqt33eJeDzW09lFMz1Jzxx+tmEzBKUCE/R092wZ2rxWleiUVsDZ23bSKExHoZSazWRm0il9sg7bImWE0wWlCap0bqHvLAzUdUYrGH0Ca2W0BGGjYKyNeJH+Wkp2ndaSruOOTU4UikXW0xnTbCY1k5qZX1FGKeWbYKin33W9psqpA4cPNhqNIAgS8eTWwU1zO7y1WLBRwNbBzbFItNEtaK1z+dzY5DjrL0NNpIzQxNcXoP8c4mD8ea+oBRh/cgMFPAqCEL7XLYlEPBazpk5nacdxplIzxfJ6qRoV6q10NuPX6x6llKr61d6unojXRCkzOT1ZLBUbXV5ggs62ts0DQ9ZavaaurHgstmlgsJE7TWtdrpTHpyZpfqK4SBlh3RC6SfvPo70Xv16VdxVKmUCGShA2znsNkEwk+3v6qvUcM0op369OzkyvB4MXOg9yhXwqnfLqny7ZWCTa293T1AvYHxZlqTcaxpioF+nr7l0PpzbW2l3bdiqt6sfrWOu6XqFYnJiaXLV0cZEywrpY8mjrI9raqL8kvo+S6SQIG+i1VkAiFh/o7Q8anDF5rjs1PVUql9fJNacz6fHpqfmBMkqpIPA3DwzFY7Fm6gMmZ6ZNg7aRQRAkE8mtQ5vXg/JTSrW3tnW0ttdXMuBonclnxqcnOS3OmMT2CIvWMh1DJNpZ4BBp+qCMlCBsIEIb1t7SFovGbL08Jsdxx6cnS+sgJTsUB7OZdKlcbnC6FPR0dke8SFMGCquUGpkcrVQqC4xka7KlJbGqtWQWvujNA0ONWqWGSeOz6RS2FiksUkY47ZWMAmjpJdqCadxGeOIpGSpB2HAk4/Gezm6/ngFWShVKpenZmbX1NISnJPliYSadinhe3dMl13E62zuadwXAkbGRoF4SeHgB0aPHW+tEGCi2DG5aIGTHdd18qTiVnlFs+DMmkTLCogmqGLPQW+olZJAEYUNtUhTQkmzp7equVCp1z5ginjc+O1Vu4I1YNS0D5PL58amJupXxgiDo7+lrSTR3CZqanTUNqugaY2Kx6GBvP3Mnd+tDpCbaW9vqj2hYKy+Xm03NsvHPmETKCCu43EjYryBstLfWWqC7oyvRoFaeo/Xo5HilWmHtqhmHGiuVSRdKxfn1c5VSVd/fPDgUj8WbpKOUUjPpVHjQVufywFgbi8bbWlrXy+nS3Mj09/Q2kilKqVKlnM5lw9+IlBHODBwPrRdazBxPBkkQNiJtLa29nd11g3+V1sViYSY1yxqdnISnS6VyeWp2ulHbZ610R1tbs7wL1gKTM5PG1pcpFlzH6Wjg/1hbejt7FhgTpcjlc5VqRW/wPCZX3mFhUW+ygtlhCimcxrWuhy5s8mUYrMVarAHb8DKUCutZonTtv+t5YK3FBnM3daINmbsLvZH2TOG91L7sidtXpdFzNyWsj407kEwkOts7Do0Oe17kBJMWnkSMz0xuGhh0nbUwGRYU+UJ+fGqyQe5S0NXREY/Gm3oVs+l00MDjYoyJRaN9XT2svzItPV1dqnEfKEc7xVIpl891dXRt6GksUkZY5FoCuUnKuYUcebEmdKMN7aIJsBYvesq7QmvxKyjQ7vqyndYS+LUL0yfzZtkA36/dwrrVNNZifKzBiaAdcE6iSv0KSuM4zd3q28Y9Hk9pPtgFe0Vai3JYILsvtL6hvFuS3mjqcw9bE7S3t3sNImodxxmfmKjuqq6JlKmdLmUz+WI+HjvxFCysjLdpYKglkWyqkphNp4wJHO3U9Rt5rtfa2roO30vXcbvbO2fSs3Wfu9a6UCxmcrmuji67kXtli5QRFrmOw+wRCik09df0SGyFT9JNgAlQGsdFO1jD6BOMP8nUAaYPUcpw+CG82HG2QWmqJYbOJ9lN71kMnEf/OXRtqRktv4LWtZZSazmYBuOjHVwPLKNP8OTtzBzi2Xsp5Th2oRw4j+6t7HwB268i2VnTCii0u76WnKMXFp4wzg6z74cMP8TUAaYO4HhYi1L4Fbq3seki+s/h3JfQPghgqlhw3GatokqtzKxUYNUivumk36CWeBfNp7O1o7uje3q2TnsjrXQmn83ksk0KRjkpvu/Ppme11tRVWtrp7ewOS701Q8oopQrFYqM0bAXG2PCAyRizyq2wF3PxXe0d06mZuiPjaJ0vFrKF3Jwi36hiRqSMsGgpM/EU2VmceorFwuAFJ9mIn6onRjtoh6DKnv/gke9w4McUU5RyVApU8wSKoq1jFyw8+yCuJdJCrJVIktZedl/PRTew/UqUxppm73FPomOsxYkwsY97PssT3yM1QiFFNUfeEBxv6Z65B88j0UWyiy2Xcs07uPCVWIOyWLtenEzWoDSOR6XAbR/liVsY30dhhmKaSkD5mDuyELmf+DeItRNvp/csrnorV/w8XrymR5vxUEpZ8tMnTllr0S7tg4uL7gqPN2YppRf6Hi9BariBz9KSn6KYIjvJKXs1LMoh2UM02Wy3R3tra3dn59jU+HzfjMVqpcenJnu7elbZVIfqpFAqjE6Ou45r5125MaattbV5lfHCC5hOTTc6XQoDZZqYB758KdPZaZ+1DWoQK6XIFQoW1psIEykjrPC7TDjFx/ZShDYX48/fsdLWvxL7aosxKI12eOoObv84B++jkKKQogwaNKi5X7Q2mL02wEIpRz6HBfs0B+/njk8xcB4v/BWuehtaYQK0s7qjaLEB2mV8L9/+AHtvJTdFqQrggIbEvKMWG+BXSY0zM87IXh75Ft3beNlvcc075j7NWeOpEQ5jKcN3P8g9nyU7TbGAnXtAniaiT9Q9fpXMFDPTjD7D/nv4zvu54k287LeJt63wQwk11oNf45t/QqV4zCcr/DLtA7zn3+jbdfKdaODjePzgk9z+CWzQUEEqReATg8A/7qEr8Kt8+8+59SPY4BS9MoqgSryd1/9vnndjUydt2Ma5vaXV1U6jM6bh8dFzd54dbdCksKkyK5PLpTLpOqdL4Ad+b1dPMpGgmadLM+l0YIK6WdahW6gl2bJq/rNTpbu9q1FIr8VqrcvlUqlUjMfi66cLukgZoQk2WLtMPcvUszjQqA724O7l+gmsBYN22PdDvvMB9t9DPo0/Zxej80WPv7AVeG52VyuUJpmd5PAD3PFJbvzf7LoOa2oBwqvmujCWmz/EzR8kM4Mf4IB3vCyoexdh2Im1ZDPkHuWzv8xtH+Xn/4ZdL8T4KGeNVs85z9l9X+Rbf8r4Pkp+7VLVsS6oeqEhGiIWIJ8hm2Hqg9z/ZV73Z1x243NekBWZtwqKaSZHqJSP8ZcofItvCSqL+nGhDchNMTl8ku+tTbl6TsvsLPWCFRYhZSyJHKXM3KU2TTEQOmba29vasrnc/NotWqlUOpUrFlZZygC+749NTmhVL31SKWPtYG+/53pNMsPhx+aLBdPQK2O1VqFbaH2qgGg06rhOY7GoK9VquVJdq9PDFUGSCIRF7LyBAz9iYh+ReulLCiycc92yDY+ikOJff52P3cDD3yWbRkEE3GXPUw0euJDP89SP+OgN/Muvrd6yE+qYiaf5+M/w5d9hdhob4J3iTanwFiyVgKfv5+M38PU/wgSoxgllzRa4yuGzv8L/u4lDT1D1iRyvYxZDKOYqZYaf5B/exqfeQCG1ws/FcfGo8+UuOuw3vBwngqfwmPtvg89c+E6X+KXmnDFNnLGhke7p7Orp7Kn6ft2TW2BsYnw1U3bDn1SuVmbSs47rntAZUSnlB353e2dLMtnsK8lkM4EJGmkd13W713EGkNaqvbWt7oML6wblCvlcIcva1Q0SKSM0fzEJV/xHv8PELBG33j5bYWDr5ctSS0rx7L185BXc+jHyGZzQ2KzwxhMXHCjkuP3/8rFXMzPc7M1uLahl+GE+8zYe/C44uGZZr50LHuQzfPPP+NTPMbkfpZaaF7Nk5xmkx/j4a7nzHyiW8ZYXJeWAYylXeOBrfOB5HLxf3rq12bMYo5Tqam93HKfuK+E4zsT0VBCsdiXMfEahgbAAACAASURBVD4/PjXhOnVOvoIg6GzvSMYSzVN6SiljbRAEDWv4WrTS0UiE9ZeJffQWWuLJRhpUa10ul0ul8nNvt0gZ4fRb3tAOh+7n4P14dSe6whoGd9LSvcQfEfhohx/+HR95Fc/cXztSWcyCYOd9LVLQhHZ3z3/ykVcwewRUs17g8Azrydv4m+vZfy8RhQ4WezsnfXEdh/u+xWd/melDc+HMq+OMUaTH+OirePAbNWm1yGd0kodiASYP8Lcv49CD8uaticEDWpItLYlEEJzYaShM3B2dHF/NLtkKjDHj05NaO/Nf0rDIb09HVyQSsdY2o11AeLpULBaDxj1bLNZxnGgk2qinwdo/WdQCcTBKqUq1Uq5WNvTs1Sv7KqzAJ6gVmf8KYQW34Pd/hf2PE3fqxHMohQ8v+EWcJTWkDao4Lnd9mi//NukZnJNNgNAommNKeKhjHvjRv7KLmyPDT/DPv4oxC1UEWZaO0Uwd4Cu/zew0SjcMMzrhdmoi8mQ3YgNiDnvu4J9uYvrgaqgZS+1H/MNbOLBnIcV57E0dfTonHebwO7Oz/M1LOfgTefnWhK72zo62jkauF6U4Mj66mmdMlWplcmba0Xp+7lIQBN0dXZ0dnc2+hlQ2s4BXRiudWN9RJlrrjrb2BWv+6lDKKEnGRkF+ZumLaRijV0jVCpotea1VikqOSn5uQRWW45LxcVyeuoP7vojbwPcY1u247PVLEbJhbsieb/C1PyKbJbqgMQ5FjKtxIlhDaz9bLiUSZ+hCvBjFDBP7yE8z/hTpsVoVE2MXkrVhJtTD3+Fff523fJzAZwXLf1mLdkgd4Z9+iacfIObUj+o1oBVeBCzbr2JwN907yIwxdYCn7qBawlQJGt+FDUi4PHQ7n7mJX/oM3Ttq+qlZ86GKG+Xv38ijtzVcOSygcDTRFvrOpm8Xmy6ilGXkEUafYOYw1uAHC+2hNGRT/PX1/OYt7LhqHWl6uziJvMAEXqJ8XCW3f5jYHI1Eejq7Do0M13VRaKUnpifP3rbDcZqePRfGWJfK5bGp8YgbMXZe7pLv93Z2tSWbXpiuWq1Ya+s+3DCHORGPn+TprzURz7ONPU9aq3K57PuB6zobNIlphdZua3AVe75JKUtLdImfgMMT32N2GG+p7721uBFmKjx7H1e/De2uWDbEmemP0S5+hR98mmcP0OERVOu5ZAJ2XUX3jqU8ccclNcw338/EKMkGxj6cCwG40NrDFW/kktey4xribXXSaMM/yU+z9zbu+kf230UxS2BrKdz19lNULT/5Ele/hbOuXUkd4Lj4ZW79CA/fQWu9oQvAcXENF7yKq9/KxT9DtOXE6fr4LfzoMzz4NSolTAMXqvFp9XjwDtp+n5v+nmhrE9WMG+XWj/DwN9GhC9bWeUzxOFsv56feyQWvpH3wuWcU/mJiH7d9jPu+QGqyJiXrjx4UMnzkFbx/P8nOdfE6OA6Oiw1QzkKrU6OsOr20osYKqrUSkatCaMO6OjrbW1vzhUKdPCatR6fG/SBYBSmjwFo7MjFmbT2LoFRggrbWtkjEa571tViFyuSyDb0y1qLU+rf9iXiCBb0ylUqlUq247kZNYlrRZOxcin/+L/ziP51yNSdrcDwm93H735EpkNAs+dAxqNIGP/gUO67hqjfPJdwKS9sMKr77Qe78PO3OcdUynnsDNNWAa9956vW7bM3i/tvv8vi9tLoNbUBoIDt6uf7X+en3Ekk8ZxLmP9nwT5LdPO/nuPwNpI7wvb/hrn8gnaofRGwtLqSm+Pf/j9+6fWXSs48uF/t+yH98sI6OsWAUGi5+Fb/wYXp3HiM+jv/R57+M81/G6ON8+bd4/GZ8y4k5HHNzvt3jB1+k7yx+9gMovfJVO8P3ceRRbvkwuQKxedFFPjiw4zJ+4W8457rn7kgd/7B6z+KNf8v1v8lXf48HvoJv0Qpl6/tm8ik+9XO89/vNdTWdlLA89IWvoW2g8dbI4kTJjPHVPz3eA6ewFsflyjdy7ksoZk5ZlFiDG2Xb5fUnfHPoau9sTbams5m6esUEZnh85Kwt21fhSqq+PzVb53QJMMYk4omOtvZVcA35gW8b61fHcbo7u5lLaF+nUiYWM4193kqpSrVa9asgUsZaHM19X8FxeOXv07FpsU7RcHd+4F6+8jscfoz4MnTM0c1ftcznf5XUEa55G2rVy4hFk0QSG94lozQP/Bu3fGguAdvWd8n0b+Lynz91xenjePzkSzx+CzGwjf0xBi5/LW/5JB2DmKBWQE+dLKBGWYyhbYA3fIiLbuBr72PfjxvEdii0ZXgP932BK9+M8Zfd2cACZMb55v8iMq9ajFVYS/cgN/4lV7+l1l6qkZ0Oqx4Pns+v/Qff/gDf/nOqAa6ps6ganxbNLX/Njqu45HVYs8LTPhSa//4/GT9AbN45YBVaW7nuv3LjX8zdkapv9ZXGBHRu5le/xL1f4MvvZXoMTzX0c+z7AV//n7zuzzCGtSpFGj6ds6/l7GtPsuxMH+SLf0pcQ3CMYwG0w+6X8fybCKrL6h7ffD2nlDLWRDyvNZmsu36H/o+R8bGdm7etgiuiUqmMT07Odw6FkaqbBzevTo3dcqWycEeCjdBTWi3QP0uFm0vpjH10wcPV3PNFfvAldu5erMl0I8weYnYWT+OtRFqptWhFJc8//w7f/HO6+sFZ1biZs67lBe9g+9XLWrbWTMSYWpzHnm/whf9GLo3r1Jca2qHi89o/IdF56g/IxQb8+F8ZnaLDbeDyUVjLFa/n3V9FUSvItriXFhR6rmXjOS/if9zCJ27k0e/hzLeaFkeRmuWez3Hlm1cgKCG0N0/dwUM/pP0Yl4xSoPEDdl3NWz7J1ktrnZgWsE9K1ZoUapcb/pjOLfzzewjAsZj5lfg1hRL/+UEGL6Dv7JX0ZJiAeDv77uTAj1AcN4BKUzF09vK2T3LZjdgA9Ek0h3awDn6Fq95MrJUv/FcmD9d7LuHpSsD3Ps7z307fOWvcIOa0bic5b9zp7+4dHh0plkvz7bdSamp2OjDGbf4Z0/TsTMWvRL1IvZhf09XeEY/GViG2I5vLBcY42pnvm7FYrVRs1csGniqOo7s7OmfSqTpjZdFaF4qFYqnY2Wwv1waRMqE7VONpjjx+Cv9KK6Iaa1csui38nIRDOcWR2dUe1Gcf587P8Pr388rfW2Pf+KkOWigXFNz3L3zhvaTHiej6ISyOS8nnsldz+S803IIvsMV3PB74d565g2SDKrdhndMrbuRXv1Izn0sYRqVwXKwhkuTXvsFHXsXjt9eZ8uGFDz/CM3dx1rXLLQ/vRqjk+cYf03Js5ITCaqoB5z2ft36KTRedivtHoywofuqXUfC5d2OoUxnPBCSi7LmbPd/gp//HXMLUspd4CzbAjXLn3zM+TuIYl0yoY7oHeNe/cs51pzBuCtwIfoWLb0Br/t8vMzuGWy8l3oHSLJ9/N++9rTZt1mxPqxYR07ugKg1HbN2vBuFN9nT1tLa05op5p141l1KpNDk9NdjX39Qr8X1/eHzU0U7d06VYNNqWbGEunKXpDx8aZSBqrVvDrgXrfYGvvxkI9Zkxxq7XZPLFrZLN2NYbH0efwldYm2TFHSdhLdRTupIV+Yp7WJ9v/AVjT9QCFzaEiAl3zKUMX/9D/v6tFKaJOPUP+7TGD+jo4uc+SKxtiSbzwI8Yn8FzG45P5xBv/dTcrFjGUhUaDzfK2z9F91CdnbMFF3ITPHl7bQIvxw4EVfbdydN7cY65NQVBwK4refP/ZdNF+JVTPMaaM/PPv4nX/RlVU/+fB1WScNtHOfzQc4J+2Z5WEl088G8cuOf4OniKwNDVxzs/xznX1eoPnarmq5a48NW85n8STRLUXWcVFg49yN7v4XirWgnwTCXMY4pFoy3JpDENi6odGh1u9rpW8avj0/VPl/zA7+7oDE+XViFCxVirFi6MINmyp6GUOSpoFv9F01ao0Eiv8pepAtgcN38IGgeCrAsRMxfZEAYxPHM3//Qr/NsH8KJgGnQFUliNb7nxLxk8/5R1hglwPCaf4cC9DWruhdt9y8/8KcnuldnFhoKy7xxe9T4cXcdJ7CjylVotk+UoAO1SznPbR0nwnArUDmXL5t285RNsuRS/gnvqNXjCkr7a5YXv4orXU6gXdWENXpRnDvDQ1+f8WMteYS14cR78GuNPETle57kOv/hZdv/00gNZvBiVAi/+r1z1BgyYet2LHMin+e6HapNHWC262jrisVjdsm9KqcmZqWZv4mczqWKxUE/e1irKtLW0NvV0KawKmM3nqr6/8E9Z/7EySqlYLE6D4dJal6vVcrW6cWWZVPtt0sSBsl8rWrreZnko70KrEPagNgEjj/Ht/8VfXs89X6XVw6/U3wErjXWo+rz6f3DVm2rhLKf604Hhhxl+pHH5YMvAFq78hZWMD9AaE/Ci99C/q96rqjAwfYhqAcdb+iNTiswoT92BnrP6SlMKaOnihj9i2+VUS0vRMUcH3wS09HDDH9ISJ/DrjE9QoUPzg09w5NEVmHs2IALDD3HwPvxjMmi0S9Xys+/ngpfVwnSWTCROUOXn/5ZN5xE0yEozcOBenrgZxxM1szpmDxjsH2hrafWD+lY8XyjMZtLNu4bABCNjo269FgrGmmgk2t7WtjoawtHOAjrGgkJ5rsf6ri+nlW5NJBsF9mqlSuVyuVKu3ZJIGeG49Tc/s7aapRZ+VPMVBZiglm8cKhggdYRHv8OXf5OPvY5/+TNUlbjGr9afzkpjNIHPde/k1X9EJLGkXHcDMPE0Uynceh2dtKZiecX7iKx0WqDWOB4veg91ncUOlFKMPrH0lkYKAp8jeyjljpNuCq55I1e8Cb+MF1veLTgAmy/hVb9PzqK9OkpRu4yN8+x9tUe2TNXrwchTZKbw5mSr1hR9rrqRl/zGIrLJFjFqSpNo5zV/QDSJb+tcgwvZWW79iDhmVk3KGGOS8URrS0sjqaCUGh490rxr8P3gyMSY0nr+6VIQBG2tre2tbaujHuzCQZzWakcn4nGz7k8/w2OyRoJMK/RGLlwiUqbJgqZZszLABhi/8VcVG6bAqFqwoXbm8mUsM4d44hZu/ks+9y4+/jq+8TGm9tMVxcydjs23N46mogh8Xvwu3vBXJDqWEtEcGlpg6mD9LfhRTXD+y+vY6eX7yqzl6rfjReu8yw7kZhjduzxnhsWvotVzyqNk2Xk5N/wRsDJRq2Fo9kWvYdMmqpU6j8AGROHOTzN7eCUcM+Bq9LGruSKmeN37iSRWxuOoHYIKV7+dTecstDE48hiTz+BGJGJm1eju6IpF67cWstaOTI4170dnstlcIT9fqSiUH/idbe1d7Z3rxhGiNq4z44R3fePiyuvaVD3flOmmXVq6a1mvC7/JfgUsuSnKeWYPk5smPcLUfoYfZv89zFSIQUzTHiHw8Rt0idMuCgo+XYNc/25e8t+XqGOOunaqRSpZouB6J15/eGK1ZdfSm1OeVFy2dHPWtez9/omjqqCcq5n/ZQVvzXkvlKIa0BLnp36R9oElhsjUHUAsW5/H9f+dz/8urQ6BOVHmRiI89iMmnqZzy8qIp2MnQ9Hnje+nf9dKivVQ4N7wx/z9WynlT+yzHTqHUsP88O+48f9gAhzZgzXdMQMMdPfuTyRn0rOe6514lKNUJpfL5LJtLSvfNyAIgsNjRzzHnW9djTWRSKS7oxtYuNbLyq24EtIrUkZYcW3kQDHFf/4fkj0Nz3fCAqPZCbITKE1qlFKaiX2kpsmDAxGIKrqi2ABj8CsNDYxWlA3VgAuv5YY/5tyX1mzbEk8uLCiKs0xPkAFbObGijHYoB1z9wuUexCzMpa89UcpQ6+lCIbXs7ckx/9jAeS/lxf+NYIV0TO1jDdph1wsZHCQ9Wq+RpEXB4zez8/l4sRVr3xEevQ1t4/m/hHZXstCL0gQ+l7yO3h0cfrTeVFSUfPbdSeA3pZyxME/KGGvaWttaEsnp2Zm6jgil1OGRIxecc14T1jk7MjGmlDpBRiil/CDobGsPi/yujksmXywEJlAy30TKCCv8xApZvvyhkzsO9NzjdeZ+HdHEPLAYgzUN3TDhaZSylA1Fw9AQz387L/lvdG4mqKDd5UZgBAG7rqAliRc/0QaHPpsr3tBcKbP9qnkthMISc4aZgyxby9SWet/S2sZlr597GCtoZzTA5ou45Gf55ifocvDnOWZicP+XedG76d6+Yo3IHJfZKm96H+0DK+mSqU1XDXD5G5h4imq9nrIKJvez9/tc8HJMsAZVvM+4jRMoujs7RyfHjTHzbbkxZmRyrBlSJpfP5/K5OmnYKN+vJuOJ7rDI76qoi1K5HBg50xQpI6z4+uIoeiInf4+P1ie1BjtXxreRfHlOwSgCn5yPsWwe4rJf4Hk3suMqnAiBj/aWZcBCG9yxidf8YePTN4sTa+4qNbgb354495UigHJhbuiWq2TwYXA3V7+1VtV3RbfMmIBIkvOv545PEAQnppKFTc0OPUN6jO7tK/dDDb0t7H5JU/wiai6S6Tt/hanUOWNyIT/Jvh9wwcuxAYiUabpjBujv6d9/6GAml3WdOg3AMrlssVyKR2MrusLZQ6PDqDrZScYaz/W6O7uU1qtzugRocciIlBGao2Ys1fLKf2zFULZYS1eSK1/MeS/h7J9i0yVEYgQ+JsBZodmiNG7sZCKsmURb6R4kPVrfoK4IgSUZ5cJX4cUIjgkEXmFNdgE7rmLfvUQbNJd4+gfsuGplavNol3yVl/86XduasyFWYOjdybYL2fej+m6bfMCBH7Fq+/EzXsoYa7vaO+LxeCqbrpv3Z4w5ODJ83o6zV7DkrjV2bHJCqzoNE4LAb022dnV0sb4znwWRMsJaeXocdl7Mjqvp3cnmi9l0Ce0DNb+OMSsmYhapV5q9SClF79mkRqlbxXtFPt+39G7i2ncCK+ySOSoHgb5d7LiaR+4ldkwLw6OOmQg8djMv+GVaulesicFFr8GLNa0dhwK44k0cuJcgqH/GlBpl5hBdWzdSS5ANvWtSqqeja2pmev4ZU5izPTY5ft6Os1fsEBNK5VIqW79ijR8EyUSyp6NT1KwgUkaoZyGCgGqBc6/j0tfjRmpHUdqppS81SU+s5S030wqGtWT6zqJzy4olLs0fvcDHcdl0cf0HZA2OYvhhqsWaClnOeCuHapXzLqdrcxOdIuGn7n4ZysHOlzJhgZlJnr2Xrq0YI3lMq+CYAfp7+w6ODOfrpUYD6UzGD4IVbC15eGyk/uGRRSvd3trmuu6qnS4JGwWZDcIco0/zld/lr6/nW+8nM4EbxdrnGjufZvjlpn20wkBLgufdCNC8BTe0K4PnsWUzleqJ4izMYpuaIj2yAsJROxTg0tfTubmZG2KFtQzurp+Kb8GBwjQjYYqTRGKuhpQxxvR390a9iB/Uz+KpVCvDo8OsUOFda+3I+KjS88vJ4JugJdnS39PL6p4uKZS4gETKCBtl0QJlmDjMI3fxHx/gb1/Odz9ItYjjEVQ3QEfMU73b/nOxzbHJCgKItnP+y6GZ7p9wNe/ezsBuqg1+kIHhPStxS5YInHUtysGapq/su15U/+xPO+QtI4/XtJqwWvR0dnmuO7/sfZizPTIxvlI/qFytTKdSdcJulDJB0JJI9nR2r/K9t7a2uq5rZb6JlBFW3oZ5UbzYKXy5UdwIjrdgKrUl4tDiYCvsf4Sv/zEffjmPfKumZk6ngvFK0bmpWd6FcMnr2UbPToJqM0+yFEBrH11b6pdOtgYPjjxCtbTc4apW2XIOHUOrIamB7VfUby4R/u3sCNUiTkTUzOo4ZoDBvv54LFa3f6Q1diY1a1YoXXlsciI4odbU3GullGptaY14Xt3M8ObhOa6EGK9/JFZmA2IsM+VTi09V4Mz91wXXnevQdPwCZINau4O4plrhqR8z/lZe8hu87L3EOyTQcnFSBiKandfQLK10jMIIqrgRunZSrueVCQsqDj9MtbSsQnlaUzJsfR4tPU2/qZChC+rV/TumROTkAYbOl+oyqyNlrLUDvQOu4xpjHO2cmJKtKFcqE9OTA739y+9T/ezwobp/Hlgbi8W61yLg9yQ9mASRMsJSNq2+pbOX3/w83dswi+7mWC0x8ij5Gcb28sxd7NuDBo9a4OT8WrHG4mhcTS7NNz/A03fy5o8xeD4maEo+zmklNCEWZ+vlNbWxCvTvpMfFL9dpVK4gP7tcj5rSVGDH1SS7mn9TCmDrFQ1/ioZyluw4nI9UlF8tW661GujtyxXyxs7LY0IFJjgyPjrQ27/MHxQEwdTsdF05Ffh+W0fnpv4BasEr62uAVu9lF0TKnB5KBgtOhMHz6dx8am6SLZdiLX6JUp5qnke+zZ5v8th/ElgcXXPSHPd+mlqgpVE8chvBu3jHP9J/rqiZkzwha3HjbLpwNVa38PPbB+gYZOIw3vGnMtbgeuzfQzlHS/fSk5jCadB/DrBKT7+1l1gL+XSdS3EgP834k5z7Etkrr5pjBujr6j145HC5Upmfkh0EwfjkxPJ/0NjkRBA0ahFgk8mWaCQaGOOsp9wlpVRgTDafb00mV7C4zsrLLWxg/IX12IaOB5Lzgo24SzL4paW9dnhxWnvo2sZ1/4X3fIU/foRr34ExDdNBLKiAiMsjd/PV3yM9hnakNfFCWtNAJMHmS5scKHOMDyPeSaIb00A5LTMFTWmCCt2dJFc33HLokgazEaplipm53wurYa2ttQN9fY2iX5VS5WplamY6/M4l/6Aj4yN1lYAxJhaN9XR2sRapRIu4I2tCx+c6no/GmHQm0+gBGWNak8mWRHI1NmAiZYQVxoszeD43/SO/fRt9ZzW0hQA+yQg//Dr3fr5m3sSKNNraaGoZy6tiZABaumntIai7zltcOHDP0lcopajC4Hm1QJlVW+Zauuora63J+0w+XRttYbXMueu4nW0dql7d6rDL45Hx0eX4DIDh8dH560ro9ojHYmuQhq2UMaYlmfQ8zyw42TZEXLBt0GxE1c4QdViqZ4Oek53uUiZsQ2QW93VmLoxKc86L+Z0fctGrKNuGcZTWJwm3fJhDD4gVWWi+OdC9bVWtfrKblgZemdCNsaBj+aTzAwvRlqYU+lvIK3Nhw+nqU/PKyCRcRaMObBncFHG9uinZfuBPzk6z1OoyCjU5M2UC08gGtyZb2pKtq5y7dKyx5/StLWOPCh05YFrXj0gpXI3rnuzLgTNW0FjaB3j3l3jpuyg26LVkDZ7H2BFu/wTlXK2h4EZem5s15VyPzRev1tKnatZdOQ3mrUXB9KGlR/6GMb9bL6N9cFXX85P0yrCns21Zr1Kmr7u3cYUVlS8UZjMprfWpqpnw+4fHRky9k2tjTNSL9HR0rdvBMcYWisX175Kp+FXV4OFaayORiBeJbNwpehqH/SqsZfMFXP12rnkbHZtO8u1TB7j3n7njk6RGjtFBZ8pKhbVEW/iZP2HiKR6/g4hTx/gZn6TLHZ/m2ndy1vNZwbYrzVpjguOeY1ivIkzzaV4VY6VrmT6rI8j8Cl6M/nPwG+gzDdMHl9ude6FyRM1h8yUNRYwLs0fITdHSIwUCVu9lsjYei7UlW+uaba1UpVoZGR/rbOtY2rpwZHzUWKvnzWFjTDKRDNOj1uocJxFPOHrWNtABxppCab1LGWNMOpuJeJH6sTLWRr1o1BMps+5Ms0M54No38aaP0NK7qDDVnu28+g95/k18/t089J36tvy03nZhDR1DvOkj/NVLyU7jzCvsYS1aU4a9t7LjKrSzXtSMNbUifoGP0kwfZOppvCjP/oTsFI6HNTguT9+NX6pZvtlhdBNOKCy4UTZd1ETHz9Ie7tJFjKYKmy9GaYyPXq0VI96+sPaW3NdV3+4ADA0MTKVm5ucZKaWqvj8+PXnBrvNoEJOxgMsnm89WqtV6/UOVsSYejXW2d6xh36V4LBZ6m07nWnkb/M5ORynjeGSrXP8O3vQxYq2L3rcprKVzCzf9I+YmHrqZ2JmmZjTApot57f/i736NThe/Uscxk4C7Ps2Vb6Rv16muWStGUKVawhpSwzx9N5kJnv0xqWGmR5kYw1OoegcQ+gRb2DTdEE2u9tpgFmxJtMxntDanrubkL6ywqnpYAduGtjy270nf9+cbdQWlUqlULsei0cVb/fA7DwwfDoKgnrfARCPRwb7+tbvtUM/rhW+hUi2v88eXKxYWSBQ3xiTi8XgsLlJmPdnjapWBfl7wTmKtte7Bp+SZaBvglb/PIzfPmbsz6aQplH0XvZrnXccjd5B0OaGIuDV4UQ4cZHQvfbtWVceYgHKOQopn7mb/jxh9lEN7mJ6uCRcdPi5Nq/ecFTzR6WKP/2VznqxSa1CC1nNx6zmZwh7d2cmli3JriHAKL9HqbRIl5nfVlwdro5FoIh4vl+tYbq11sVw6PDq8a/tZp1phZXxyPAiC+YrBWBNzo2HfpTUK+FVAZ1uH67gVv1K/OZQx2VwOWM91ZYrFYqMBVIC1jnacsL35xvQ8nXZSRrtkKrz05zjnOqzllFvPK4DNF3PNm7jzX0nMs+WnvWPGBHRv58X/hQfvQDng15EUMXj025z7YmKtTTljCjsqhLEd1pKfITfBQ1/n0W9z4D7yJdywCYMi6YLBqppts2aNa95Y0B69O7FmlVaE8Kf07qInSTmPPuFY0KJh9HH8CpHEkjYGFQb7aB9abUdI60DDuaGgXCA/S7K79lthFdncP5TJZucnEymlKpXK+NTkru1nLX5VUEoVy6V8g7BZa20sFu/r7lnbwx2tdW1Xq+oYDGttsO799+VKZYFnEBgTjUSdjXyIdppFzClsQJRaConxT3nxVQosyS52XUeZM7HDSziPd17NFdeTL9eJjQi36Xu+QXayCXtjiwlQoB2qJUaf4PaP8X9fx/vO519+n70/JCgRd3A1jsaC8TGmpmDWQ0aVBe3gxTFmdQ+YgjkFY+vr++UsT8ZfA4E446F+UgAAIABJREFUcE7Dv3IgN83UAfHNrPraoIAtA0NOvRByhTLW5or5qu/rRZ8uAYdHjvhBnROrsJhNX1c3c4Vn1orWlhbHcWyDvW8QBNOzs+t5MhpjUpl0Q41iUVrFolHYwAV/3dPsVSMIaGulpe85q3zqjx3t0DFUv9vwGeKY6drOZTdy360k9YlBC9bgRjh4hMwovTtXVAcYlEI7VIrMPMu9X+DmvyJTIArJSM1VY83GCGBSqz7zT6KwbNM+vEmi0C68TcbxRFusxWOxba1tLS3J2VRq3iSzjtalUml0Ymzr0ObF7O/DE5kj4yO+788/XQrPszb3D7GGfZeUAmKRqG5QfsICStUufr2aC4stlosNS/1aE4vGYtHYer6FM0zKPLdDtcvVyFJ9a+gChvpIT9RJZTKGGDz1A3Zcs2IdeUyAUqCYeJp7PsctHyJTIOHSGsEE+NUFH2e40Kl6dlc1lE1N9TSIs2BttY7QTI0+1DeQSqfnixWtdbFUGlm0lFEo3/dz+Xxdp4u11vO8ro6uNTz1UHNtE1zHaeQZUoqqX81ks22trevzgMYam8vnVYNSv8baqOdFPI912KrzjJYyK/I4zuRUz/Det1zK+a/g+5+jzSGY1zrbgWfuppgh2bkC4TJhZEwxzSPf5qu/zfAILQ5JD+Pj+42fsqpV6gsCgjDC5vh0GwuNPDgRiJ2ORqbhX6kNOQkXmDBII7A1W1sHe/oe3/dkvYc2FwNrTx6lG1r9I+Mjvl/V9ZJMtdad7R2Oo9eqyO+xxGIxndWNxsRYW/Er63d3b206l3G0U8cro1QQ+C2JltZEy4aemdIZW5j/ampMQLydrZcRfK5eOXyDp3nqdspZkp3LVTJhs+XJ/Xz3z7nlc7gV2j2CoGEVO+WgLIGhaikbNLRo2nuIJHFckt24XtjmlUiCZCfKqeMkGdvLoYdOo4jRBY+QgurG82GEkViN7tXxcKPypq4V3Z3diVgiX8zPVyeO45TKxdGp8cHe/oVdFOHfDo+NVuqldhtrIl5k29Am1rrDUfjTu9rap2amjKl3R0oFQZDOZcJMq3VIoVi0xjaKjLXGRiJeNBrZ0HNSpIzQyFxA/zn0xCkXT8yLsRbXYzJHaoyurcsLKQ3QDqN7+ewv8tiPSUbAwa821FgoSgEViGv6hug9m/5d9O2iezvJLtwY3duJxGvnR4nOBhEVli//FgcfqkV5nwZPKjtJvkh0ftNyhbUku1fsHHDVGH6oobfGQKKTzi1zU0JYA7YObdq7f19dV0q+VByfmjyplAldODOp2cAE7rxsf2us67pDfYPr5MimtaVNa8fUa2cWHkIViiXWawX06dRsw0xspQITJGKJaCS6oWsAipQRGokGGNjN9qt45A7iDcJlnr6N7Zcv3UwGVRyPkcf4x7fzzIMkPWwD/4FycFyKZaqabdvZeiXbr2Tr5Wy/glhbw0p91lAtnyhWlMIEPHlHWE7h9NCc5GbJQcLBD+oY/sHdywqStWtRI89rfP5nwIsRb5PX9P9v78zDK7nKO/2eU1V3v9q3q6XVcrfbjdt2224bvA0GEyc4LCHBPAEPSUiYTIYEkjzMJBOSZyYZMk9mJhPmYUISAiEsISYsM0AChExwwAbvG+1e3O591b5LV7pbVZ35o67U3VJdSd0tqa/E97b+UHdflapOVZ3vd77zLVeRTEvr4RNHF+fpKaVKRXd8cnxpb0pgNfuGBjzfr7S7VJeuVUr5xlSDda1L19iWXSqVQmoDKuW6bjkO+mpVDV3i9TVmbGK0UsyvMUYrHY/F5m+KSBlhU2kZgOZryOzihcdI6BATqqHvZdw8keRl+WNcLIdzL/GZn+fEPmI2vhtuMi2bosuUx7Zt7P4pbn07W24rN2o2Pm4BFPPpD+rimr5ONNw2x9JrKy7WeUbQaqm6CtaVJWPb0fXrV7BATFd8No1EVl9dGmrrHCdSKBYWPFrGGNu2Z/P5obGRloaK9WDmpUyhWAjNXbItu7OtnSpwcgQioKGujsq5ysaYYLutGmN+jRkZH6sQ86t8308mkzXpNGzsAtrinhXCX99yqEo53TqsjKwFfQco5cM/sOxCX9tM9PLFD3BsHzFnYevH+XfNjjDjkqrj7b/FL36eBz9Cz51YNm4B30Up7Ch2BG2Xv5S+4Kvyq7lGGd0K3CIjJ9DWuoanLH05nnu5J2OwLMYHmB1f7ydwdmKZ663iKMsfBSzLrtRPwNI6O5MdGh1ewvYHlnV0Yjy0uJwxxnHsrrZMlYgDgwGVSiQqbtNo5bnu6Ph4JefHVaTklaay05UK/Xq+n4jG0okkGzl9SaSMsALHTHMKt7RwlWx8LIvTL5KbvpxjBzWU/+V/8/IPSFgYN1zHaM1kkd338d6Hefsf03MHvluufFh2FVzuu2dH1mrMjE9+ep1uURC0BEz2YVXITzaQqFt+EzBIBwsRrA7jMDt1OYL1Shg8WlnHQLKBmjZ8TzoxXUW2dmwJX+srVSyVJqenlvATKKUGR4cLxULo7pJSqiZV41Ro43w1pkIFtDa1WJYVekpKqaLrTk5PUn3ewiBtvtJZ+b4XjydSyfRGfxo3pZRZjcqQUrUimKSattFyLaWwHROlmYXhY+d1z8p1jB1h/zd54nPlnwsdba3Je/zkr/KLn+XGn8Qv4bsoC8u50u0bYxg7vYZGcF0fHoWbpzRLpWWXD607lo+VidXQfA3uohttDDbodVcMM2MVr9eDSBrAK0l/7KtIY329bVsVfDY6O5OdmJ4MGkovljJA3+BAoVCoUOTXar+KLSQrXm+DXaEZmVa6WCoOjY9Um+0wxvQNDS7p2VLpZMq2rGrIeBcps+DWWOUJ7krui0yRwQjUZajvxAsbTePjwNHvX1qbKmPQFsbj6b9jYIhYJHxzxHIoeTz4Yd71Meq78D20swoiZl7sDh9fK6+MW6T3wHr5MAzA5AATfeHtJIMMrUT9MucMODGSjfihmhWmBspv1vp5ZV6pcMU+DsTT8pJedSxtBdEwi82nZdmT09MDQ4OE7TEFJnNkfDS0xUGwEt2S6aRqQk+CbaO25laU8kO9MijP96enp6vwsewd7Ks0jEH1v5pUehM8jZtMygSt5rIUZy9fHQd3vTCN/tH2zSiN75JqpnknedChuw9w5gXcS2lwHwS4vPhVDnyDJOEySGlmS9zxLh74XZQ+31pytXCLqyAzVMUqDRRn1mlxZuYysaeGsAjfpAu8Mis5VND9yoTd5enhcmrGur0Rk/0VnEw+Majv4EoXK8IqGPitHVtCfeBaqUKxOJmdDvUTKKUmpiYLxYJSKuyRVQ31DbFYrNqCThTUplKh7aUMRiuVLxZHJ8Z0NYXLTExPzVZo1Rkkw6dTqYa6eqoyYPmS2FwZTMHW/mSJwcOXO9MZlKYww+kXcbjKbZarYTyB1u3UzDnzL3pFDRrO7cMtEE1ewg0yhgPfZniaOiesDp4Cw47beMeflINnV712SN/Lq3CQkh+qHPCK9B1cV69MdpTsaEXlbUO8tjz4S8xWxq9Qk9BgwdgpchPLeHdWl4HD4cbEg0SKug7xylQDrc0ttmX7fsg8qbWansnO5nKJePzCPKa5Ir8DuXzeCstdspTONLVW5/W2t2TGJsa9sL0YrXW+kO8bGmy8qp0WFnC2vzdodBX6MpVcNxmL19fUrvyEC4XCN777T1dySjdff9P27h7g5aOvvHzs/GueaWq9+/Y7lv3xQ8eOHDx6aP6vLY3Nr331XWzCDabA//zyPzN0BCvI770Ugndy5DhPfZYEG6Nz4VouuwBattPSTWlR8Sdj0DaD58hNXcLdAU6/wKlniVVQitqiYHjwI9S2w9oUaRg6ugrDsuUmIuAvUg+eYezMeikZAzB2mpFBnEU5U0EaWmtnuTBu5Vpl5V2/xq0hG0zGoCE7RjG3XvoMRk/PBRovPlWIJkm3iFemKpbClp1paQ3dY7Ite3JqamB40R6TUsDQ2HCxVFychh24dDKtbdXmJwhOpjOT0Va4h1hrXSwVR8dHq+ecfc8/N9Bb6ZX1jIlFo031DVRHQ+z+kcFcPrfchGdOnTsdPv6b7d3yPeI2h5/h0b/ELaCsS4jk8F20RW6C//fHjI+h7R91r0xgKhq6qO0ICQgNDJsPg4cuTcqc+yGnDxK1WLyYUxYllzf8Mj2vXkNbdfq5VThIvCbk7JTCY84puPazQ+CvGjtDAfTi/gwKD7puJhJf0X2paQ2J7w7WBgOHl+oksOp+ptMvoCqMngs1GTp3B9ZDxMRVN/Atjc2ha3qt9Wx+dnxqcoEp0kpNz2Tz+XwlpZKKJ2qrMnrDGJNKpFLJih5orfRUNjs0Ohwa7Lz+DI+PVO4iqXzPq0mlmhubqkc19g70L7PGGR+byc2Gq+pN+HoZDxse+0tqmnjDB3Fic74Ztcwcqm0KM3zjD3jqYWLWJXt0NqtXpr6Tuna8MCkTpLcce4JX3b+CKmqm/Jn+Q+QgZoU0e9QKD+7+5aWKvV45r3x3FYalqQfboVS66LEKvp+ZJDdJLL22pT8DV0opx/jZ8ExspfF82nZhx1akCyNxUpRz3edVkTE4Nn3HyQ6V/7qmk17g+zv1TPgqoty1oJbGbnxfNpiqgfaWzAvqpUqmfXomWygWo5FIIHeCzY6R8dF8Ia+VDo0I7mrvrObr7WztCO0KHvSfms3P9g0NVpJ368zRUycqnobC9dx4LHGp22HRaPTBB34q3M3jeV/7528G399+063dHV0rPGY6kczmZo0xJ8+e2r71miU+eabvbPBNTTI1NZPd1F6ZYLa1NKUCf/8HfPxtHH9irn6atdSX0hz4Rz72AN/7C7TCl767gS0s4sRp3VGhvKpBw5kXKrZ+XGilFIUskwPhMapKU3LZeQct29bQqzF8gv5DVzguAOmmEPUWWGIvz9m9KL22jpnA2I+eov9QeFxXYPi7blppEZ1YDbX1eO7FEsGgLPIwfu68H2itOfQIfpj0CoRUuhkUvmRiVwWxSKStqTk0XMayrKnpqbGJsYteEOgbGpzN56ywnRqlVKa5SgNlAnu/paNziX5Gvu8Pj43M5nJX3TEzPZMdHK3oSfV9Px6LZ1raqILdpXg8kWluAyaz0xNTFWtjup57uu8ckIwn2lrafgS8MsEsr6Hks///ceo57Bjdt5Gor+homRml7yD5KbKTKCkcuMhsN/VQY+G56Isjfw1oOLMXr4Sz3C4GPlhM9jF6EjvU9GpKPrvfVg5TXfXlf+AjefYLV1ooNpjIel5DJEEuh74w7cegoTDDiSfYcS/GX0PbH9yIvoOcfJ6oCpcyRei6+fy1L31FyUbaruXos0TURRos2GM6/QK3/SyRxNq6mpRidpyBQ+GPoueTtNmy5/w5C1cby7I6Wtv7hwZt277QKAblYSamp0YmxjItbcF/aa2zM9np7HRoIKoxJhGL19fWVfP1puKJxvqG4dGR0PO3tDU+OXG69+yrtu+4Wo6Z4PceOn7EdV0q1DB0Xbe+tq6jtVrqKfd0dvUN9QNn+3rrasIfgIGhQc/zgJ7O7pLr/mhImcDKBsEDE2N4MPYPS1lGAy5YYEkoYZiRy1xPYw99x4gsyNY1aIuRAWYnidUsf0cUFHMUZsLFolK40H3rGrZx9lwe/2RZgV2JvDM+zduxIyFuFw3FIkd+wBvXNB/blCNFBo8wDY3OQn2mFG6RLR1zunAl6+s0te0hNYTKUuZ5podp7F7D7r+BSDrwbUrFCnFIhvoWum9bP/+QsAJaG5s937fD3nit1OTUlOu6tm0HRdhGJyfyhUK400KpTEtr9WcFb23vGh4LD+/VWheKxcHRoR092yzLqpQ9tNbeo+mZ7LmBvkrLwWDk69K1yXjc931dBTFnrc2tju2U3NLJc2d27XhV6CmdPHcm+KYz037y7JnF8+5m9yk4EAMNqvKXhijYomMI8ZQEXpm69vDI37JvYP/K1CVMDTJ2pkI9N4UHDd3nD7vqZvLgtxnvv9K7HPTWjqVJNZ6/rgVX0XeQ2XG0vVZqJshRn+rnxNNEQl1cFkW48U3lDGq1At9bsoGW7biENKmIWJx6lunBtV9/wJOfLVe4WYwL6Ra23i5SpqqIx2OtTS2+7y++abZtT0xPjU1OAEFxueGxkZncTPjuEnS0tlf/9fZ0dSfj8UqNpiOOMzA8dOjEEcD46713E5zVS4cOFovFSgG/nufVpNPbtmylagJ+tdZbO7qAYqk4NBKyLzabzw2ODAFN9Y2pZIqwJeSPiEle7kuoNHC+T22G2kyFJCaw4PBjK832Mn54irvSuEV6eoim1spMGp9vfhjPXY3bHTirdmEvrikHGgrTnHgSpdYqCS447Mln2fsNEjpkSJWiBNvvIpJgWS2jVLlR+ZY9FBZlBgXxxVOGsy+tsYZQ5Kc49Rx+BfVmQWYn8VrcgkiZ6sG27M7WNn9RIHYQCTsxNTk+NQFYWucK+YmLc5oW6J6WxqYNMCcq1d3eZSr/r2/8voH+yampdY6YCbaWzvX3DY4OLaFRjDHpZLqxvsGvmvo3wJa5cO/Tc7G9F9Lb31d2iXWGRxPLdCAs64EoATR0VWhYGBTKe/FSavCoimtyy16TGIggZuV7f8bZl1ZHtgYnueNenOiiPSaDBdkJnv0igFmD0kRBRR/f5chjzBDm+1EYn7RF96tX7OIKstW66GygmF8oFHyPGLzwFSYHVnzAy7hHiic/SzF0/1HhGVIJtt0pLpkqNO3tLRnP9xdvpiiUMf7U9HRgZccnx2dzOR3WN94Y09Ga0Rskwf66nu0Rx6kkFBzbGR4fO3L6+PqfWMl19x89VCqVKmkU1/cSiXjZJVNNQ1pfV59OpoDegf5icWE448mzpwGtdHtrRqSMcHkTlQbouImGGlwvpISagjN7L8X9YCoaU89dm60lzdBR/v4PKJZWScpogN1vJZoMcSFohQvHn2ZqCCuy+o6Z4IC9B9j/TRJhaklrCh43vmmulNyKxVlDF917KC7SCr5P1OLl7zDRu9QdvPKL+t6fUgi7R0Gd39oMux4A1jCaak0Wy/6mz4iMRqN1NTX+okfdYGzbGR4fCYJLhkZHs7MzltYmTAF0trVvlOuNRCLX9Wz3K0xWxhjHto+fPnnk5LHASbMOpxS4WJ7e+9zk1ORSitCYhtr6zrb2Kuwf2dPZDfjG7x0cuPDfxyfHp2amgc629ogTESkjXIHZbtpGTStumJRXmvERsqMrPVqoHTI+doSTJ8lPr7Yh8QAefh8z46sW5h7syNR1UNsWLtVsmDjD458quzRW9XrKA/jyIxw5SjSsH6e2KMCtD5ajeVYyYZWlzBa23R2yxxSUXS7AU5+jOLv6eebGR9u88BUm+itFKqKh+3ZarsUtVqlXZvFWtTHYEUZLDLxyXq5tRiKOsyXT5Xne4mortmVNTE5Oz2SBialJ3/cWW1AFKNXW1LKBLvna7msiEWcJTxWKQ8eP9g4NhFbQWe31mtFK7T9yaGB4qa0lz/cS8fjOa3ZQlU2XOjNlLXvq4qjeM33BCootlWvViJQRVmbkunbTsJVSqG9/rrrM8jM91LTRsKViBLENvftWan1Xgueibb78m7zyvdV+2BXA7rfh6LA9Js10kWe+SClHmDv9ipxMwLl9/ODjpMP6cSpNqUimha23XYr5VOVSBVtuIcWi6jKU+zi+8BUm+1bbL2MwBs/l2/+N3CxW2BPoQrqR1zxUpS6ZYKisCE11+Is8lwrKvrtNG5Sntc60tnqhMkWpkudOz2SHRoZnZmessNvnG9O5cXaX5h0zt15/02L1Nq8tLG3N5mb3HTowMj6q1rLHZLB598qJo4dPHPUq+1qMMRham1paGpuq0CUDJOKJlsZmYHRyNDtXAc/3/dO9Z4BoJLJEKJVIGWEFfhSvSDRJTUuFeExQcOT7KzqaEyWSCDeE8/2zirOrc+a+h2Xz3Jd4/DN4q10cNpB0N7+NSJwwdzlRGDnCdz5S7jG+WjpGaUo5Hv8Up07gOCFKRVvMwj2/TPO2SxSFGiDzKrbfTd4PyWOybIYG+P4ncQurOZi+h7Z45E/oP1jR1vvQ1MVNb8F3qzdQxnKoyeBfXN0veKqHjpKfwo5sYsdMKp6sS9curpUXGPXsTPZk75nZfEjtuKCyXEdrZsM1Z+5s62huaHQ9r1LOs2PbE1OTz+/fG6iZtdMxh08cPXDkkOe5egmXjDG16drdO280xlStatzauSX45uxcnO/g8FCxVAK2dnQvcdoiZYQVLZsBmnqIB9slC93oKDj30jLT9HwdttpMSPES5gIynvh0ed1/2Qt/Y8p5UgqefZi/eR8zU9hqlfdEgpTsrbfTdUtouS8sTbbA0w8zegrLWY1tprnz3/t1vvMxaiIhRZaDs2pIs+ftc2E66hKuyBharmXXj+OCskJcXEmHf/qf5e2SVRlP30Xb9B3gnz5KrogVFibjGpJJ7nv/RQ/SBnp5bBg5ydDx8061zUjEcdpb2tywPSbHtofHRs/191VyBmit26q1yO8S2Ja154bdltaVnkl/Ts08+eKzp3rPBBrOGHPlHpr5gxjDgSOHXjr8suf7urLD0hgTte0bduyMx6LVPKSZlrYgUf/k2VPBBZ7qLW82dbV3LLcOE4RljVywXq+pxzPhUZlnf7hM+4IgMznVROM2iqG9AA1A0efb/4NS/jK98b4HBqVxC3z7j/jUrzA7jnNxkWLU6qzsg4O8/v0oO8wx4xPXnHuFr/9e+a9XOH/5BqU49xJf/Y9YhHt6LIdpnx/7TTpuumSrP586ft3raM9QDAtJCQTZl36TmbGLWjVdtj9GaXKTPPw+pgdxQqsNgYGWbdz13vJ2YdWibWrbFg6J7xPVnNjH8cfPD+BmxLKstpbWULGilCq5pdDtJ8D3/bbmlkoJQVVOXU3dza+6wfO8Sg4D3xjLsvKFwjN7n//hof3Z2Rnm4lQuQ9PM/0iwYzU2Of7Yc0/sO/wyxqglWhAY4xu/K9Oxpb3TVFMC9mIc2+5q6wBm87nR8bFCodA3NADUptN1NbUiZYTVsNntu8qF8kJFxtQIA4eXPkrZ+jZ0oCssT32PmM1jn+LQd8riZqWvusH3MD5aYwxjZ3n4fXz191F5HL3oIIbSavj5AzfGbT9LuqGCTTdYsP9bPPbxsmPmstVMcGljZ/mH32fgLLZdofNDkdZGbnwz2grzn63sRm/Zw843UIDFdcyMj2Pz0qP8y0fxSlekZgKj7pX42u9w4qkKU5HCM8QSvOHXq9sfowCcGJnrFzVeNWiLIpx6Dr+EHdmUjpngkmqSqVQi6V9KupZSyvO9THNbaNG8jbDKU9d0be3MtBdLJV1hgRQoDNtyDh07/P3nnjzb3zubzwWS4kJNsyzBr1NKeb4/PZM9eurEo8880T80uLQKVOAb01TXsOeG3X5165iA+T6UZ/rOnRvsCy68p6tnmXWEmGlhRRbOGDLXk26rWChPw7l9K7KUmevpaKNUCneNeC4Rm796J/u/Baq8Y1J2aVzcM2F+IymITlAapcmO8vyX+ej9/OBvcGyUv9DkK42vaFyltM9gJH7it8JtujHYmqlJ/v4PefH/YNnla7nEhVjZezHRyxfez1N/T8LBDXXJ2MzC/R+k59VwWeGxSuG5RJPsfivpGMWwlo2eSzrC1/6Q738CY8o1bC7nihS+x5d/g+99As9Dh8cbYODaO7k7cMlUt7WzHBq68Rdpfd8lBS9+lR9+HSgXatpkMwQA0Wg009JaKRK28kOnW1taNu6127a954aba1KpkldaIpjD871oJJqdmfnB80/94Pmnjp85NT45kS/k5wXKsvi+ny8URsbHXjl+9NFnHn9u/w89z4vY9hLaUQWFZGKJ1+zeY1m2XrT3t4Rsulo0NTTGo3HgdN/ZE6dPBv/Y2ZYRKSOshvvBK2I5NHQstS479eyKpEz3rWy5jVzoHtPcer2Y5xMP8twXKUyX+5YHL6Hv4rtlf4NSKI3WaI1bYOQ4z3+RTz7Inz9E31HiNv6iKjVKU/C55S3c8178VVnlK4B7f5XMqypci0/MYryfz36AF76EZWMMxluRM2Pe5GuLvgN8/ld5+h+ojVIKq7xiOWSLXH8He95Rdp9cHkG+1e63csdDFAjf0HGLxGy+9js89hdz6nDFDqey88xidoIvvI/vfRLNwjal5z8MtU08+JHLVGbrjLbovi0ky88YLJvJGb7zUYaPYUVCnsylH4MN4shxbKetqbV0KVLG9/2muoZENLahJ8h4NPba2+5KJVPFYnEJNeP7PoqoE52YnHryxWcfeeLRZ/a+sP/Iod7B/tGJsfHJiVw+v+BrNpebyk6Pjo/1DQ28cuLoM3uff/Tpx184sDefL8QiUWOMv+SzUXLdaCR606t21aRrPN9fHHBdiWBGD75Krrue4kYp1dO1BfA8bzI7DbS3tMWWe0I2bztJYdUdM0BmF2l7LlN30cN95LHlD+K7pJq55nae/+YSkzdKUSrwZ+/i3p/jNQ/RvJ26DiLxiyxrcZbsCLPjDB3l1HPs/wYnDqEhaWNMmN9CUfJp6+ahP+fRj6/m4EQSPPgnfPRNODpEQ7gecZvpAf72P5Ad5bZ3kazH+OX6toEmW+CHCHxO2kJZ+CX2f4uv/SdOHKA2QrEQomO0RaFEXT0/82Fari3H0l62bPU97Cj3/BteeYK+wyQsPC9Mbs7ymfczNcTdv0Rjd1loKg1B0Vd1kTEuq93gVGfoO8DXfpf93yVqQYUoIgPG5o0fonN3OcupmgmafLVcQ1OKQq68+XihK6smyoEn+drv83N/Trxubvtv0VhdOFyBJ1JvjFk62DGpq6lJxGPGMyt71pTruR2ZjG1teEtUk07fsfu2Hzz3ZL6QjziRigrD4ONrrRLxuO/7fUMDZwd6Pc9LJpKO7dQvCgfxjcnlc7P53ExuVqFs27ItO/jZlciLupraW3bdlGluBazXE8zjAAASvklEQVQ5jRWcm+u6xVJRa+16blBd10CxWHQ9T2udy+fy+Xxwxol4sqdzy3ruAHZlOl8+dj5cobtyORmRMsJluR9ariFZz/gwTphbYeQYXhErsvxxdj1A95c48zJxKzwQMmg1kLR59PM8/bfsuJv2m6hrp6kHDMUco6eYHWP4JKPHOXOUgiJpSNn4YaVWgt9rIJHkX3+cus7VH54bHuDOd/H9vyO56IoUuC5xi+l+PvcBTj7N6z5A+y4iiXIiu3+Bk0Zbc/oGjM+xH/D8l3nsE5QMKQc3rGW01ngKD978e+y8v6yBrtC74JW45k7u/td85T/jmjCviQFN0uaLH+bYE/z4B9l+zwXd0c35qGSlUFb5816JoVd47gs88kkmh0nald05irzh3ge5/4N4JSxnQ7wfJBq55e089jli1sIqzKUCtVGe/ALFSd7y+3TejHZCHoBgnzQ4ogJjKGTBEE1XvetWAdFINNPUeqbvnG3by9raYO3f1tSy4dKwQ2luaHzNzbe9eHDfVHYq4kSWuPxgE0eBbduOchTK871CsdA72B86sJZlJWJB0Qfjg1lxNFJLU3M8GusbGiiVSgo8Y7Iz2WBDKl8s5PI5rXWxVJqdnTUYY5jJzZZKxcAxo7VWSrmuu3Pbjp65HOn1IZ1K1dfWj0+OA7ZtryS7TaSMsOLFOtB+IzVtjAzjhHllinn6DtJ1y5JmUpdzmHf9GKdeRmmokNNhfDxDysH4vPw4Lz2OO/dZBTZosMGCuF1uqehW2LgJTHvJ451/yg0PrJW7/qG/4MyL9B/GDlMznodjoSy++3n2PcIdD7Lj9bTfSG2GSOIix0x+mtFT9B/i6KM8/QVGJ0lrIjo8QUxrjMZ3uf9XuOeXz4uMKyQYsTf8Jmde5Jmvk3Dw3IVjG9yg+gj7/oVD3+WOh7jxAdp20nod0dR5X4LxyU8zPUT/QY4/zXNf4swJkg5Ju4LoBMthpsRNr+Xdn8SYDaBj5rVMLMWed/Avn0PbIRrdLZCweeFbnDvInQ9x3X1kdlHTulB6lvLMTjA7xugpBg5x7gC3/yy73rgBXFMQi0YzLa3Hzpx0HGdZKeMbU19bn4wnN8ccGbSRSsYTT+19fnxi3HEclsgqCl6n+XheQCnbrmiR/cvqfTE4PHSm75znebO52bkJQwfCUSmty9+o+U2xqBOJRaLzzmGllGt79tWIyH7DXa+9pM+LlFl787850BqvROt1pDOU9hNXYVGucHYvXbfMVc1bYvUK9/wbDj3KqX0knMpZ3AavhFJEbWJzwTHzBrIc+QueB5Vr0Gkbz+B5vPX3uPPny7tXa3GvE3W85zN87E1kJ0LUDEHusU/KYWaIr36Mmk9x7S3UbaH1WqJpfBdtMXGOqUEGjnDqJQqGBNRG8FyMGy44fIXncu97edsfEa9ZNWsXbAXG0rz1w4yc4vhe4g6+G9IH3C0St8Hw6MN8/wv07KRzNzWt1LaXSxTmJhg8ymQ/p/cxNkVCU2vjeXh++ONh2WRL7H49v/hpoumNlO8T7DF13sx1t3LqRZywZ8BziVuMnuUrf0TzX7Htduo6aNiC5ZSvtJhj7BTTI0wP0HeYvhmakux47bztq3JbrpSqS9fGI9HlXTJKua7b0ZZx7E1ihoIE6bqa2nv2vGbfKwfP9PcqcGzHW0EGfrlEzGozPZMNZEoqkZr7RebC+7Xg/vnGv/ApC2KNzUZ4B0XKrPHUtol0WTkKpGkLkbCo0mBD5MQz3PWLSymZwAC7RTpu5I0f5G/eTzEbPulfOIzmsqrlGnAc8i61jdz3fh74UDmSY+245k7e/Qkefh/TYzhhXgcTiDNNYxSvyMEn8Z6keIGRssAGB6IWMQvPxS1WlGg+lFzuey8//cckG/BcVjHmQNt4RTpu5Oc/xWd+gdMHy2pm8VPtuyhF2gE4e4hjh/Dm/GcGLHDAgqimPoLvhadfBfrJspgqcfN9/MJf07C1vM+4sZYu9R385If4s3egHXw/RH94HpZFjcPMCM/+Ix5cqOT1nMfRgoii1SLmzG3aqqofAAXEY7G2lta+wQHLspawggrlGT/T3Lqx+hWsRM2kk6k9N9zcWN9w9NTx8ampeDQaaIL1P59ygIsx3uYtaDT/3ixcLQurtD6DeM3mcjIFRUduI53EDfNtGMp1wJZdPtoOvscdv8B9/7YcJb/q05nSRCJkXepaeehjvOk/o+0195MZw5538O6Pk2qg4FOhiSvGxy2AIeFQE6E5RsvcV0OEtEPUxvi4xQqJSArboejhWbzxA7ztv5NswCux6rGTVgSvSPcefulzdF/PbAlth2uLQKJ5LhGLGoeGSPlyWmM0RamJkLBR4BYratbg7kyXePVP8p5P07S1nIK+EVcvN76J+3+D8TyRWPjEajw8F61IOdRFzt/9lhiNUWojpBxiNkpR8vDcjdXuIB6LtzQ0F4rFpSNgfOPXptKpRGKTzf2BmolEIjuvufbOW26/trvHGJPL57VS1rqLtqufWn0VvDI+SwUuCJdKRJeb4GwakRhMTK3XEq8jOxP+mbHTuIXlIn8530T4zX/A7DiPfIa4jaUrBk9cqgPJtvFhvMgtr+fNv8t195Wd/2t9LxT4Hrc+iBPjS7/FqcPUObj+wgjQeUHjXbqJ0jZaM1WkoYWf/k/c8R6iCXx3rQJKrAhukS17+KW/5Usf4MATxJa4Uwbfu+Q5JHDG5H0sj5/+He7/96SaNkRcSPg7YnycOG/+EINHef4fqY3geWEPQNBE01/uedpwWs4opZrqGpLxuO+bJey963ntrRnHdth0KKUwxvf9pvrGmlS6oy1zpu/cmf5e13VjkajWOtja+dHQGOssZbSmJkGpgLY3ccOz9XJ1aTwPNzbXyPfSlbgJEhkCcXnR1iXKW/NdkqW9Mm07SdRjelEWC9pLKh+3RO8BuvewzCZTEP/rE0vz0/+Dlm383/9JcZJE5IrWoEphORifqRKNzbzz33Hvr1HTWi6Vu+CTC4ZXaZR3xQOrynVZbnwL9V1887/w1NeJOEQ0XgVBs/IjWxZKM1vE2Nz1Zn7899h2R/mYa5qva0fwfbbcwnu/wCMf4ZFPksuTiOD7V9QmUwEWlo3rMlVix6286UPc8jPleoyrpWOC+Cp1Ya2XuZfIrNlrYnzSrbznr4j9Gs98HSdCxMYtrfPUemGNkIWGdo1JJOJNDU0Dw4OV8pi01sVcrrM1Y69doIyqOAhq7Vc1wS81GMdxtmQ6WxqbtnZ2D48Mn+47N5WdtixtW7Zt2Ya5PxdowQ1q9yzLevCBn1r556+/duf11+68vN91487rb9x5fZiUidfx7k/y6Z+jqHB8RCxeCSWfkubN/5abf+YyN/sV+D4+C/falQr5x/WUMl6RunbSTbjgLyqka8B3ObeP7j3LKpmymjE+qUbu/20at/PV3+bsGZIWdmSuhq9Z6YkpXS7VP10k6nDXW7n3V9nx+nIv4sW3wBh8UBdWNFH4qxTeFCzNO2/m5z/N9n/Fo3/FyVdI2jgRfB98Vr5rrtT57NxciSJsv47XvZ9b305tBuODXo/o8uBONWzhLR9m+718+7/y8g+JQjxaLpBzCc+kQuuyiCz5TBTo7ODB3+Cmn6Jle1nHrOIVGVN+lc7L7rmXSK3lm2IMde28+6/Z+mq+8wl6T1NnY9vlt2ZdNE1o5da13nAIREMinmisqz/Td7aSlPE8ryaVTsQTsKKp4rKuH1T49ZqFpcPXTk0pY4zBxCKxztZMa2NzV0fn2MT4+OTkyPjo6PhooAC00vOJRVprVTXeOKWUMaiNsM97gSK+/Z3YEb77MQYPl1eWwuVNnYla7nkvr/919GW4T4KlhE1NC8bHji6UMsUcNS2oqxqvfc2d9B48X4H3wmtXcG7v+YlkhUtYrbn9Z9lyC0//LY98hNFZ4hCNlOtqBPPO4rq985be8yh6ZF2am3jDA+x+O6+6j2h6rgxd2HsYTVHbjLYvKuiih0nUlQ+7KkvzRD33/To3vIkD3+J7n+DEEWKaiMGKlNVqMGhUvjTfpeRR8HA0N76OV7+bHffSsn3OHKr1y5ILSvrG0tz6M3TdzMv/zLOf58WnsA0xcJa8WeXSzAqlMR4ll6IBn+03cds7uf7H6dxd7uqgVjHvL+iLlKC2lWLuAjePwi1c8BKtzQAGNSRTDdz/W+y8n2c/z9NfZnCAqCJqlX2H4WPF+Z1QrVEl7Mgl+6gUQDQSLUVLCyqbGWNsy7bWcvMu2GNqaWyqSddYOiTyN8hd6u7oCkq4rtUTrBQQi8Rcy13glfF9PxqJWuuygznfZQlwbLuprqGprqHkurO52dl8Ljs7MzU9nc/np2amS64LTGWnPK9awjyCO1UoFqpfDajzz5kBfCb7mRnfVFnE665lcGI0b58z7Zc1kqUCoyfniuoukkqWQ1MPduRqXJxBKbIjTA+VTeliIgmaei75sMHU4+YZPMbRR/nhVznwGHkfZy6n4+KKuHjgg6fwDPVprruHXQ+w7S7adhJNAudr6YYyNUR26OL/VfguiToatqyaYyBYfAferIk+Tj7Lvn/gyHfp78dTREx5NbHgV7lzF+hCrc01d9BzJzc8QNt11LaXdY8xVycktjyqgGKil7P7OPTPHPoOJw/iXpB6s+DUfAgq/uQh4dBzPd2v5qY3s+VWatqw7PMDterMjDPVv/BZDToJNPbgRNd4vPzyZnFxlqFjHHmM/d/kyJNMZLEV2pRHbLE7Idi48xVFQzzBe/4X/+pXLrWIc3ZmxjN+6HMci0YjztpOIJ7nBU0TK8mdaDQWi6z5JDaVna5kpGPR6DpH6sy3hLzodfdcz/OKpVLwv8VSyVRTjIcxJh6LpxLJKi9jqC561DZW6mP1u2dEEV6SBPT9OU+PYbKfyUF699F3kLEzDLxCITu/pCKapPVako207aR5O607SDaQaixP9EFphGrJ8DTnt4GMITdBdoTxXvoPcvYlZkYZPk5ucs4/pDAerdeRqKNtJ+030HotyQYSjUTii0bp6uF75z2OhVmmB8mOcm4v/YcYP8fEWSYHyhV+lcItUtdO0zWkGtl2N009pFtJNhBNzVX3N5t62jHlpptBq87sMDPjDB/l7F5GTzNwmOnBRUKjhradKEVDN7WtpFvZ9RMk6mVK2UTGwVzosxFWW8qUzYBsLV35uF6hsTHLhFNofTWzG4KW1BWvXV2+ZQqOfOHVFWcp5SlMXdAGyKBtokmsCLH0RUXzAl/FSka+4iWotdJA5d0T6/zZFrK4RQoz5TKA81cXTWM5xNIXJSWV/RaqarJaTHk76UIvfWGGUp5SDjd//jyDjJ5IAjtadphdeL/W2sm/xLO6ri+RWZhD5xYo5ihmKRUWftayy20KInHs2GXPJEvVdFkXC7p0UM5VP4fqkRHVH+pb/ZJLST6YUIVrlrIzQ1nLz+NBIC2aDVFoa36psBI7WhZnal1jYi5TK5gV3azgw1V+RWtK8Lieb7S04tdB/OWCIFJGEARBEIRNiSh9QRAEQRBEygiCIAiCIIiUEQRBEARBECkjCIIgCIJIGUEQBEEQBJEygiAIgiAIImUEQRAEQRBEygiCIAiCIFJGEARBEARBpIwgCIIgCIJIGUEQBEEQRMoIgiAIgiCIlBEEQRAEQRApIwiCIAiCIFJGEARBEASRMoIgCIIgCCJlBEEQBEEQRMoIgiAIgiCIlBEEQRAEQaSMIAiCIAiCSBlBEARBEASRMoIgCIIgiJQRBEEQBEEQKSMIgiAIgiBSRhAEQRAEQaSMIAiCIAgiZQRBEARBEETKCIIgCIIgiJQRBEEQBEEQKSMIgiAIgkgZQRAEQRAEkTKCIAiCIAgiZQRBEARBECkjCIIgCIIgUkYQBEEQBEGkjCAIgiAIgkgZQRAEQRBEygiCIAiCIIiUEQRBEARBECkjCIIgCIJIGUEQBEEQBJEygiAIgiAIImUEQRAEQRBEygiCIAiCIFJGEARBEARBpIwgCIIgCIJIGUEQBEEQBJEygiAIgiCIlBEEQRAEQRApIwiCIAiCIFJGEARBEASRMoIgCIIgCCJlBEEQBEEQRMoIgiAIgiCIlBEEQRAEQaSMIAiCIAiCSBlBEARBEASRMoIgCIIgCCJlBEEQBEEQKSMIgiAIgiBSRhAEQRAEQaSMIAiCIAgiZQRBEARBEETKCIIgCIIgiJQRBEEQBEEQKSMIgiAIgkgZQRAEQRAEkTKCIAiCIAgiZQRBEARBEETKCIIgCIIgUkYQBEEQBEGkjCAIgiAIgkgZQRAEQRBEygiCIAiCIIiUEQRBEARBECkjCIIgCIIgUkYQBEEQBJEygiAIgiAIImUEQRAEQRBEygiCIAiCIFJGEARBEARBpIwgCIIgCIJIGUEQBEEQBJEygiAIgiCIlBEEQRAEQahq/j/rlRzPyKPZ1gAAAABJRU5ErkJggg==;" parent="1" vertex="1">
          <mxGeometry x="780" y="240" width="90" height="36" as="geometry" />
        </mxCell>
        <mxCell id="7zLjmCOxjH0i3wly7O3S-39" value="" style="html=1;verticalLabelPosition=bottom;align=center;labelBackgroundColor=#ffffff;verticalAlign=top;strokeWidth=2;strokeColor=#0080F0;shadow=0;dashed=0;shape=mxgraph.ios7.icons.mail;" parent="1" vertex="1">
          <mxGeometry x="990" y="230" width="40" height="20" as="geometry" />
        </mxCell>
        <mxCell id="7zLjmCOxjH0i3wly7O3S-43" value="" style="shape=image;aspect=fixed;image=data:image/png,iVBORw0KGgoAAAANSUhEUgAAANoAAADnCAMAAABPJ7iaAAABCFBMVEX///8AAADwvxo+vrAjHyAHpd4Am4/XoikeGhv8/PyTkpPQ0NCkpKTm5+fm5eYtKiv29vYKAABLSErv+fj99uP68uS6urqysrLw8PAroZba2tvxxDYbFBZVxLjvvADbqjvP6vd1c3R/fn7Dw8OLiopUU1To9vsAot1DQEEPDA1oZ2fH6eXMzMyZmJjBwcE6NzgWYH9fXl7f8vD88tb56Lj22YTyyUvzzFf33pf67cn00Gr+/PXy4brkt0fkwG/WoBfhrSLoth3224vyxz7r0p3ktTgtUGNGtOOn2fAcISYAmM0hFxMNi7oTe6NcvOYUbJB8yOorRFHY7viDysNxzcOj3dZSsqm03NngtozfAAAIG0lEQVR4nO2YC3ebRhaANTauQbyxA5hgJ7wawEisnLZJ42zT3XQ33e1ut9vEzf//J3tnQDAgbAvHrYL3fuf4HEu6XO7HzNwZaTZDEARBEARBEARBEARBEARBEARBEARBEARBEARBEARBEARBEARBEARBEARBkJuRLo+fA8eXuy7kfrk8/urrb/YqHr94+e3xrgu6Lx69fLV3dra35uzs7PHXXz2EwTt++ZbzWtvtvZi83OXrP2+I1Xavnu+6uE/i+Ls3h98PmVG5vZcTHrjnT94cHl7rtnf26tGuK7wrr5nZTW4vJtorXx9WZje5fTNJt9eHLQ9r3I6fvOHc/nKt2193XehoLr/jzQ4PrzN7++2uKx3ND12z4Sk5yc3t+ZOe2pu9s74WHLimuLP9cPikx98ed3n79tU0z1qPNjjuM0kvZJK46gBf8ki7LvGuxIK+yd8PON79+OWui7wTRm6KG/j/+Cfv9uzd012XeRc0yxc2+elfBx23g6e7rvMOyLo4pPbvg67bzxOck0syYCb89J+DntuPuy50PPagmvinvtov0+uTzpZqPx/tutLRbKl2MEG1Bzwhh9uI8BDaSCFs1fzfTbD5a+mD3bLd1cBBS/T5g9azZwcTnI5ALA4cj//Lq7375dddF3k3VHkA72nLrxNcZsiUObqd6e3XFe+/OOmzf9rlw9X59A5awPnJFz1O9jf5cDXFoXvfVxswo3IXuy50PEe/3T5olNPzXVc6nt6UvMZsf//9rgu9Ax+3MpvijJxJV7dPx/3TKZoBV7eaTXLMGB9Pbp6O0zWDXvLbTWZXk9yy1xxdnTyktt/l4up0cC5Oe8hqBuQ+fHwIYpSj86sPp/uVIJyLP15M8eh4PUcX55SLi4cyXgiCIAjyOSIZxud1goCC7imTHcTuuCsMuRh5xSiiPLinZx2TVNsmTpLWN/RKfXk/9x5EIeSehm1uWtuoSU7o1G6eT5z7ufcgChH/WDUjJ3mtpoahfD/3HuSPVwtIswTaufl7sFO135dPUpMM1206fqMmQdfl3gfgpVtvDRJVM6RqvNpBY5maS1g8N6LwKd/Iu/nroZeMfiKmJvVK2ZIiTnQ9mcsdNddehKtU1614vY68xarUyySIHXfmzmPLT2NgIc3UeexVKhHNZAVxweKVOl6pqnWdINXLXKkenEHzWxAdFpWLHSqwbO0gpAIyvVeax7bE1DS7KtEbJybNM0Iy+PMXEqdmkzW+zeIUvXnHm2k+8QWf/i8YtEOyEDdcB8Q0AR8PqCuaC/4s9qy8Nj9rr0ZIEndhEdacFLH+bOUytbR+KYxrVw5kKzwvSkyy5NS8hWLD256imxbdkGXBLBXZk5fOIlRhBJTETxSKNPP0yl4hWbkoZDlyoAK5NOsX80Clpa+IsPA0yEdS+tqdV/kdiFMrtTKB4hPYUiIxE+KlLBf2sho1IXBkrwh9Mx+z6tSSVPFuQhKjVZutJ7aSEfqs5kQv6mFmn9RthL6o1dw0s9oZoxA9quNZescUq80vEsxFm6b5ANR8M1l4sKCknOhLicsketUyhFmx1Wmixm7C7Wrm9Dukl7HpFpDuE+M6ZK1WZNzOLcXE4uMluL75b9XJn5J5paY71XlNS0nIBbQdsiBkzLEnbm4Es98eUNOqikOSdhbxppqS+Sqft3Ne0yxTaUrtfcKWJl1r9TuFmClcQKsGK5z/4DZWLDFF1dmFnJpkqJrsVGqKaea21g7Eplpsptwp2SF+bntNvCyIUfNJ6bX5YbH11RwiRG0iTg0Wz2KEmm7mToVSXbhWM2BPsNJSEEWmplom8aGVK3W5m2phtVbXDwoaYtbGF0SY1/cJ/ZIuXkmm+XXIb26q8Z2QU7PY3N0WQTSbNsyPmpoToqfJKs8rNdi9kpLGmKtoWA3WEL+6VNiaTBZP10dExPY2OoyaG0A7ZPn1TTWdn/sdtXi2PUKWzBvaNgLdSJzLmgsbctMdDBkaf5pVN75t1Jp4k8WDWrC+S6y4dC2KceG5xrrertq1ozZGbSO6UtNKM6hea3zjm0mqImaLQbXuWuPi6TyXM7HT3KDK+vLNNnL9Whun1jTlrppHTHtIje1/QaWW9zukqM42MRIq4ZWdrgev1x1hRIccqaYQv/us12rkGjX4ohbUpXTVomx9yawXD8/AXZFgW7Vr97WRajIx486JulYTzDqL3FODExT9RJqT0u2oqXqWDAybp5O5RNdW51eGtnzYsntqRm6WxT2owUPNwggOc14RRVKjBm/rtqZ5y8Uqy1Zw0JHpmQ+OdYplVq3ZgT7gyUXRnCFBNlvRY2Zk0zNkTOO9Qkkyn8bLOqFnUA8uWXrsTKIrkD9arKCRQX5ObWb7ZsrOn3YkfYIaPSeQTITtJauGoT5GRDoxdboz6CV8Kyjojy+mL4pwdBcVqbqOmHCRrsII1yf/nH5/EP2MDgiNz6r4OYt34JsAvQ18TOuTS2IKOuwIQukTwaZq1rokae7XiRKX/9lH7c7U21HnKytNLdhiYprCyasf66Ic3k2ChabBd6ViJod5wsLCop6/RWCVqZWrMy0IqmbtKjkLyWEGy0FO00KGaB0fJin7NGATvKjze7BhptFMcvJ2O5bsIGElLQz+xzo3zsf+vmRonqe59aNpvzFr8GaVkp0oJJeFtZdBgKca/CXsLboZsv9dtRsPeTxNXd9nI38XlyuJ4/P69RdBEARBEARBEARBEARBEARBEARBEARBEARBEARBEARBEARBEARBEARBEARBEARBEOT/hf8Be8bzq47OrQoAAAAASUVORK5CYII=;" parent="1" vertex="1">
          <mxGeometry x="1010" y="611.5" width="104.18" height="110.4" as="geometry" />
        </mxCell>
        <mxCell id="7zLjmCOxjH0i3wly7O3S-44" value="" style="shape=image;aspect=fixed;image=data:image/png,iVBORw0KGgoAAAANSUhEUgAAAT4AAACfCAMAAABX0UX9AAAAk1BMVEX///8aHiIWEhIAAAAjJikOCAj39/c/PT7n5+eioqISDQ0eIiUFAACrqqtFRkgeISVkY2PT09Pw8PBpaWoRFhvd3d0WGx/t7e3m5uYAAAohHyCXl5jNzc0IDxUACA8XFhi8vLxTUlN5eHm2traLi4x/f4ApKy3ExMRTVFVcXV65ublycnKbm5suLzE1NzmPj5AeGhvT/Z7PAAANdklEQVR4nO1diXqiOhgVg2BRQRGiqFBX1Lq07/90Q8hCguCCnbKee79ORWWSw7/nT6bVatCgQYMGDRo0aLWm+/1mMxhsNpvR1Mx7MGXCdH8eXjzHAQCgHx4AxmV43k/zHlcZsDivAtZcCCUOELoBj6v5Pu/RFRv21vccS0qB5bmXrZ33GAuL5Qp4MI07IoYWWC3zHmchMbiky50gg+AyyHushcNSdx4IHieCjr7Me7yFgn0ACZIns5/yjQSuGhvIMPfcOG8yR2D8VwTXm+c96oJgpIMn9ZanEAJ9lPfIi4CNJeht7z5r3AvL2+Q99vyx5URPVFA5utRLpBWCXd6jzxnmESRLG8edxBnDEAb7zRkqec8gT3RXHuOkl6K6Aq2ERIOS6a1qnAl3VeJxe+m0GanvhHD1bt6zyAtTXYxXYhobFzkCwrRB/nTVSd7zyAfK0ZOSITPWKHNGxKERU3H3UM9q4Ngh4oQJke+paU8grscJa2D/xnnPJA9sQZwe6TY7E2CkWEKwzXsuf4+NxxEGHcezICNJwC2j0PI81+XerV/8bPtRtNyzVoPB9kAKVgbRUiOiTmTQk/XtYDDmchXo16yAoBysSGcNEEqPvTkSmQqTDME/9CiHlqOfbRQrTx0u3rEO9Qqf54wnJDwyiX2V/dFlQgUhtEKgZQ/CM/T0DSFKWfGpcr3qL3akjj0kO9E7e92DgXFzXWDJ18MqwOHqW8BzkWm0fK7O/I2NJ47/oFGn7OPkMdkLfnjf3Fvmhwzk1em8GE0nWNAmU3sxOB1lz9nyEfLGEQzi6U8nkCuWDqe6QeD7IbxrLxMlaboQ63u2R51K6Kudr/833mKB+A0GsMxylwmNdPBjgLXxHkuPiR7KOCRnmeUuXRkKMuxlukv5gIXP4Kp2yyy36RqQPYA6BS8LavMxg4YEMiUN00B5KXVhAOgsfnukhcRJLFMZGYO2vRNL8NxaON+uBCWWh/Wyz/tDFGIU+9Wh8je4qbRAP8u8xy7vOEIb+vH4W6UHi1qY87D8DCmDchDoQ9bPOv7+aIuGrgtj5WIoLTPd6BJf4YSz6hdeNkAS1m1lyclY7VzipLcX+Y9sLrxUGNPFNSo1lp51rWLthQFLRJ9b+bK9osZbqZzMImPLfG9MYEqhWvXI2QZMXrDrsPTsU6YRpEHdkFt14/cV0Yet3zuFzoWH9d+gdedsxYcSgRQ5WZ0dWm8IjFhxlmKVwypiLGRsvTcT/XWsTcEa/tpACwkkL1zQZ0ju+p3bhRVnWvgP/rRW1fYdZuAse3wzi3N+53YjVrAngfOl2g0b03hby3uR7sjluEP0fVbb9TJxobkCeGuf1dSKdUW71e53HgnLY7136et6ws0CW1Bt+lClOUp4jXfpsyHEmtvDTR0SqDZ9ey/WKJU9ZUOw8cZL7nbV3nM5imqlOHB+03UAiaOvV3npG8Ub6d/LExaCIzdqI31Y9IJE/731HVQ8FLrXqi59lhCnvZtmbb1Ic8MHYlWbvrBUzwOq7+QJ49jGBuhWe5uCeYF8jiq9t7g9UYWHIUvwWu2kDa2ziVtg3HfqfYB7DqHuVn2t7cS3dKMa8Tsz3sYz6Mo3Gpyd2Ixh9gK7idZNcJleJm0ub9VvSoA94Cx9CC/zroxNrFga3KvaYV+QZkU1EmKyMheZlOPN+QdetetVLa5HgzHoZdzUzJpliDD3epX3HK3W2uKnHCLb+hguFxi8HXiv8l8KLON5FmpyydIitBIXnULPUXXT12pNWWdPj227sq4vJwvK+MZvSNCveNCMcLqdt+ReX7T5yjEKgAy62bfyUR/C8iZ0QfJnvbQtY4Q7ZQxDsAOV7zFAMJn2QktiYQx0hk8bQPPbuj2yqQYJL8Yc650MZXU4vDiQHkoAdk9ZwOlZSj6mDlS9QwPDJkUrN0w3FgdWgPbAavCAwcnXWKZHrZGYRSa/sX2ZVcfJDU0fVbZvroDvONfdYJHYKa7Ym90KHcuZJHlSHXojCWwiP5aP47Q5X0aAruOB254/5YRONI2bPM4DvVF6KBto7ALJIQ5rTzhHA4Ik8buK3MWPe6nRjtSpQTUQ86foAjXJZad9pOMGx52BeyNrY/kQth7RO+iF8d4eWTTKCXSTu8z0mOoKsaNbp8NIogZx6xoq6pw7hi4teaCV1qSzXqzKN4UL2LPQzcHlqrnDljBByt6qsKtcXGdiL2tQLBCwdegJOKTEub8A17Is13PSXOhESj2jM+vOmtIiqjexaunypKrX8S594ZKdnMOfCxu4DqPqPbkJGPUg9RTP+kw93qJADZ9c7d6CRCyp+XOfLdYfrYTD/ZD6L//nOIuKAak7k+DlIYSlIa5ID2p6BvuWRCLwySa/eOAXs521w47xN34mYWX09dh2TBb41BI7B2IqXFedLyYBbHuT2vRClJdLNmRYZ/YC/aX1Jyh5AMEBjpQWhSDpo5UFsg2m7gdff3hxgwb9e/SJEYtVh8Mf7mLvx1be4F3pC70uCV9cv/qb7x/Cjh0IBuF9+lhhxjnUpkB6D8oWWi/QR5wvhNvaZWopGOnc2tl9+mhblqPXrMZyD8r5YrGCqZP2qStbFHZ751qs6T6NyU4iFWcopx3JRGqsAXnrajfQZ4G9wwc3Q5hGX2j7LM/fNS4jCeZA91wXpPY47oDleuq5RmtCr2KxO+5SHao5P9wppjZo0KBBgwYNGjTIEYq9//je7rbz+WbR/Pv2L2K/UwEHeTh4Jd0yJyEE0hVy8YlalWnefr1MWOoAdNoctD5oR80opn1/ZuPLTJYvsuxz18zrdebLvjx73Ii784MP+rJc0tN0J2PQb9+gQzf+dNcX4K/vTU3tawgdwEnaBHTCi3394d8/BOEnNVDKNG96BbfktduAiI3tIyLA5Q5/KpFcnr7up4afwhP0kYdXSvomnwmihyZD+m6HmFywSr9FEn0T8kyqTp+eKHvtdh+L24i+zY6tUTA4c5hEn1kP+r4F9rQOAlI77YJLoV+MPrLUuLuqGFGp9Lekr3zNazbQInkDfV/Vdf16RbELKYUuGH2kuWoIQoo7IBK/+tK3Y8KngcPZnphILc3R5nQlpo/yqwHiO8Z0svfpq4XyKkz4OrLYB6BQKgjBgDbRM/p+X3lLRx+zbNpn2tjNIQD9QJepsD1JXy0CFzry9p2+T3MwPg4HjJknlbcOto/pbv/5c0EIfVonWsD9LdtXNvqioO6O3pgY9CWVPs1mlx/TR2LF6H3+Aq+8o4/d8TjcbUqR/m7IHLVL6kfMYxDnBf9fwoNXJqPzlQisFgZ/F8T7Q/qWKB5CIRHtdtmTCyr6OqNvedaDiKnfD0xte1gCAmnYckd3p50+DvNUpTU9XkAUJ+LLqOuR0cd9T6BvTmNF2iN5pheQyWUG+Ccq+2h9UPx/CJS5gXTH0Z1RD6q0lmJVK/wmT19/HeFEScb0cZ9G+KAXBPo0/s4lKMCs4iFDmMwG/+Ef6EoUgCD64uzh+VP62nzFNQN9IjqFPyrHJ8+b+jxT5XFF512I0veAviQSMtPXBkX/Z7gJNZpGQuApMUnEMCFv8ZL0JaCPCl1P09dHroO+0Ga5kPI0FOp4NaImU4GfME/jpW+PlJJRhXWUt31JeEX6ADist9sVG8R7p+T/dzD6fkjE8YC+yXw+PzM/sQ1ezb+R3P4SfYB0Aw5YNFpw7aX0te9IH6e8Ie7kvEl4QXlZGniiQY/6NzRkhUtsX4f0McboC23fLI2+25z3Tc/LHsj+cTRfCDDPSwKXKV7zek76otZRSp9zjkCr2FnoYy4NFHtDA0sXiI2ezH5mAQT6XpA+IesgtL+ivIy+ayd+pZBgA6en2YRpPNWdB8p7K32pOe+r9CXY1yJiS3NeYRXSpnO7r7wv1Ptepe9w+3cUEXQWmswbmYVA35vSl0l5j+WQvqjex9cMnqTvL6Sv2PSxarNQE7YF2/eC5/0120duWHTPywLUyHm0fln6MinvhQQuBU96WYAaPOhIfRfPuY77ax3dROmjWdh9+pjkXv/j1H8Dik8TBg1sKR8jQXlTpS+qpj+vvPSo9fv00coOKPwhnXQeaLCz43mw2Qx2bDqJyrvrx6h4QnmjNRXM0GSdSB8J3hUWNRf+1BxFjtJ9rY+zVVY/SlRe1lMEjpvFYoAcyEPlZTaiow4Wo8H6R/D4UcFK/V4uRh9X9rrw5fqoBegWydK3YV8I2UbW7CF9USmiEz4gtqgRK5fid5k9+fx7Ol7GIJW/ZNvXlfgVnYf0hcqr6CklrXIX60N8Ay1l+InK2xrzfIcHwj6UPt7EPk2fVvCUjeILJE5OC8/9uZG+VlfjROk55W0papyivhanL/4U3/snRf8Q3SG4kcA+mH0gNqY30heYS85dP0dfa/TJPyINgJOqifR1Bp/8IDplOtfeXoc2G28QCD3wYYO5MH1SPebSOvsYuGe8FSGkj35EjPvE702G5DvoS2Brt45spekU/ua3zHmbjiF4WRbZw1AW85MaFkp/Zqv5V5SrT0YYgiFazIeXT22mnkKS6UeEDimbXGPJiX1e/QS3n123X+hek/0iAHqjG34ujMK/drqPPrMuF3k8/nOaXvAqQIMGDRo0aNDgV/APdOD+XuZMWuYAAAAASUVORK5CYII=;" parent="1" vertex="1">
          <mxGeometry x="580" y="630" width="108" height="54" as="geometry" />
        </mxCell>
        <mxCell id="7zLjmCOxjH0i3wly7O3S-45" value="" style="shape=image;aspect=fixed;image=data:image/png,iVBORw0KGgoAAAANSUhEUgAAAOsAAADXCAMAAADMbFYxAAABEVBMVEX////pR4sjHyA+vrA3pZUAAADqVJIruqvR7eoLAAIbFhhYVVYgHB0MAAUXEROlpKToNIN0cnOBf38nJCTc29u3t7cjoI/w8PDL5eESCw3S0dLAwMDySZA4rJuLiori4uIhAAs8OTpfXV6VlJQAHBOtrKzs7OwvLC3Kysqgn5/oOoULHRccHh0iFxq45N4iEhZix7xta2xPTU44NTX3w9bxlrjtcqL98fX62uX1tc3wi7HsaJz86O/4zd3zqsUyJClKJjNgLEB4ME2PNFqoOmfBP3XXRIFxLknuf6q5PXA8GSbAbI0gLithtaiPyL40kIMwe3AsYVkoRkGm08vk9PKQ1c01mIoqU0wmODUua2JdxrrRRWbZAAAIuklEQVR4nO2b+X/TNhiHg1tR7CrOUafBCThNUucqjCXdfdFxjg3G7uv//0MmyXEs+T7RR/A+PwGKzPtY8teS0rZaAAAAAAAAAAAAAAAAAAAAAAAAAAC8D9y6XQe3PpHtkYfurRrofipbIxd1uG4+k22Rjzpcb8uWyEkNrpvPZUvkpLpr9wvZDnmp7Nr9UrZCbqq6btSIYEZFV1UimFHRVZUIZlRz7aoSwYxKrupEMKOKq0IRzKjguvlKdvEFKe+6+Vp27UWpMK6ySy9MaVe1IphR1lWxCGaUdFUtghnlXJWLYEYpV/UimFFuXGVXXY4yrt1vZFddjhKu3W9lF12S4q7d72TXXJbCrmpGMKOoq6IRzCg8rrILrkBBV1UjmFHMVdkIZhRyVTeCGUVcNz/IrrYaBVxVjmBGkXGVXWtVuvcOZJgqHcEMdHl5pT2++f7J02fPX6QJqx3BDKRRHjx4cHVFrG+ePHsR76t4BDM8Vx+ifPngZYyv6hHMEF094avLm6ei7kap76iSiHHd6z67FdhuZJdZC/Gunu7L5/felwhmJLpS3cubV9S2q8RPamWT5kptH7+69z5EMCPdldr++JPsGusiy1V7+Pr8zR+yq6yHbNfj4+Pzn2WXWQtZrhdvj6ns8V3ZhdZAhuvFL/ePGe/D0Ka7Pvp1r0qHVvmnNtX14W8HVWr7u+xiK5Lmil8fC5y/kV1tNdJcH/11HJJVex6nuHoRLHD/RGXZZNdDBHOqR0cnd2RXXJ5EVy6CDxwRTj6SXXJpklzFCA5UVZZNcMVnEdO9qsKyCa6RCGYPq+Ky8a5xEXwUoGhAxbrGRzAvq+SrJ841KYJ5Wdl1lyHGNTmCOf6TXXgJoq5pEcwN7J+yKy9O1DU1gjlZ9cI44nrxNiOX1M2nsGtMBMfMYA/ZtRcl5Pro7/yqyj2youvDf/KrqrekEFzzRbCys1hwzRnBwcCqdQLFu+aO4EBWqSzmXC/+LfKwenwsu/4iBK5FIljNgT24FotgJQfWdy0cwf7AKvTe8V2LRrCKA4vKRvBhYNV5Yj3XRyUiWL2BRaUjWL2BReUj2HdVZgtAXLEWjeCT/K7qnD0R14uyEey7qvLaQdkHpJmokk6oSgT7AytbIieoSgT7roocs11VV1VmElfMpf3AyrbIx3kNqqokcdi1jKoqy4mwaxlVVb7dOa9DVZEH9rwOVUUe2HOe+ydlUeINe5fnTmmU2dcBAAAAAAAAAAAAANAoHdd1R7k+OSCfHDdcTbMgXUfrpMbBeDye+H/ZIR1t301RDYE0rd1JbCQcGk8Nzey9m6IaIt1V03RwVZJ0V4xhDqtJqqsAuKoEuMYBrirxYbuOLMsaBX9c+P/uuy4Gzmw3nZ72B8PwxSYrd96jjaTVFVsn5FJWa999Ot3N5qtILda44/ROafeZM6iuFiHi2qOL4Pm+Mbwe7rfW1wjZBsbYsBHqcT7DHmlBum0apNUwTB31wpddkt3EzutukO66y3tuz4Lu7OJO465j8g/mLmgU1hJ4idqY+x0dG1mHjgvEt7BWexFct29qeOrqyOB+cYu/G6tId33asOuQ/JcYDYNGwVWj9dB7TmDSwUdJT8O0deRj0k8uBVcN0z5G+9CuoWBkR2J3ekvsWbOuO1IDGnONoqtmIjRbj63JZNRZ6vTvwY7WmPXn7nhlTRbD4WK1RaJLn8mR7tsO+Yg17tNxxPahfXLGuo+87uMdvTjKd4hQ0rVD/mr3+EbR1ehxieIwHW6eCrik1QimIRtXtA26LzCRRdGA8j9PZEk81IrgOqE/+H0mNKat/bekfj3xUGNG7k0wxenzagjRPKL3NdnmjDxMRj6HvAiuS3qrLaExzXVIh27XSoCmXDALqeuZ+IEpCbvrxMLmNn+raoF37bfJ5ediY+qejk5rlHRlOkmCRz/GldkkFsZu1SSxuQyc6yoyTFmuaz2lHjrq6LAkiHFNt6FTnJ9jNcC56jg8a7Jc6d1JjJdMVwulRW2jrjOTr81vTHWl01RPWs1lui6ESR6mIVf2FqTvCHsbaUx1pTqxQTycjMZrO8O1hSI399B9NXDsJlzxdEfWouTRi2R85nkTvT98mA1Xa2e7w2zpY2s5XIU1cWsxXve3OzvoXrurhrG3Fo08erlcgzU6Xdi3yeo9WNkWcl0v6eLfwFz3+l194lTyu06WbBWLTdtb17ZzuR4uv9J1ttr2V8VmM65s0ugxA1vEdUFNDYR22/7aXZFtb2Y2CZdn+xzW3VkPaHerkWzynrgx+8XA5GKynleyCtLMa+5mFXOlqu1Tzq3xd07bCTfmzeGRuNRvFXSlbwFTeAs06jpk25ZJqDH7/eqlC1vwCQuDQq7iRoHS7LrJjQxNgXUTKZbbjVIKuZLsNk6FxmZdWztD2F7nWA/bh5kwxeEtTyHX6P6uYdcFm8VDoTHVdRfsc5aRgSnsKmZFw66tNU2ImdCY5krvjS9IxhWLh2FFXc13Oq6t1jUWluMZrj0zFC5Ca9HnNXSrGnelL3BsxhUT49rhpzzLYWHTMhQ2QXlyWHgHNO7actp8SKS5WjO25PI/S0vDOHjWRw5dFgePcNb7VRfPCVa9tpZ6HFWGkGtL44+cwq74uufM167bmfc0tmDl5sCSnYGuRxNrNJjPyD6FLeHt0/07N3PdRNfjS9eaWGQ7t9ufH2uoV+fIhl3Z+FwHjaGzcLKwb+u6bpvYO+6dCB017K3bbXaUzU7yyRI3l2sn6K7T7thG3v9Q44G4oEPp0QdvneDKQ6qZ8Ssdl/v+ApsI9VfsnH8fOX07Y5/T577kIJc252O2ha3zq0F6I9eRf9mPl/Dd1Y41kDGlkAEw+qH5NZoifd+m9VlMzcnnkfcU0u+u9Jj/O7jP4zPWnQ7ttUNn/rBPu9d8Hp6XBXmW3PXccRyya4s775+4c9bGRZQ7Tzwsj2Cx7oNR0H3VcdT+EUgAAAAAAAAAAAAAAAAAAAAAAADgQ+N/OU7lOUlRnCkAAAAASUVORK5CYII=;" parent="1" vertex="1">
          <mxGeometry x="1100" y="684" width="75" height="68.62" as="geometry" />
        </mxCell>
        <mxCell id="7zLjmCOxjH0i3wly7O3S-46" value="" style="shape=image;aspect=fixed;image=data:image/png,iVBORw0KGgoAAAANSUhEUgAAAOEAAADhCAMAAAAJbSJIAAAA0lBMVEX///80N0H+xRQAv7MgJDH+wgAvMj3/78nHx8kmKjb/yRGtii4kLkKhoqVhzsUAu6/H7uoVGiml4NvOz9Fyc3giJjJUVl3+zUT09PQbHy0rLzogJTE9QEpYW2G8vL98foIQFiasrbDa2tvo6OlHSVKYmZ1gYmhrbXOpqq3X19jk5eaOj5O+v8FDRU5QUlr+yTf+2Xz/9uL/6rmFhov+1Wz+3Yz/8tb/4Jj+yS3//PT/7MD/5aj+0Vj/0ELn382ogxW3mlPk9vUAFTEAABEABx0AAAhPOo6vAAAJEElEQVR4nO2ca5ujthWAwWG0VlunoRgv0ngw+G6YmbRx0k2vaTuT//+XAjoSyNiAd/E+GPW8X3Y9gDgvuh3ZgGUhCIIgCIIgCIIgCIIgCIIgCIKYxoefv8/4+ONPP/y171C+Eh8eRhkPgo+f/tJ3OF8BMAQyyZ8//a3viG6NbgiWfzbMsWooHPsO6qacG+aOP/Qd1g25ZJg5/th3XLfjsuHoYWTMsFpjmDl+6Du0G1FrODKlM9YbmqLYYGhIQ20yHD2YMNw0Go5GfYd3A5oNTZgXW+rw4e99B9iZFsPRQ98BdqbV8Ke+I+xKm+HoYeiLqXbDoa+lWg0H3xOvMPxH3zF2o91w9H3fMXbjCsOB527XGA67mV5j+M++g+zEFYYDH02vMhx0R7zKcNCL/asMP/UdZReuMhx04naV4aDXwVcZfuw7yi5cYzhCw7sGDdHw/kFDNLx/0BAN7x80RMP7Bw3R8P5BQzS8f9AQDe+fD7+7gn/1HWUX/v3L79v5j9r7uz81898eTerw/veHdl7V3t/+sZnv+lSpYcnsVsiT2vvbbxq5S8OV8YaB8YYWNd7wiZhumLZX4sANnx3TDVeu6YbWurUjDt1w09oRh26YtM6IQze0Xtua6eANw7bRdPCGlvF1aO190w0t4+vQem4eTg0wtLbcdMPmVaIJhlbYlJ0aYWgdG8ZTMwybuqIhhta6VtEUw3pFYwytdc06yhxDa3c5BzfI0NpEphtaHr/QUo0yzCZG92wxZZihtXyqOppmmDXVrUvNNrSsJPUZJSYbZnjpmjmUc0JsbqZhRuDF6W72YtvXGn4zNEMEQRAEQRAEQRAEQRAEQRAEQRDk/5DDdJExXfYdx3WEItr0s44ZRzwj8r5SSDdmwrJg6Wv7jhpjcaePMxTD/CYBMvusY9DwtgTeZMqCLz/+3g2X3HUoN9nQE7eEOwYbHtCwFTS8xDWGwWpVu21VH29Q3VZvWHuGShknhg1R6bQZBvHOcV034tPns21JakfZplmc/T8UlNvCHcu3zY8HuW8YPov4bAq7FuGtJk/uxTMs03lehLOLLxjGs+LU3QxT5sub1LlDJ6fu0whuQySOnVhvfsabuuBj7sBhhLszkfPG774v71qk+a7v47IUeZ8fZ3MtjGCnNhDH31cMx9wn8tStGXWj4YGe3Erpv2jtIqHl/fnESUQxrjSc6HdEkyiv2rDy2IkDhgem3+VP3otWsCL6BrbVDbdhWT5xkw6G4+qt24QVV2zlXHi4Uhp6kaw/GWQ0rjNcVp8oitQJXqB4zuFfuisN7fnJVZl/ueFSChJKVX0RqtrhXApSxynvJpWG8BC7vz4e53AHP6kzhPgJ43MKV4zIdUMsDiT+9LhlYgMLS0OhXsT02NIXGwxtiNyZp3Gc2lA2V80FAqb2Zjzeb9Xja2AIFQO9NmZZVdL32IojX/Xosh9uxMnpNq84D66ZCyOTeOUGmeXlrbILRiizdUPuH+N4CqclLYupekP5ACyTXWMDDcqFPeFMzlEW4uuGsfgkG0/6Pl/Esukd4Fzl+D+zHcYiedHgMT+6ER/0qFZv/m4yDjRDuhWfIAu0WxLdekMZ9EF9jkV5RMQDb8TgC7VNngsM92I4WMu4tdNfnA+DRH0+5nXMocOJDuKomabYGQxV2fKNB+xgNVFrCOHoM8SOF1dMBGP7ZawLrtWhOK8fVktsy2li7cpoV1MHDJmKFt54IIflzzaEwh61cJZleeJNA/xYbvO02UI1nqewMpBfYyhbNwxWnG6885zGpupj4HQxnPKzq8iLWj2rpcAtDdW7h4jP+HajNaGLhl6a90bHfppseGmo3rhBHbY+hsURMB+WQwvvYihGM9nv9T+JmovOSvY1w1ibkLNBsBjNLxh6c/XoApGjPxgG2gMN3IkWKpWoZN6dDEVDPE3URLWK4cU9K/kkp0kjPR1g6n79c8NJdJY3yDE4OUmnuBzCb2o4OzfcEWUo4qLaVHvSSrOqmblaUkenNYYy+yJZ2lDkDSpFCVLm8NLfXd3ccFvoFMyLhiv05cAueD6pw4wkns5dR6Vty8uGMI06T/HYG0+2zolhHlv6ylQjhkhuaihfc6X9Bd5AJ8YX2MjKRBxe++VWprrxAoZV2Z2rhvBmFEctHEK/YpiznMzlLH9zQ6gVph0NQ7XI5WFCKAe1PVx/92wiWMGoD80UjipTEDGrlk9GwYxznkjLuXZ1a0PoWVrmvnK0P0DOyl+hFlOZmJaGRSqTaokK1GG5PtmdzqrVOlSzKbQdlnQypJPxs05eGly64tGsFWTGcjEayqzXfUo3U6aGPWEYjCc7/q46cFqMv1nIkJIXP6yIJKlsCLBgEoZefFxH7/IqQeYSBZ0MbfqoIxaiKxjoONknQbDcyPUgl8dti/WUNmgKQ+8t/wuDgTaALEF2NZmvT7Ld8kYDvdmH8TqZafOhnQ+jqv2mvBgROhieAtnKXrY9yjJkNRU/UgUvJ8vQF62Vwsuj2HacJCFUfLTSKi0v0GG/WkV656838Wbr6rMFvBMmu7jLxFs8imM2X8HQWpxtc/fFgcGs3Mrnel6ayFnukTH4NsVX7dIrkx0xDq9VOkPzOUHPabZUXVw549By9XRDQ+t4+iUDifb6oXtHtCVC3W0AfUWONOPTTIUWo6V2zcTYlug7Pi60vLTyCgMSQXr7RYYuP0eteq0xKb+OIWxd/V4rXLzO57P0oNYdkfz7wS4P45GeNRwj2bgdcYpl8YQ7jzaB+LFWzcCLqOgGxJnLM1d/IfXzI9xmw8Nues6uPCacuY5Pqc/cXVNBcmVVfI7X4rBsCV/5Af2wEN2aUfXVAWWPfl760gpEKMX1WE6zJpqd2XHXRXoYil3KVZv4uGteAbcTeOF+H7aU8uyfNp+mw4JkmejLzucwrPm6dvmcFTG+7qvtr4J2atGH+OfdQnDnLOMFeStaj0w7mjvEoEjeWT6tq1EsgGGf9BvUbZEpDduGSXLYwLTnXPEzyXBQr58lfpHv8HX7YUPCq77jg/MOv3zeJcnLyW8zzqtpghnxi0s5yeD6F2pmkcTH7ev6aTrpmlUgCIIgCIIgCIIgCIIgCIIgCIIYyW/aXOmLZ4FGBwAAAABJRU5ErkJggg==;" parent="1" vertex="1">
          <mxGeometry x="1150" y="631.7" width="70" height="70" as="geometry" />
        </mxCell>
        <mxCell id="7zLjmCOxjH0i3wly7O3S-47" value="" style="shape=image;aspect=fixed;image=data:image/png,iVBORw0KGgoAAAANSUhEUgAAAMIAAAEECAMAAABN+RseAAABMlBMVEX///8AK08Skk8QqlAAJ0wAJkwAKU4RplAAI0oAIUn19vjF0NgXQ2QADkAyTWkAJErr7/IAADpEVW1re40AHUcAMFbT2N06VG9bdIvh5uq0wMtmcoQAFUO4xMJPaIAAJk8yRmKwtb0mSGZpgpcZNleIkZ4AADliboGTmqY7W3YAI08AGEQAN1w6T2kTlk/d4+kOnVAAi0EQhk8RjE8FTE8Oe08MbE9yzJfE5NOLnKOMoLB3jJ+bqbYDPU8JW08AL08DN08IZU8DO08GRE8LgFBMYHgFSE8KalAHUk8KYU8Jc08GWFARsVAAHE8jPVw2j3BNsHsenF3k8uuT2K6z48ayzsI0m2ZYpn+e0rdQvnp0rpJ9wp4ys2SZuazn8uyK06ZPtHpjqYR5mJiCqJuaq66vvLwqkKsRAAASVklEQVR4nO2de3ubSJaHjUxVKBASMghJWEbWLbaELCV2nO0IEifdIYmTtLZnZruz25v0zux2f/+vsBTogriWCiTFz6PfPyECQ73U/dSpw9FRXuIdSfxE0yzTNLuDddWd36aaJkgSvozP7aE5SZpMVLU9lfVOsVKpNJsGQohjwZo45zel2RQrlWpRr5uWpqoT6bsgaQha+1IedKDoJJwDLJMuyJY5xRCVUa3et9qCKu0x+c6L71+URoqTdhYSpD2E4pDAzkDuW0JjD8mfWLJd6rE48RSp94kFCFU7JxdTYafpF7odp3BTvfpoQcCVATOwdpIZUkOrKyIiTv0dMQUDy4ZYmqpbxlA1udhEm7zedxvlFGQNpWYJW6vgvNavGWizwtN6tdHlWMCYydZkKwDTixkCm5b+1vuXm1cYiKonspo7gHXOcBS1d3j7obX5XzlZwc3quTZRklVtApqUMMOb6xZduwWRqOdWnHhtIFI2n+Dlk8InqmzAQs1pPs2TajbLlGmArdtHhbc/UncfUKm1cxhGtWubNKLrGn548qhQeM/Qd4Fcz8zcwvarNLXYU+vlzbGDcENXoz1BUMtYIwYK/RtsvSwcY4Tx9U90bYEnrpWlfZV0hfrJcPhs/NlFKIxvX2cZTbE9jZqA727YF/sJ4Ksnx8ceQmH8fOM+0S+uRp0P1h09AXjz6HiJUCjcDzMgMEinbFzVDnURhq17j2CBcPMqQ5VmGGVK1bZKMn1r2ro/Pl5DKFw/y8IAIVXTqlapi9Hw/nMQYXz9LEt1UEwaBKtJ+7zWh0fHQQTctGbIB3ZEQeA0R5SPGz57chxGKIzf/pihe3hMURl4naN7WOunm+MoBKd7yGApECnaVb5IYhMKC969PY5GKBSeD6kZRIrZAyUCZD4exyIU7qm7uB0irJrTKISbD98/QuunJ0kIY+rJw84QICwcJyEUxh8pJw87Qxh+PE5GKBQoJw+7Qmh9epKKUKAbO+4IAbwMFqMIBMreYTcI8C5UjKJyoUA1aN0NAvgQKkaRCFTz0J0gwLubMEEUQuE5RXXYCcLwPoIgEuGGYu6wCwR494gUgcYcsAuE4cfPpAiF8auNa8MOEEBwZJGEULjeOBt2gNB6G0kQgzB+s6lFY/sIragGNR6hcLNpo7R1BMjEZEIcgjP7+c4QWs9iMiEW4eblZjV62wiRQ4tkhML7zUrSthHAy/HGCBsOM6gQNjBHgjdxBPEIhfuNsoEKoU5shAnP1QgQNpyD0iAcmcRrC+BdZMeckgvjVxsgwAoFwZFmkN7/57gWNRnhdoO+AQxoEBqklSFmgJeGUChsUKFFiwaBvyTMhtareIIkhDF598Z26NZIJjaZYfjnqKkOSS4UiG17YpuKwKkNPZKuIW6Mmo4wJjXIoD71ArpFskoyfJ9QFZIRbolKEuTqGfwYLAJTdOs6gSC5IN0QTRsUO5Njj6WktRowwnhEikBkjxHrGZf/tWJKD9d6lVSOUhBuU5tVVszuhDHRUeJzWtFzZjKE6xSfMYh6VB1CUFYJxbdM8HVC15yKkFKSUE/OVIhW+TcxZ7HeJOCnxKqQgpBoq+egvXK+oGmTeL/vhmBWY6qEf4GWAuE2drhaRnrbl26adWd+rSGQVNOIzAnwJrEqpBWkm3eRFQ0CsaatvfgTqhXP9YrEN7otMeRe5Uw5MyGMIyoDBIrYEdb7Y4GhmniGXWg0fcasV214l9ixpSO8D4y4IYd6V2aw5EunFSoEwwyPTITpaQn4Wln4Y9IAiQBhzbyK02/LEQ5UFqSc/qOoNpkX2mapZcyLFHyZTJCGULhZ9gysIhbrl1pUK6rNACUCO4ruV3hVu9SrIh57tJ4lV4VUhLFbnyFqGjWzHeM1r51z1EYYUI3rG3mpIZgDoyJ+yorwCRliZVRvN2I39gg9LoMdCYKI+uCTav17VoTn+lRIfIbF4AaE3hQGDT25Qf63jHWh8EtyMiTT646yWPOUjpU0VMyM8LfERGj2fFSQySDJKlHNXG4ITxPSoJrVxfQ9o00VzeI3RGwRQeqXVn6yWc3CEPTipk7ZEf4eAzDtQN/4KbtlG6KKHrlLKDvCD1EPV7sVY20kk4txnmvWrPBmxn/kj8BPtDoXHNvns74AQXMktwON+H/kjTDR+iUlbIPLbYkEIlCSLf/d8kWYWKZdjTSa5LnKAxAzs83lDX/I2Dv7ENRp/arHlaOncTkvVEG8d3lgCnjj9R95IPD8xNJHCleON7Lmv9YG8dQKDbqWmrkg/apO9ZFopOy32dZyIUBNJnahkBBhzIgKwXah7a14wtfZJp4YgchCv0WEjNN/Z9q2bwQGvs+I8HbvCK1P2QrS+Hb/CLHeF4QIhI4M2yxIL5NW2ggQCFeft4lwd5sN4RnZyu023UiGz7MhEC4+bxMhwk97E4RrQk+MbSJkWmsrjD8SOhpuFQHQr3hiP0Oih2zZpWr4nHbdGesToR/GVhHAO9rVf1wVopdIckIg3dcGh0mD1bSFKlKfWyoE4t2Fw/f0CM9J/XkqNKvPFqlLVeIaQzLCDWmECdiiIDgSiGNwDBOa1WxL50uhOg2CJJM657XuaXzzsG5JNzIYdJ4kGukWtCTPtmSEe0IERaZzSOL7pHUNxk/dcnDmYZhyh9aPoaETNkrgGVUujD+SOeeBGX0UCZUwmEqCESARgaxfAz1azzyXIc0baa5WrMdzEsI1mV9bkz4PsCZ1orhC8f4wSU6eJJUZcq1sBLhOV0kGGrETnwQEksoMMkQiWUmzufQiC1/HZEOCw/Ob9DeDZtnd2rAa/U56bJi4bIhHuEmdcnJG0kIlgXydibBaeYzNhrtNNoXhTEjbJgkMu73KAprMWPMK49WumAIxjB5lxO8iSWxRIWiWNH+yabwM+e66T8ekriSHzfs5MhtiET4mbHsGnFIMFCGdatYWBJemdlLwv1ZkFx2HEL+VB6DqlRxMsAaoEOzQwITX+vZIiVlKgndvI4pSHELM9kJW4UpyOKAnL9N5hUX6q6sOBYxekgFR5tUYhOuougyUZse0otLa7tFN/8vVyLEJ31AtvSUqIetAMBBJAsI4tOMZcobSMWOi9AoljtKCAZi4ZpmXBLP4uKmsR4UlCl/gEvjrMoQAGZWqbsVGS5ZKiNoIkzLC0kz9fFZlOATmlTxis2rklm13rzB0Ws6y0/H3ZifdxHC2k2omrzCYFqRLtabyhd2ZQUVBZaCkh/Io4MgwHIcUjumc2LKZFgCW11xvkgxeYbBLMMxqCJp12Zf12mwUKkoRCM9rtVP50rI0gvjU0rTqtr4ZrHkQ2aQdozRRBeHXYMN6EyL4cqaqDcK5sHAxrzWZDJJc73ST8e4/Agy/BQn+FuW9E5OG7nk+XmGQq24w5P0j4KH0JUDw9D+JU2DNuGXLndkrTIFT0qw/+vt/+Qk+/z5eJ/hvwts0rFHT1/Xk4BVmKH3S2NE/fPUzfHu6RvAvojfBq+1Oc63/zsM4D5WRHNn5h+X3UXp05s+Fp1/+IPh7qW12jMAoMCevMMRcmYlOqwv9zwrh65m/Pn+J8SX0SzDtUXjzUG5LJAD1zusEk8FVdfjnma8+pzdGqlmblaMGkTmu8kAWNR8PrEbKdywWDJ9/P/u2LEm/JRHwPK/VjYoCoqdCeS9UlY1mp6upk/hCtWiWPn87+/ZbKoEz+BX6AyUpmv0W1toAalZrstUWJtHZMWf4+uvZmdesPo0hwJ/R6OtFUUk2V21nuRAPkmHHlvtTLaK99ZrWf56dzbPhlxCBpDojK/OiVlUI3MK2uOLJcgjB3rkz5uxamuCfqv7gVQVHvzvj6198bRFOuylfnFzNekDhyPZtbz0aCf4mBgfcb3p0BrppOkNoTfj29fjrN4xw9q/Cl78EQXN+rw8GzjQEsvgP8PXEAQx2FLENj83xNAYpiiE6el345czT/yrOf5uKU2LK5Q3SvXOEkFrv/s8j+JM+xu+eEZiW7BL8ZWeJdr5fBE7/CyO86GX/dMy+EGDxT4wgU4b4/R4QGPQC14Ra9nK0RwRcGV7McvgE0d4QgO1UhhfZ77NHBNjBCPSB31faGwIDMAL9RxxW2h9C8899IgxyaEcYxdxnQaKOOe8XbpJeEH8tLEEVmigSU+JAWwnidAdhlP0+UKEgOFLzKMJ5IdB5hTVoQ//7BYv5IFS27BW2fQSlTukVZubQJlVf5IBQPqf1JZkMshclyMgX1Yz3YDP4VKlF2m+E+Rjov3G1UEoMhWQ1hjlU6YyCYpceADOUMn2aKQdxTNY4VZLZ22dGQO4k+ycM+XYtj26aTqgaCtJDJbVvZK/VNILiIK+vkvLCIBzcaevpB0Z1mudnVbUaJDR+5gTAgVmuAFiCfl6O8UTKPf0sqtq5A7gQfZtJiKCXmzhUkq1tfUJ84n5YeKtZAQxFt5KjDWWUNNHqcGt1GxjGYOsfeD7C63oajrKVb+2GLIeMyoDcxyC7JtP61ayay7fCIeDwOpFtZnUv31y8YPUvajPGQAnhK1JTryjVmi5PtX18ct6VpGrtS1kvVkVD2SRHcLlRms3ioN632tv7Ljg5R0MVNMus10bDitg0kJMrbAQOhCwLEE75Y3FUrHcv24I62dvLjxIvSVKjIbStelfvFIvVx5V1Pa4Ui85b75ptrdFwrk1xHzjooIMOOuiggw466KCDDjrooIMOOuigZE3UgJbmskbozHdqi7Jh1a/RyL701m2lbmv9TFHvZ1/R3YZOOLguoHRcHwxJVoJnjFKWiDdb00nY/wYUsSeMJIdd7bjS95gPEQiM+3GaKASo9Ped3ggtEACO5j03kIOB5EPgELc8w118V8ZxT3OEni3Lp6cDzzMNjnwInHwqy7LtuYYAPeMH6bYhDwF2LMmRVgwjVPAJaeLFcICDHIIP5a0Fgrv0JnkvG1b9CN51I68ozRFU/RxrNhXcgyt3v7/mHte6qyqv1a/OF7JNLwP5rvd/WTDdf3Vt2d2o3Zp7pWaV3FO9+Z0E7/fz4O2jEOZumvEIi1xQa4hlWVCFIgfwAarUpYFYnh/rXqIaJe+spzKqdPHvfF3BVzFVA7mXc815M8d35zcrK06JxX/ixUThBxW0ug3gKrqUBWGZC94+j96qsVJ8XnlN17GMLwVcbyHAAVfm31CurlwIFdttI6ahZVDP7boe8G6CKODAmQnB78no/35Xzy1XYiBFDIvfd8RnoJvW6pYhBCG0NQkGouJlQghp8bQpfntckA1y7UgEDr9WLezk4CJMw0/hLnNEgADC5XIrXG4DLOOSdD6/BIniImBV04/ALq9nO87z2s3QbVyERffUcm4zL5mBDpa2Os/TN51O615xgj187Pn5olOM4EX2KGmCILSNEALsTqemrxGfI7D455ovGoeXDNiznNsIzdwROOyeLpTcU2XbOZ54BZdbIbg0R1IliMAOnDos6XD5vDmCG4z2UlkhnM4R3Oc+pkIQ3bnCxHsAN++d5wgIFxjNQ+D0aISLaISy3sDPCyM08kdgRFfeMZqHKX1gCD7BhTv3w0VgF87QDxcBnkweJALHOfMFb/SwnPI8LATuAqvu9QPoQnqACN58QfJuCmz1ISJ410V2bQ8RgTkgHBAOCLtC2MJIdccIONl8H1EjSHo5GWHzRhXYE6dXUUVSBKZaLC72R64hqLh3SkRo4yuEWFOYBCgRmLtSXdfndoJEhLmhAq4ch/0Tz2rRuc2cLRKB6Q2cK/R5KBZY9A8wdKz55k12g955MLfKAG75kUclAUEL7011EUwudBsUiYCv4BZBygNmYd8ZdEo+RpqGdnDDkRaPIJ2GrncRrHCQnsCnvCON85cxxnlmk5HqvAr77yvzQQRmiXCk9ZBnuoALm5iLwM+CKUQnUgoChBD/aRRCeSYsELBBkjVchA6Hj5E3/XePFbcZ0nplzm9J9CbenkHSudxFAPiCsotwpNqzHjbA9Owau0I4msyA7zYsh84DVtUTxK4JcsgLui3JyvoZAFBvkYOqXsLqmM6xYHvHGGdS845l9yrB9E65qul9N6G82fEuwRaMrntcGsxfq2BNHWm8v19wbuq/TcmWg+sDeqe0LnsedVsyw2eWhkBeFVzhu0nC6pifHy9M+BNhpcb6byq/uk3Q4r+OgOPMhW+zkioEtGScxJ7ZjvjJUiZaR3goateuFpoxDxPBaoG5Fn0bVUCRfcoKtv/saN9J2lRBBKhk3QC/cwUQgBIVhP/7ltUUm0tVRL394AiOGppP/GEL2EEHHXTQQQcddNBBBx20H/0/CzGPVR6JzKEAAAAASUVORK5CYII=;" parent="1" vertex="1">
          <mxGeometry x="526" y="203.81" width="54" height="72.37" as="geometry" />
        </mxCell>
        <mxCell id="7zLjmCOxjH0i3wly7O3S-48" value="" style="shape=image;aspect=fixed;image=data:image/jpeg,/9j/4AAQSkZJRgABAQAAAQABAAD/2wCEAAkGBxATEBMQEBAQEBYQEBAOEBAWEBMTEBAWFhIYFxYWFhgZHSkhGRwmHBcWIjIiJiosLy8wGCA5OjUuOSkuLywBCgoKDg0OGxAQGy4mICYuLi4uLiwuLC4uLjAuLi43LC4uLiwuLi4uLi4uMS4wLi4uMC4uLi4uLi4uLi4uLC4uLv/AABEIAQsAvQMBIgACEQEDEQH/xAAcAAEAAgMBAQEAAAAAAAAAAAAAAwUEBgcCAQj/xABGEAACAQIBBQsJBAgHAQAAAAABAgADEQQFBhIhMQcyM0FRYXGBkaGxEyJScnSCsrPBNEJz0SNDU5KiwuHwFBUWJFST8WL/xAAZAQADAQEBAAAAAAAAAAAAAAAAAwQCBQH/xAAvEQACAQIDBwIGAgMAAAAAAAAAAQIDEQQhMRIyM0FRgZETYRRCcaGxwSJSBSPw/9oADAMBAAIRAxEAPwDuMREAEREAEREAEREAEREAEREAEREAEREAEREAEREAEREAEREAEREAEREAEREAEREAEREAEREAEREAEREAEREAEREAEREAEREAEREAERK7KmV6NAXqvYkXVBrdugfU6p6k27I8bSV2WMixFdEGlUdUA+8zBR2maJlPPGu91oKKI5dT1D26h2dc12uKlRtKo7MfSZizd8phhJPedieWJS0VzoONzwwdPUHaqRxIpPebA9spsVugH9Vh+hnqfygfWaqaCAXY9ZNhIGx2HX7ynoGl3ymOFprlcTLETZeVs+ca29FJfVpkn+ImYlTObKTfrqg6KVNf5ZUvlynxK57APGRNl3kp9r/0jVQitIi3Vm+ZaPljKJ/X1/3wvhIjlTKX/Ir/APafzlYcut+zXtMf54/oL2ma9P2RnbfVlqMt5UGyvW6yreIM9pnblVNtRmHI1CmR2hQe+VAy637Nf3j+UkXLo46Z6mv9IOlF/KvCPVUl1ZfUt0jGKf0lKi49V6bdukR3S1we6hRPDYaqnPTdag6fO0ZqS5apHaHHSoI7jF8JU/Z6/cP0MVLD038oxV5rmdOyfnlk+rYLiUQnVo1L0jfkGnYHqJl8pBFxrB1g8RnD6+QqZ1ozL/Ev598hwv8AmGFN8NWcAa9FGuh6aTaieoxEsGvlfkbHEv5kd4icvyJuokEJjaPMa1IG49amfEHqnRMm5So16Yq0KiVUP3lN7HkI2g8x1yWpSnT3kUQqRnozMiIizYiIgAiJT5zZSNGgSu/c6CcxI1t1DvtPYxcnZHkmkrsr85M5PJE0aFjU2M+1afMOVu4d00mppOxZ2LFjckm7HpMc56b/AFlFlPKhYlKZsuwkbW/pOtSoqGS8nOqVHJ3ZY4rKdOnqHnH0V4ukypxGV6rbCEHNt7T/AEmDEeopCrn12JNySTyk3M+RE0eCIiACIiACIiACIiAElGu6b1mXoOrsmfh8tONTgOOUam/IysieNJgbCy4fEDXYm3q1F/vrErUGKwFTy+GqMBqBYbCL72qmxhz9ljMFWINwSCNYI1ES+yXlHyn6OpbSsbHiccYI5Zhxy9jSlmdGzLzwpY5CpApVkF6lG+ojZp0zxrfrF9fETtM/O+PSpg8TTr4dihDeUpHiUjfIeVSDa3GDad2zfyomKw1LEpqFVNIre+iwNnXqYEdU5mIoKDvHRl9Grtqz1LKIiTDxNLz9c+UorxBHPaR+U3SaTn7wtL8M/FH4biITX3DXMr4Yrhqjj0B2EgE9hM0qdTzd0MRRai4uUBpuvpIdQI6tX/s0LOTN+rhKmi4LU2J8lVtqYch5GHJ1zpUp/wAnB6/kinDJSWhUxER4oREQAREQAREQAREQAREQAREQAT3hiQ6EbdNbdN54m45j5rVKjLiqqlaa+dRUjXUbie3ojaDxm3FtxOahG7NQi5OyMPPXBBcNpH7tRLddx4TadxmsTgKik6qeKdV5gaVNiO0seua3uk41T/t0IIpEGoRs07gaPUL9Z5psO4p9ir+1t8mlI67boZ+xTRsqlkdDiInOLRNJz94Wl+Gfim7TSc/eFpfhn4o/DcTyJr7ng1jImNejXDqeMhhyjXOi0sTh8TS0KqoyuLFGAKt27D3icxwvCDpPgZdYPEshuNh2rxGV4mG078yahPZVuR6y9ubG5fBVNW3yFQnVzK/0btmi5SyXiKB0a9GpSN7Asvmn1WHmt1GdgyblVit1JIGoq2u3QZZjH03GjUXUdRBGkp6f/IqGKqQyln+RkqEJbuRwKJ2fGZnZNraxRVDy0mKW90eb2iUWM3LqZ4HFOvNUpq/epXwlMcZTet0KeGmtMzmsTdMRuaYwbypQces6N2aJHfK+tmJlJdmHD861qX8zCNVem9JIW6U1yZrcS8bM7KI24Sp1NTPg08/6Syh/xKv8P5zXqQ/svKM7Euj8FLEvUzNykdmEfremPFplUcwMottpJT9asn8pM8damvmXlHqpz6PwaxE3nC7mOKPCV6FP1Q9Q94WXGC3MsMtjWr1attoULTQ+J74uWKpLnf6G1h6j5HLSZb5HzYxmIt5Ki2if1r/o6VuUE773QZ0unh8j4PWFw4ZePXXrA9ekw7phZT3QVFxhqJY+nUNl/dU3PaIt4qUuHHuzaoRW/LwfchZh4bDjy2LdazINI6VloU7cZB33S2rmEw86s+hY0cGdvmtXta3NSH83ZxEarljLGIxBvWqswBuE3tNehRq69sqmmY0XJ7VR3f2PZVbLZgrEGUuCb3fiE6RuKfYq/tbfJpTnGUeCPu/EJ0fcU+xV/a2+TSm8ZwzOG3/J0OIico6Amk5+8LS/DPxTdppOfvC0vwz8UfhuJ5E19zwahht+Ok+BlmsrcNvx0nwMsll9XUjpl1kXet6w8JaCVWRTqbpHhLQGc+epZDQ9ieqmMNMX0mte2o3ngGQZSPmD1h4GJkMRN/qAj0j0qv5z4c5iPuX6rfWUbSF56gbL851n9l/Fb6SJs72/Yr++fylA8habUUYcmX7541eKjTHSzGYtXPHE8S0V91ie9pRPInjYwj0MObLHEZz4xv1xXmVEHfa/fKjF42rU4SrUqczOzDsJnx5C0dGKQuTb1IWkTSV5E0chZA0haTNIWjULIso8Efd+ITo24p9ir+1t8mlOb5R4I+78QnSNxT7FX9rb5NKKxnD7jcNv+TocRE5ReJpOfvC0vwz8U3aaTn7wtL8M/FH4bieRNfc8Gp4ffjr8DLBZgYffjr8JnrL6upHAtckHU3Sv1loGlRks773frLJWkM9SuGhOGkWPPme8PAwGnjGHzesfWTyGorWkLyZpC89R4yJ5C8meQvGowzHeQ1GHGRr2c8meUuUsMnlg1VA6VFWjc/qm0jboDXtflA5Y6CuKk7Gc8haY3+Gq0/Np1lINyqVAWYW2gMDcjwnhcaQQlZfJk6lYG9N+g8R5jGpdDFyZ5E0leRNGIyQNIWkzSFo1CyDKPBH3fiE6RuKfYq/tbfJpTnGUuCPu/EJ0fcU+xV/a2+TSisXw+43D7/k6HEROUXiaTn7wtL8M/FN2mk5+8LS/DPxR+G4nkTX3PBquH3w6/CZyzBob4dfhM5ZdV1I4Gfk877q+ssFaVmDO3qmcrSOepVEyFaecSfN6xPCtFY6uuTyHRMNpC8maQvBHjInkLyZ5C8ajDMd5iY2gHR0P31K35LjUZlvInjYi2VuGYVERmHnobMONagBVvE9onvEU1YFWAIO0GeMILvWf0qmh+4oF+m+l3SVo/mLKui5pv5FySCCaTnaQNqHnEyWnjKdEsh0d8pDp0jXPNGsHUOPvC/RyiMWeZg8tIWkzSFoxGCHKXBH3fiE6PuKfYq/tbfJpTnGUuCPu/EJ0fcU+xV/a2+TSisXw+43D750OIicovE0nP3haX4Z+KbtNJz94Wl+Gfij8NxPImvueDVqG+HX4TNWYdDfDrmU1RVBZmCgbWJAA6SZdV1JIGXhjtmYrSrwOLp1LmnUR7ajosGt02mcrSOasx8TJVp6c6pX1spUKbBalakjHWFaoqnsJmZpXEnkmPiyJpC8maQvBAyJ5C0leQMw5R2xl0tWZs3oiF5E8maRERsWmrmHF3tbM13KLlfKULlTWrKUPKtQjTt0ENfpEzcJVLLZt+h0H6Rx9BFj1zOdDyd0xnp+dfYbW6RyGPU01l+RUoOLzX2I3lb5N6bNorpozaWiDZlJ22vqIlpVUjiImHimYKSo0iBcDljIO+hiScXZkKVQwuOLURsIPIRxTy0x6F3IqaaXGpgqkH1WuZkNG2FkGUuCPu+InSNxT7FX9rb5NKc3yjwR93xE6RuK/Yq/tbfJpRWM4fcbh986HEROUXnwm00fPlr1af4Z+KbfXqTS88GvUT1D8UfhuIu4mvuGv0N8OuVeeh/26fjL8Dy1o7RKrPX7On46/LedD50RLQqcmMcNiKDk2p4ijTLHis6jS7Hseib5XxC00ao5sqKWboAvNYylgPK5OosBdqVCnUHOvkxpjs1+6JXZRy21bCUaC3ao7BKo420CAg946J6jFzh6rVutn+n4GRlsGDXovVpVsZU2tWVF5LtrbqA0QOnmm54TLCYbAYapUV2DKlMBApN9EkbSNVlmBnHghQyclIfcenpHlY3LHtJmNl4H/ACvCG2xqd+bzKg1zEmquynptW7WNRThd87fs3HD1xUppUUECoi1ADa4DKCL249crcuZYTDhS6u2mSBo6OqwvruRyyXI2Lpf4Wh+kp6qNJT563BCAEHXtBmu5/wBVWSjosrWapexBt5o5JNRpqVVRayHVJNQui/xT3CnXYgHwnwovFbtk1O2goNt6u3okTIOUTlywd686rjCW1bf5WVsspZPt3OpDF/6YU7zjs33Hrd3zzjn5Iyo4pE3HPfGbbP6zw33pJtUa0qMXCMY+pJNZbLaSz0V89G0VqFWlGs9uTlsRabvtJNyy1bT6pMiZm/sT1WGw8hE+OkVSLdYlc1hViKXoRipbUk9lKL3Hk0knbT26cxFL4n0KvruTWzFrae0t7k7tX+/XkQY7i6WmE0z8YpJFgTtmE1JvRPfLf8JKPwFKzWn7If8ALwl8bUdnquXsjBq0ATpDzW9IcfMeUT40yHpnkMx3nZi0zkyi1qQZS4I+74idG3GXtg63tR+VTnOco8Efd8RN93Intha3tJ+UkVjOH3G4be7HTQZ9mNRqTJnLLisxDTT86T+kT1D8U2zETUc59+nqnxlGG4i7ia+4yno7RPWMwNOsoSqukAwcDSZdYBF9RHETPNLaJlrLampHDQ+4eiqIqKLKqhFGs2AFgNe3VMXCZAwtOoKqUrMDdfOYqp5QpNh9JnJJVkspPkyhJHnG4GnXTydVdJbhraTLrGzWpBmNlKvQw2HVHpM9IkUBTCipq0SfODHWPN8JYrJFk7lyenS41LpqaFUxOSib/wCCr9QYDsFSV+Pw1KuUTA4WshudNm0rG9rXJYgAa9eqdLYyBzHwxLWav3k2vAuVK/TskYrURZQdeiAOPkkTURMp5C8jlhMPOW1OnFt83GLf4Ko4qvBWjUkl0Uml9mY5AGyRP/eqSvInlHoUpQ9NxTj0aVvGgj1qintqTv1u7+b3ImczxWKkbT0cU+vIWnlPA4eE1UpwUWv65a8mlk19exuWNryhKE5OSf8AbO3ur5p/Q8mu42HwkbYupy/wiHkTR0sDhZvanSg31cYt/gVHGYmKtGrNL2lJfs8tXe5N9Z5hzfkJi1Dck8uuStIWllOnCG6kuWSSy6ZE06k57zb+rb/JBlHgj7viJu+5Q3+2q+0H5aTSMo8Efd8RN13K/s1X2g/LSYxfD7m8NvnRcO0z02Ssw8saWycsuK7ELNTzppnSRuIhl7CD9ZumIpykyxgfKUyvHvlPIR/duuMozUJpsXVjtRaRpS8sy0MxCCpKsCCDYjjBk1NrTozRDFmUslWQo15MskkURJlkiyNZIsmkOieGkLyZpC8EesieQvJnkLRqMMx3kTyV5E8ahbIHkLSZ5C0ajDIXkTSV5E0ajBA0i0byYrI61RUFz/UxqFsw8qvZLcpHdrm+7luGK4NnOyrWdl6Aqp4q05/gcFVxeIWlTGttp2rTQbWbmHebCdsyTgEo0ko0xZaahF5dXGec7euTYya2VDuUYaDvtFjh1lhTGqY2HpzMnOLDxUS8wa9GWM8Ol4AajlnIwq+cPNccfE3M35zVK1OpSbRdSOY7Dzgzp1bDytxmAVxouoYchHhySilXcVZ5oTUoqTutTR6VZTx2PIdUy0qGZGPzZ2mk1v8A5bZ1GU9ahiKO+VgBx20k7dglH8Km6+zENShqi5SoJKplDTyr6Sg84Nu4zJp5UpHaSvSp+l4iph5dBkasepZtIXkAxtM7Ki/vAdxnryl9hB7DFbDQzauHkLT0xMjYzaRlsheRPJnmNUqqNrKOkgRsULbI3kbTxVxtIffHVr8JiVsqpxBj3COjBi3JE7LInsNZ1c5lfVyk7GygC+oAecx6P/JmYPNrG1yCUKA/fqkoB0Lvu6NsoK8nYznJ/wAczDxOUVGpfOPLxf1jJGRMTjH8wWW9mrMCKa8oHpHmHXabvkfMOglmrk129EjRpD3drdZtzTcsNhAAAAAALAAWAHIBxRFTFpZQ8sdDDt5yKrNzN+lhqehTFy1jUqHf1Dz8g5BxdpmxUKM90cPMtEtIG23dlSSSsgi2nqInh6IiIAfCJFUoAyaIAV9XCzEqYWXc8NTBgBquLyLRffU1J5QLHtGuVOIzVpHel16wR3i/fN7bDCQvhJuNWcdGzEqcXqjnVbNN/u1QelCPAzEqZrYjiNM+8w/lnS2wfNIzg+aNWKqrmY+Hp9DmRzcxQ2BepxPBzdxfoj/sH5zppwfNPn+D5pr4up7f93PPh4e5zH/S2KO0IOl/yElp5m1zvnpL0Fm+gnShg+aexg+aePF1PbwHw8DnlHMb065PMtMDvJPhLPC5lYVd8r1PWc+C2m6Lg+aTLhJh4io9ZG1SguRQ4HJFKnwdJKfqqAT0kbZY08LLNcOJItMCJ1zGGHSwsykogSWIAIiIAIiIAIiIAIiIAIiIAIiIAJ8tPsQA+aInzRHJPUQA+aIi0+xABERABERABERABERABERABERABERABERABERABERABERABERABERABERABERABERABERAD//Z;" parent="1" vertex="1">
          <mxGeometry x="632.75" y="421.51" width="54.5" height="76.99" as="geometry" />
        </mxCell>
        <mxCell id="7zLjmCOxjH0i3wly7O3S-50" value="" style="shape=image;aspect=fixed;image=data:image/png,iVBORw0KGgoAAAANSUhEUgAAAMgAAADICAYAAACtWK6eAAAYAUlEQVR4nOydCdBsRXWAj1EDAZQdZX9AMGIAAUVEDIuBsIdFWRPiQ6IGJSiyFiSyKRDFoBiClmHRAjQQBJcIMYRNooAgCLJq3vuFiCgiKKtsSX/0DPW///0z93TfXu7MnK/qFFWP+0+fvrf73u4+2++JYRgDsQliGEOwCWIYQ3h5bQUMeZmTJZws62QRJ//n5LmqGhkv8YraCkwgKzrZysm2TjZwsraTP5hxzWNObndys5OrnVzh5LflVDSMsrCU3dHJ5eK/EKHyuJOzxE8owxgblnTyQSd3SNzEmCnPi/+azHXy++W6YRjp2cXJw5JmYswmNzn5o2K9MYxEsJz6e/Eb7VyToy9POnlvmW4ZRnvWcvJ9yT8xZso5Yksuo+Os4mS+lJ8cfbnWyeLZe2kYEfDlmJJ6k6Mvlzp5Zd6uGkYYGFt/IPUnR1++mLe7hhHGCVJ/UsyUA7L22DCU7CHeNlF7QsyUp5ysm7HfhtEIvlO/kfqTYZBckq/rhtHMoVJ/EgwTvmxmSDSqgJPnj6X+JGiSb+a6AYYxjL2l/uDXylsz3QPDGMh1Un/ga+X8TPfAMGaFdX3tQR8iz8jC8SaGEgu5DecdtRUIBMv6+rWVGFVsgoSzbW0FIti4tgKjik2QcDaqrUAEa9dWYFSxCRIGSRVWrq1EBKvWVmBUsQkSxjIymvds2doKjCqj+LBrskRtBSKxOJFIbIKE8bLaCkQyqnpXxyZIGE/UViCSJ2srMKrYBAnj8doKRDKqeldnEjMrYjjbwcnu4kNl+Spc4+RMJ480/C3u7b90skJOBTMwpbxuDSfbO3mNk585uUia74kxRrzZyQ0yu0vGz53MUfzGfw74+y7LYYp+EYX49Iy/4+XxabFTsLFneSf/4uRZGT6QvqL4reMbfqOLsn1DnzZ38sKQv39QfP4tW5KPGaTiIWb8V6J37Fup4Tc3Vv5WV4QEdss09EmbM/hWJ/uI5eAaeTjWPFL8gA8dULspfv+uiN+tJZcr+vNk4G/Oc/J2xe8aHWM18VkGZ66lQ2RTRTs7tPj9ksLXoyl5Ay+TpyJ/f8rJweJdcIyOQ4aRX0u7ATUleqPabS3bKiHnKftyTct2OPhYXdmWURgG9GmSZkAdHNDuEYnazCUkbfhjZV/mJmiPoj87KtszCrGdpMlqyJn/gRLmkrGUdCPd6CA5N6Av/Yz0T7Rsk1PCz8loejyPHSdL+0FE/Q4GRqwz35bS3cRxMS7uxI2Q33fYka9GKBc3apGXYwODmUQEbR4gg5pl2asS6HNKS11yyIEt+0Spt++01AH3lj1a6mEEspm0KzHAqQ4b15QRdiSvvqyFTqnlY4n6xYvow07ubqnPhU6WS6STMYR3Svh5/XS5X/ySKAdLO7m3hW6p5KwMfWNfdoy0q5hFxd7XZNDN6HGsxK+LOV052smimXV8rZPvRuqYQs52sljG/uHYeVEL/X4h+V5QEwuet1+S+IfydSl7ovJqaW9TiJGTS3Sux67iT/1i9OSUbLuCuo41vPG/LfGD5ujyKr8IIQQnSZnTLTwGQmw3qeCI+4oIfRHcf/Yrr/J4Qez3tyTuAfAGf1t5lRdiKyfXS77JcYGTNYv1ZmH4un/IyUMSrvvzvb81IsDz9BaJGzSnVtC3iT+VdCXa2Id9VXxcS1cglCC2su/hFfQdafhy3CzhNxoL7iEV9NXCsotTuKslbiBh+MP2s0lhvbVwinelxPWty8+tU9kuSLD8NSfbBP4dsR7vFr8kGwVWdLKh+K8A9hgs3nw1MVqyPmcji9MlLuUcHRODcaN463SXwR7E3uuIiL9luXV6WnXGC9azMZs+vjZNAU5GWfaV8HAD9iR71lB2VOAMP3RyfFksrX9XwVUltAIXX8+dayjbdU6U8MlBfLnFR3cblo73SdhzZRlpdRWnwd4hdHLgZNilvZMxmDlOfiJhz5d919IVdO0cbMZDY8Y/XkVTow04Kobag9hbTvQk4dQm1F3hk1U0NVKArYRTuZDnfU4VTTsAewdtmpm+XFpFUyMlc8RnpdQ+c062/qyGorX5vIRNDgJ3JvpzO0ZsIWFhvY/KhJWxJulYyOT4nuR3UzfKsrWE7T1xk5+IFyQW5AdEf2Pwx1qqiqZGbnaSsFxc51bRsiAcy4bESXDz7Dx8vCHzZchqYvc6apYBN4KQm7F/HTWNguBeFOIFTPb9FEk2OgedCjEWHVVHTaMChCn/SPRjYyyP+nEL0d6Ab1TS0agHLim4mGjGB7aUl9dRMw+4dGuTLXCysU4dNY3KHCv6l+jfVtIxC6Sh1Hb8ryvpaNQHr2ytOwpZataro2Za+HpoJ4dZyg2KHTH4NeMFX62Rd1hl0Gs6S4rK11XS0egWIRnz96qkYxJwD9B29IOVdDS6B0e/2lSnP6ykYxK0RkHOwS3wyZgODoral+tOlXRsBZ8+TedwWntDJR2NbvMZ0Y0hvjYjFXbNJ5Ik0ZrOfbaSjkb3oeYhlnPNOBopw/JBoj+qmwgPTSOauaIbS+REG5nM8eRwso25kQJqsd8puvFUKw9zENuL/vRh5M+wjSJox9R8GYExRXBTU0dwO9mykn7GaEIJC80k6bRdZCPRdeK6WgoaIwtxQZpSErfmaDyVDWIX5XUXJmrPmBzuEb86aeKNoq8LX5w7pHmG49K8bC0FjZHm3aJboZxQS8FhaN1KTquloDHyUHtREzPyo1oKDuOfRbc5N4dEow3a0Ik/rKXgbFDwhloWTUpfW0tBY2xg4GMUbBprn6ql4Gxo14ZWj85IAUkEm8Ya2Rs7E5Z7lTQrzBHdarUUNMaKj4juhfzntRScDidSmnjzqyvpZ4wfW4huglycqsE2dhBOrzTm/YtatGEY03lAeR2Vhasvs8hR1DSTyZBotg8jJfjyab4ib0nRWJsviKZYP5GFD7dowzBmcp7yus1TNBY7Qfh8ra+47pHI3zeMQfyH8roNsmrRALNT85k7qJaCxliDf1bT2LsnRUOxX5B3KK+zVKJGDr6uuAbPjeXaNpRzgsx38tPI3zeMYWiXWVtl1WIAhEJqKgT9Ww3ljImAMfi0NI/BT7dtKOYLQqqeVyquuzPitw1DAy/oHyuu26htQzETZBPldSOd+c7oPBrX9jeJ7mU+kJgJ8mbldXdF/LZhaNFMEOJIWoVZxEwQTYP4aM2L+G3D0KIdX69v00jMBFlXcQ3rw6cjftswtPyP8jqNQXsgoRNkmZ400cnQR2Os0E6QokusFZXX3RGqiGEEgo/fo4rr1mrTyCsCr9dOEO3sngRIxLymkzV6wj3EwruCk6WcLC4+dJnreGERQsAxJktUvKFJVvBwT34mPjk4iZ2pHHyf+PP+SYV9SNNRbtEJsrzyuvtDFRkTiJzkGJwcTax91+39W67YhCfFeyzc5uQH4kuT3dD790mAF0TTBGFL0DduBxM6QTT7D7gvVJERZG0nm4pPVrZhT1r7/gSyWK99ZJ/evxHijIsPk+bm3n9vdPJgYd1KoH0RU0ngFzENhE4QbcmCcXwYfAWofkQOWCLWVqmrzkDQc82e7Drt30nN+VXxLkDjYqPSjjNe7FETJJRPSLP/y7h93vmEn+HkV6Jz8R8FudfJMTL6yTTeJwWjCzX8k0KZ/y2lTCbYLG/t5Ezxfak9mHMLSzBSdvIi6HwJgRm8S3R93LKUQmcplBnVzzf7h5PFHx3WHrS1hD0Le5lFWt7LUmjrh2wf20CoHURTMPGJGEUqgSPbDuKzznOESr27JatqVBe+IheIX9uTofC1ddVp5HHldYvGNhA6QTTHlVHHaYVhKfEeJ1NO/t3JHuKPAg0P9hmStLHE/Iq0tCVk5FnldaGHUdF/qFmjvhCjSCE4Fj3OyaFSpz47hj+OwB8Sf6rCf/niUtQUw2A/ER9LHN56GBAZrJzC8DZfVXzBylK680LcqycYJskxoI3mGwuiZ9YQurjRe5WT9zo5RPIezzK4OZtnMLEX47SIt/C83n8f7l3TBp5Zf7LM6Qk2mXXEGyaXaPn7gyB59OXi081+QXxCwOcytZWatvdczXmi2+h1iZ3EG85ybWz5CpzrZF/Ru+Lkgjc+6W6oIkzCDL5Oufp9vfhJWZMtRaertgJaa85RKNMVR0UGK4Mkx+DAnf9E8YOxi1/MPizTthFfWyOHHYf9JoWRFivVoRnsoNAR2a6UQmcqlKntZsIS4whJOyA4LWGyvV9G17jG12Uz8RP7v8Uvj1LdH3JQ7Snl93V7KvXbopRCGkt6zWPet4tPcJzqwd8u/jRH62IzSuBZzPPksCDV/bpE8u2BZuNApV4bl1LoGKVCGntJSti4YuT7nVK/YYI9hLJyby3ag3pw73YWv+nmlK3t/eMFxWlXia/JcUqdipVlO0ip0KtLKdTjw0q9hgnGMZZQNY5/uwInY+xXUkyU4wroe4ZSl2IVBnZWKFPEa3IGtyn0GiR8dY6XFtbWMWQl8d4FbSYIgV65vRI0hT1x/2+V+icE1pdNDnxHlVKmB0Y0TaWrmUI/DhdveDMWhi8pL0Ty4MZu6D+QWccDFDrcmFmHhWDD85sBylwp5Y89Vx6gy7Avxj+KNx4aOsjmTxh16ARpnfqzATwO5jXoUKVeIbmGbpymBD4x54s+4jAlvOkeEd0DY/kX7dk54TAYT5ewCXJ0Ab14YT8+oP3TCrQ/FNw2CPesfQz6WRn+oNh0crNWqKXgGMHpHpGJrO2bvtRrF9KJ+P+zxRupcfPBJWavQm2PBCyXbpHZHxRuJsUiyiaIvcVHj9ZaXhmBsATgGBr3dfyEeMvtL/XcICYBjoWZCNOXuFNOPiqjE3RlGNlhMrDM6WrcSDSlTpxYixKthjs2Z+z9RGmP9QTnP9w6vi/+hMwwxhqMbruJP9kKSXzAxo5JgoUUL9TqxeCNySb1F4TotyPFG4hSuJvg10NsNL5Rli1+MsA3jMI3JOJbT3wyDSzyWMNJqEFAGoFoZJLE1NDlCNYFIDAJR78Yi2uTUM5NW7jHGD2wZZGU71/Fu6hoxwURmheLjwvpLAQmcWKUY2JMF87d8b0xC/j4QPZHTrzmS/vxwVKe/F61ozoXgNSWWit2KuFmFvPvN7LA3vIkifOhaxKiHE+V8iEXC3GYNFtTcwmW8b3zd9HIANkQiUDMPUbuFl09/ywcpVAwt+BhumvujhpJ+aSUHycc8BQ9DX1Phk7ECq4Om+ftrpGIj0u9cXJqgf69CJ+sZ1soyjEdx3NXOfm2k+vEu1E/0/I335Cz00ZrTpH6L1M8kbN+Sdj0zI9QjCQOeNuysR4Uzor9hKTJ34n4feS6lB01kvIhqT85+nJMzo6eEKEQiQBCXcw50x7kmTtM9ozumZGLP5F2Kw6Eky5WCSToa7PS6L+sW1W9HQQ+VCEZQ8hJtU+L9vjSkIhhmDv1TOEGWrxHd8DT95cSPoh5jl9y8hfiffim5wrAms5ymhPMc2RwZOswwe8v+Tj5QoACWL1XTdQu1vOQm1wigs3QETJmEEwGrFJCsuzj9MqyKTQLyyWtejYDkho8pmz4JkkfXYgL9ZSyfa4rlsHCGAiu7yErDnyq1m3RHn97Q0B7yDYt2luAjyob5Ia8PlWjM9hGqQOyeyYdDD2USNA+r+9JGvchnBwvC2j3GwnafJF7lQ2emKrBAWj9vS7NrIcxHLxwtYOUGKClErbNakcbXvGMJEj5tImyMWwZuUMsqYmh2ZTxJaudRGKSOVd0YwbP75UztM9y6yGlDse3bexjyoZKbY61Gz/z06oDm2bt3uNvMuqhzfpOGqhWMVFXKht6U5tGAninUp/TC+ljLAjZ9TXPh5VA7izwdyt12XDYjzQlal5foQiz8BbFdSm4RnQRZBq9jfRoM+KT2VJboTaWc5TXRQdbsYHRzMCzYxuI5EaFTo8V1snwUBG36dlg/C2RKFw7fq8e9iPDviDaT+BPlNelQtMeulvCh/LMUVyDv12J/AKsbO5VXDfU/jJsgiyuVOS3yutSoW3PEsaVR5Ob+bbsWoS1Re2QgS/TYWWgtdkiMPJoJ1MKtAP/+axaGLOhCXN9OLsW4W2h96x7omETRDvATupJl8CD1NIElUezrC354tK2NVDvYUus3KcMOSGf1sjkSxojNAVcS5bI0LY1UO9hE6T03iIlpQ8ODI/mpVqsoKayLU7Vnhv0P4dNEIw5Pw/VqCMUL7tlvMhPFddgTCxxwsjeWGMPu2vY/2wyFN6qVqdb/FdtBSaUeYpr8KnbMrMeQDSjJrZk6ElX0wS5TK1OdyDA6traSkwoNyuvOzSrFh5tCPYVbRqZIzprZJfkU206bLSCVKLa55QzOyYlNp5W6MDeo7W7/fWKhrok5odVF2K+Nc/pgow6aFxekFZfjz77KhvrglyTosNGK7RpfrBRzM3QvjYCFtklRYP4y88PaLSm7JGiw0Yr8HTAD0rzvLBV7Z+w7bnKdhGC/JLVx9EGTtUUjuuGeQYY5QjJ3cyX5F0J2qS+yBMB7Z6QoM2X4GhOG8ZYQ9iQlQraMprhK4KxVvv8iA+nWu7yEW1RyYyk2CGVBvDRWimqZ0PQhjHWkFNSd9ZozX4S/hxJOPgR0bmI4IVLTPmvI9rZT9uJ0DXYF538VeDf5Aabx3bik4cZ3QFr+YUSl4YJZ9PviveIuE/8G58vBMk4SC3FSeWmElckhzzRB0f8nQqKKWItrf3F6EuqnEpGHsh0Q9Xi2uOkLyQ5z176nHyp2lOKnEKK0yUz99VoD/vXXMVdQwRHynUy9/UlmCR3Zu7QMOHzu0b2XhqpeIuTB6XeeGGCFq9rSTXRu1oqHiqcm3M8l/0zaSRnFaljT2P/Uq3AEskRzm9QMJWwSTuwTLeMTLDy0KayTSFs8jux0uAIOOTcO1RIhrxBsd4YOcFGcoTktasR7Ee2z04ZjjnWozQ0yqV8A+xYshNGMViis/poW4FqupD29AzpeCEljl1xHaDzoUYcllFkaSR16NtKK25UgQTWFMGhuCt7zJiJ8UMnx0qG5VTuzS4RXQz0LZysJ74+HMYe9i64F/C1IV09m31Opq4Sf+IQCn44JKzm2JcJRgmv+1rqbjRDLAUFjtgITyX4PWLIdxI/XsiZu/os1zCJGCNMqMvF54/WJIibSFhjzpbxnUD8ufXUGnvYR3xeFlweYRBMvU/Ez4oJuJH4o2JesCVzsI00fP0uluGf3q+JOTGmBMs48R6DitQ8It4FxOgA2uI+yD+I5eptC8sfTR1AlrYhhTiNTLxfwjZyJBRYr4qmow/2p5BKsskKZBrx4JEZetrBQ6Y2RUzcwaTBcuoA8S+W0Pv8gQr6GjMIqXw72yb+cLFl1yA4Lv2WxN/f3cqrbMyEeugxb7eZ62X2J51wR6gMhx7E1VAeuY3xbkrspKkzYDFtO0kQbDLnStm8sV1iVyd3SPv7SOiztgybUQiiyr4s7R9u/wGfJZPxkLlv7xNvhU5x79jfabMZGoVheUDKH1K5pHjYCAOHHEuc64/LXgXL917iC1wS/53qXl3kZLWC/TBasLWTeyTdw+8LZYXxEB2l/Qr2CO4HX0UKm6a8H/jN4Ri4dLHeGMngiBKHx9STpC9MQKpqbSbdM4pR3RW/NJxFKWGRo/8kCJ8IL+txj8wj+8VBTv5S4jJgaMDFmjIRt/WEUOQp8bUycpYb46SIQwV8lYiYe6N4B7+1MrZJzM8nxOfV1VSTGnnGfYL0YSB9RloUjY+ATStepvN6/2XC3C++KNGj4j1gWfbMNomoI07YwHI94aswR3z2dPqC096q0ly+IhV8iU4Wn9ztd4XaNCrAkggHxlxLrxghBf9TPeEULSRDYG5h3/V30vEAJCM9LEe+KfUHYFeFFDmHRd9dY2zA3oENBUNh7UHZBcGNnepPdjJlLAApaQ4RnTv3uAn7IDbd+E8t2vZGGuMPm2AMhPhp1R68OYVCpxwH5zrdM8Ycwnm3dfI58SdOtQd0CuE4+kjJexQ8VkzKMW9b8BwmLnpz8eWFsa+sXlWjZthX3S4+uUE/IYamjrkxDZsg8TBBiEkh5yuTplhi5AFwTHyTk6vFZ70nk/ljNRUaB2yCpAPD3ut6wuRZrSdkN8fQRxTjIi1+n6NXEkA/IN7VY0p8rluMj7i+YOV+ocXvG7NgE6QsVEXCMo5XLUeppM9ZpCfsERjgBCsR8cjbn7xh7H8oN2EFggzD6BalfHkMYySxCWIYQ/j/AAAA//+j3l8t2ak9HAAAAABJRU5ErkJggg==;" parent="1" vertex="1">
          <mxGeometry x="770" y="480" width="70" height="70" as="geometry" />
        </mxCell>
        <mxCell id="7zLjmCOxjH0i3wly7O3S-51" value="&lt;b&gt;&lt;font style=&quot;font-size: 14px;&quot;&gt;Redillience4j&lt;/font&gt;&lt;/b&gt;" style="text;html=1;strokeColor=none;fillColor=none;align=center;verticalAlign=middle;whiteSpace=wrap;rounded=0;" parent="1" vertex="1">
          <mxGeometry x="770" y="555" width="60" height="30" as="geometry" />
        </mxCell>
        <mxCell id="7zLjmCOxjH0i3wly7O3S-53" value="" style="shape=image;aspect=fixed;image=data:image/png,iVBORw0KGgoAAAANSUhEUgAAAMUAAAEACAMAAAA0tEJxAAAAhFBMVEX///8AAAD09PRra2v7+/uqqqrx8fH39/fh4eEJCQlfX1+dnZ2Xl5fY2NjCwsJ3d3fn5+dVVVXr6+uNjY0eHh5DQ0MZGRm4uLikpKRKSkrQ0NAaGhrX19cqKip8fHwRERE0NDSCgoI6OjpTU1MnJyeQkJBwcHBcXFyysrLJyclISEiHh4ch77hRAAAJDklEQVR4nO2d6WKCOBSFE0RAQKW0iLu41+n7v9/kJohI2QtJmMn3p0htzfFybhaSgJBCoVAoFAqFQqFQKBQKhUKhUORgauLoTsUYC2PUnQrtJErE4dGdCvQtSkWHoSDBiASpmHapQlQw5p2KQIaQYHTqCkBImrp1LEJMMLp1BSDAGR27AtB2vEVMunYFwD0YnbsC4O4Mqw8VvNNUD64AtAtPEZ3XFU+4OqOnUHB2Rj+uADgGY9+bCKQdeImYrPtTwS8YvbkC4OaM/lwBLPmI6NEVAB9nHPp0BcClAu/VFYDPwxn9ugKo4YyLTblPMD6xww9y9swOawwK9R6KWs6w2TvNL4wddmiRs9u630LvrgCqnRGr0Fqq4BCKOs74o4r+XVGrHH9TwSUU5Hpf9KmCiyuAKmf8VuHVV8EpFMQZFdnSRjpgEBU/1pRgzcjZkB1eK1R4vFQgp7wghx0DDjebxWKxgWtwAUeLTUWi5hYK4oxJxRfamsOWn4r+mrYcQ1HljJNDccnFY7PDH3L2OF4SxrdSFT5PFcgtK0p+CyTOoKXdRa6hQEivoSJTX8TjS2Vp+tD9IHk5Zc7IV7GuVsE5FKQeK3FGaxV8XQGUOKOtCu6hKHVGyt1LdphqgRS7e8HbFUBxBf7hWQRvuiHpdU0JyVlnRtnLFIpyZ7SCvyuA0jqjOb3cOqqmtM5ozEaEK4AiZ5ynlAf4gh1Cy3zMDota5kJcARQ5o1ULxBCjgVDwvbZpgQhyBVDgjBYqFnwGPvLJT1MtVAhzBZDvjBYqxLkC+CxRYb6PgZS5W6ArKHllCkLKN/T1lhQQe7teXddxRjl/INQVQNXATC2EugLwurifIdYVwM/fRXQ6UbMd5a2plLsL+RLtCiA3TWVUWGXvEe4KoNQZdVSIdwVQ5owaKkTXFTFlzqhWIYUrgBJnVKvoeZpBfUqcUa1CTG87j2Jn/DOn5DU7GFIkKEb7Hrg0rgBaV+DSuAKw2ram5HEFUFqBFyORKwCzlQjh/YosrZxxFF3qLFabJQFyuQJoEQzJXAEYjUVI5wrg2FSFdK4ArKZLAvjN+GhCQ2dIVW2/aOaMjYyuAI5NVPyILm0RjZwhpyuABq0pKRMUw68tQsq64smxropP0SUtw/qqJ2IiryuAmnWGxK4A6jnjILMrgGMdFVK7ArA21SIkdwVQo86Q3BVA6a0KFgrZXQEUT4CKuYouYR2mFROfpU9QjApnSNuYfaf0xtEwXAGUOsMVXbq6lDnjIH9d8aTEGdJX2y+KnTEYVwCFzhiMK4Dp8F0BFDhjENX2iwJnDCsUBc4YlCuAPGcMzBVATg98YK4AcpwxvFAgNM+KcESXqA1ZZ2yGGIpfzhigK4BMMIYZCoTeFnsOrq54kg7G11BD8TZQOFBXANtExES+aQb1uQ3eFcB0+K4AjoN3BbClwyGHIbsCuA3eFQA44zJsVwD7wbsC2E4mckzq/xv3/0AoEPKGNByoUCgUCoVCTmYzHSEnvQWJt6TNvdk3OQzDtS6oYI0I7ibSn3sRUbY4hB+jADk4CoYxBrgakS8bj5FvQXE1y9K3+KFbOmn1GSvbMEjbT7dIcDQi1tR0q8PHNnXI6j71LPw9wxG29Qe+HFwLXzC+o/vB39H5W2M8wSP0iSPHwYcF7mu//j9xxrsowmPd08bYcrDpa1M8t0aBNor8CObx+8HN/8aGi23fmYTWSsIVLyQWq3AWEhWhe8PTxwHP/SmeoWNKReSQ3rbnnjTkkh736Cy6xHkwX3yHeHnEU5KUvo5WomL3VGERFZGB3J0vqYrAhhz1PcbbPd4+wll0hFjsT9rogmx8+7SN++kxx+Y18pF7GIcTKa+o41VHejAzRifnwwoDvLK81Rot9+b1hrz5Ync2vRE+z5BzJrHAO3waROYtw70MfVAQ+OzhuU388QZ/Nf1v0H1r+xjz2jO7L9wVLG5fVr+xe44r4J45q0fn1eocfDf6V2xPh3F3ZatPvDFtJoXO2NlmKUmginiFZOY6YFNXFs3+1ZsK35quHW63a/QV/ez3VajGmZ5suLAirWIdwDL3VVelrIRdUtFbVbBmAZo1+09pFeyS/OislFU82PzrtwTJlJ0ajvGLVKH98/vqYduBNN1DSaSKeELBJXUm3mGmabYRquLBypy6fOKdENn9O82HDY89z3gN6dBHMLy/gpeJCvLqqeL9rT1i/sq1bPJsRHLVzN1/xLvNBPOxyX4d3ubz+e1ZI+ojuo2RmVIxmu/vLMB7usMRDxXxp9+Sr8xnTnGSMD3ZsKTFdlZ8ruQxk8AlKnAGLirGmVwb59l1eipRDB3GYTunPldeMBWTEhVfXFRsL68Svkq5MnL2LorMFio41X2spk6q7yh5acBDqvAuOCf7zcxaqLD5qGDrEg7xK+NVXrQcrw1D00zNj1uN+zoqfEML6fGHZhA4DYrGk7fiXBvn2eyb2HTacx0VSEB9QZIle0RNPOX6ll+AdXKNS6oCHelnjmiu9QL64lcHiU2XD3R5VbCr+EIvKVZH/N4aXn4VcUalhmZ1mm1m3+NJrwLZ9EPpECzbduJZMxvh7Ux75qtAfhXLJC/F+zXEF9Qj+2gqqVXEK+q3yf7k7PTv1UhSq4jra/dZlHh4/z4wFaxko2eejXvcrOQnF55X9TkAFSy/Hiz26RGrxtkFFbF3FOUoXSIVPovBI44J62uw6jrukRfUF6YjkYq43bFn/oj7fax7Ebd1s7GAtoj3eO5Fn68i4q2CVd/xTixxh4l9/Tt6PLUTFXEa+7jdA4xLVcAsBnPNcf5tev/QZGSTvTz9XOfPLZhARaYfm6sivRkKz/v8H6+PTbYBOP8qLajI264lqyLdUwo5qkg9jiMZJ1znqtDfnwy4OuSpSD3wh+cdjVeJUzeDU6vTb7SbdNIz4kZriz7AJKvCfNWYPO+Qa8cRw04vUB3Ti+py/5wiC355pDl4bS9IJgjsI71YrvAL0i116V8nQ9SOfSEWO933DQet/4ZuslE+820sz4Cnn1k0zaTG+fTpej31nq33+LyeGQg0LXjTf2GFgEKhUCgUCoVCoVAoFAqFQqFQKBQKhUKhUCgUCoXi/86/71yOYAjiXssAAAAASUVORK5CYII=;" parent="1" vertex="1">
          <mxGeometry x="663.5" y="616.06" width="66.5" height="86.42" as="geometry" />
        </mxCell>
        <mxCell id="7zLjmCOxjH0i3wly7O3S-54" value="" style="shape=image;aspect=fixed;image=data:image/png,iVBORw0KGgoAAAANSUhEUgAAAM4AAAD1CAMAAAAvfDqYAAAAxlBMVEUiIiL+cTn///8AAAD/dDr/dToAGiAAHSEXFxf2bjgfHx9ubm7Z2dkAGSAAHCEPDw/z8/Pp6em9vb10dHQdISLIyMgcHBwVHyGkpKQnJycRHiH0bTjuazeiTi4SEhLTYTQ8KiSwUzC4VjEtJiPGXDLcZDVGLSXlaDaSSCxGRkZ+QSpVMibfZTVxPCnPz8+Pj49fX19PMCaORixjNydeNSecTC1AKyRmZmaxsbFISEhtOyk0KCNVVVU7OzuYmJh+fn4xMTEAEB/I6VNUAAAMeElEQVR4nO2cZ2ObvBqGwQhs0xjbCTENduJm7500bUbT9///qcPQRI+A1mCgR/cnAljoQtIzJBHD0NLS0tLS0tLS0tLS0tLS0tLS0tLS0vqn5QdN16BK+W9Lp+k6VChnaV+ETVeiMgXXyBz+O93NW5gm2vearkZFcnaRaZr2/b/RPv73mMY0r/6N5nGWCY1pP/wL1iC8sE0s32+6MqurPyQ06KD7zsc7QCbleeq6NfAvGY1pnna9eZwrjsZEz/2mK7SSvAfbFHTYZWvgGyKMiY663N2cI5ThsV+7aw2CxyyNaS5GTdfqrzVaSDQm2u1qrOM9y40T8XzvpjXw3wCYCKejiamzhBonsgadTEyDaxukMc1hF3H6cwVNlJh2r7s5+3BXS3juu2YN/BM1TZSYds35jI5zaDqXmHIpKGwNjC51N98f5tJEiWmXYgM+BVV0tw4lpsFlEU2UmHbHGjinhTQmOutKYuqdFTeO2ZnE1D8sAxMlpt3obiMpBYVlP3bBGgSP+S6HadEFY90HUlBFd+tAYurtAl0N7YO5D/rWdmvgf4PqPYRPo2XbrcEIagZ0EYKN1vrENART0Dgf8MAhNW81jh9AoSc68VUGr92JKZiC4irLM6JJdztprzXwT6AWmKfeUhEsHLe3ecTVD/L+r/H4kFYT0sutTUzDB6irMWM8AgPtYUtXTKXVjxSHuUofTIPaumLqQCmoEMjASap92cZQNHiChoYQZsJ2vJ0rph40MjJJADzBY5+1LxTtQymotHbowNNvrZum8g/BnC2bQJP9OQXUjQv0+UjuRQ4YiqKWrZgGr1AtocknB1xYaFliCqagCLLAwSsYirYqMYVTUHjiFg5F0Vt7rAE8wEn0QoMY/CcYirZpxZRswBNEMk3/5BLz4PEOmnQWqTYu2DmSyN85ekxxQrJDAp7zHbZl9ITKFNRIciDcOn3zOa1x8ASOnpZs5YVDT1I5Z0lxhsT7g7+gL6BZwWE/6TrBtc1wyMyAH0C9rR2JqZebgkbjhGsdkvwoQtEWTFOFUMpMzW581b5nOGTVAA5Fh0HT3U2RghKnGFsJDoeuIcLr9M2vmMKhJwlZkmiBx6Fb3T1wFwUYFq1R0AY8FlCme6YQj0PHB7zHpeEVUwcMPUm4nzadgGPOMSo8/dtsYgpuwKPJGJ5FFHHQM3VIYMK305w18N/AGpFUGZsv4h7J7n0airYtMQVfMO0v8TdVAA6dV4P3Vja3YgpvwKPTTGRcZVuHbgYF537MRVPNAxonamupf5VwyDQvbBabSkxB18GmaGmcTVqDfvlC9+PAianZSGKq2IBH4hQGK+GYV8T0+VAJzayYghvwqJfkdh3LOPQuMOCL4tf1W4P8FJTvRzKOOaS3QeF4Ayum8AY8moH59xzsNwmHfscDr9etf8UUXNtg+bHQE2Uc5moVoeiaE9PgElwFJZ1E9EgADmAABR2v1xqA64JsbkncRPAGtA71pW1ITMENeMzAZhZJQRx6M7hPZK0rpoqJTOL+sjMbEA6LzRTbddaYmOanoNLwBnHYJ9iK7Tpr++Ic3o+yIFtVpdcN47DhAW/XWduKKfh4FthLbQfjMF+q2K7zsJ7uBq9+0I2qggdNdAjj0LxUtXt0LSum8NBlq6DyFJoCh/1GYVrWspUX3oBHpyxIDloCh/lSeOf1Ojb2w26PjVtgYClbh8Uy8BrJov6N8AGUgrJ9KOGzTGsoceiSmzzgkuvPdVsDeAMe83nhLpJuUOEg+4gOdni7Tt0rpnBAz0cknrFvZmqmwEHLe+ZaFNsua05M81PQtGLO24HYQvhCJshZPjn8q1eEorUmpnAyfPWf+EzfezvigIa+jIOOn0aZfvQftF5ca2LqG/A3YMunUQbI+c6AZBz76jXzAyMYXYI4aLe+WAde04yeiY5fnWwL3S9JSxoijr24ztxshM71seKzkvo29sMpKK7j6UVf7Bf+6D51QeSfZRGci2xTesHZQl1ybSum+d+A2YsHzxPe5GgJ4QzF6vne4f4w74OfuhLTwm/A0PDZ54G8YxCHr13g3B/JjkpUPV+cl/kGDJn7hwwIt6YaJ/Sul3bhp1j1bOVVTChLQAffCNBoLtQ/g+P3+w+LUp+VoafqrYH/VPwe04fbR5ep5fLE+gs4kbPdzUYPqgKHFzX40uCyRMdIn4+Wj7H16itxgtH9UVmY+VlYz+BxTgqHLZF9eu2EeH1g2Bdx+qHzelz2zSwenNrigsjZH5QGWlwEMI7zkONlsmXUB5MCZePLnDc7B3HMeekWvvBqnwv1gQwgX1mckjBX19m4rjagskbpr3FsKQisE6gfPucGJivioOPH9cEk8sKzsmPgD3EiM5/NN9ahsF/SQpGYsxQOspeXzvoWDwSg0cVpCSCyj7IEDkJHJw3BJEDO9VUhUGkchA6ahIkVRB6+KMAvhxPBvDUMEysYPS5zPeu8zNiJIvE3r3mYWIGTG52WwEGIz5MaV5AXnRbiIHM3aBFMrCjcVgVzczyTqcDJpuQtkTI6zcWJYMIWwsTynUMoOs3BQYuzfvM725UCo9OFCseeP9SfAawmv9/PRqcKHLS4GLUcJpEXnAlAIE6Um9WbaFaoUJhyWsiGOsrNvHZ9KZqv0GHRqYQT5WYNZACrKfQIUAbHXq47N6tGwej1CmVwotzssnMtQxQ4j1Ewd0pxonSmqdysGsXRKW0d8+ikpQFAeUXRKUH43nmYWL50oKWlpaWlpaWlpaWlpaX1fyR3oFJyGR/PuGNyapYpib+VaMafnLGCXehmcjZb8J/Q7Gx9UWgnvoyP36NHzMTLdx+WZe25rObkPFeb8Xt6busl/v1d+kd07H7gp/7kq+6eb0kl/KFmP3sqRY9yXXy8bRmGJd0x3b41LPLsMT55Y9HCB+/kzpeoSaxpejyxjMEWPj8Zs/dhjH/hYi3jbzU7V+KcczibIE5y5WOMKzNh5KncAT7Vu43PWRu0thSn92ss42w0iIPrCuFYNz3+FIjT47rr+GudOD9L4vS+WiCOhWsX1d9V4/xgda8CRz12DLckTu9zDODs3ZHLH+nwgnF6v+nArxVna8+AcSY3G5GmE+7eiDyLM9uhBeHhocBhnbMCHMPYEUSGY2qgQJxtK9Xvzymp0texhEMqz3qTAqf3Tm1jFTgur8EH7QOuGgf/cM/60aM1zODQgcPqpsKhd1SCI4i+02Q45ONEl+ntO66IM/6CL0xmbrbsLE7vy6AmHOtWfGMFOMbeJz4XuUkeZ0Yb+X0gvSoJh7jNqnFYLbC5KcJxf+Nzt3sCDgkAiE/Kx8FdoXIc2ndILQpxSGQj4lib8q15OBOrDpwx6Tq0vEIccl3AoeVMLC4ig3CmOG74ZVWPMyM9h/i9YpwBcZVb/Ng5l8pR4UxI744dV8U4NMT6xUxXAQ611FHFGQ4ZOJ9itSAcazs9SJxTpTi0i0yBzgTjDEh7Tji/s0kGjjhyFDikhLghq8RxZ6QWP5ltzcWZWb+n3GWCwwU/LwP+CSAOad+40CpxSLPj+DgXJ9VP4viT4JvicBLzMBDHNVgRFeQ7RHtbUBXgEHQjCUG5aqc9X8bhRiGM04uMOmMY31aF49LK3PEdpFyCkOYzEE4c/BTg0Cd/GVSHQx3fD6GoUjjTncQegzibBVGBxUzQ1KoMZ+8FFy86vlI42+PUuwg4BumLd/kxWzKHgO/dsirCcS1SFdEWlcDZeCEvgMd5sYChqMIZfCHnK8Kh3nAzU1A+zmTj64dF+TmcyAKw8I9O1ahw6IXbanDodNhkzxWvgDg373ex3n9b1pifIqQ4cSLLknaDlKnEmeHnTyrBcWlUEk8PFONsW+mcbgad4qTjjxoX2uJKHOrzplXg0Dx4WyqmKGYDcc6T/kf9Y49M3KpxWJ61Os6AdosdN3vtb3DIZTqJQmqnxmGDd3UcFgCPpWur4EgF5+DQ56yMQ7vaDVDISjgDOv0xUM6CSjOmK+KwSd2ZldFsRRyWQP0Q7DGEY1ic11oBh/aI6WZG23eKOerSOGyEn8+KcGi2tRIOHa+APgcr4rARnlQwF4e911VwLChuxNpaGYelhJ97RTh7ZKS1F4dmMIlrzcdhYVF7cVgX+moV4bCVx3pwVh873MxVZA0KcFh6vwJOslYDK0oWXAMfxyseFj7+IbvbpOY30GVrk5ZADrfHxuAlPRR83ewc35qN6/+ER61k/R8fj7l7YRrVZYudJocxOzvkeCzorJaWlpaWlpaWlpaWlpaWlpaWlpaWVnf1P8sjH76q2GVMAAAAAElFTkSuQmCC;" parent="1" vertex="1">
          <mxGeometry x="900" y="624.62" width="54.45" height="64.76" as="geometry" />
        </mxCell>
        <mxCell id="7zLjmCOxjH0i3wly7O3S-55" value="" style="points=[[0,0.5,0],[0.24,0,0],[0.5,0.28,0],[0.995,0.475,0],[0.5,0.72,0],[0.24,1,0]];verticalLabelPosition=bottom;sketch=0;html=1;verticalAlign=top;aspect=fixed;align=center;pointerEvents=1;shape=mxgraph.cisco19.key;fillColor=#005073;strokeColor=none;" parent="1" vertex="1">
          <mxGeometry x="185" y="527.5" width="50" height="22.5" as="geometry" />
        </mxCell>
        <mxCell id="7zLjmCOxjH0i3wly7O3S-57" value="" style="shape=image;aspect=fixed;image=data:image/jpeg,/9j/4AAQSkZJRgABAQAAAQABAAD/2wCEAAoHCBUVFBUWFRYYGRgVGBkcGBkaGBgYGhoaGRgaGRoYGRkcIS4lHB4tHxoYKz0nKy80NTg1GiQ7QDszPy40NTEBDAwMEA8QHxISHjQsJSs0NDQ9NDY3MT40MTQ0PT00PTQ0NjY3NDQ0NDQ9NTY1MTQ0ND00NDY0MTQ0NDY0NDQ0NP/AABEIAQsAvQMBIgACEQEDEQH/xAAbAAEAAgMBAQAAAAAAAAAAAAAABQYDBAcBAv/EAE0QAAIBAgIECQcICAQEBwAAAAECAAMRBAUGEiExBzJBUWFxgZGxEyI0UnKhwRRCc3SSs8LRFUNigqKy4fAWJDNTI4PD8TVUY2Sj0uL/xAAZAQADAQEBAAAAAAAAAAAAAAAAAwQCAQX/xAAsEQACAQIFAwMEAgMAAAAAAAAAAQIDEQQSITFBMjNRcYGRE1JhsRQiQqHB/9oADAMBAAIRAxEAPwDs0REAEREAEREAEREAEREAEREAEREAEREAEREAEREAEREAEREAEREAEREAEREAEREAEREAEREAEREAEREAEREAEREAEREAEREAEREAPIiROc59QwovVexIuEHnM3UvN0mw6YJNuyONpK7JaYcRiERSzuqKN7MQoHadk5rmWneIrErh08mOewdyOfaNVe49cgny6tWbWrOS3O7F26tp2DtlMMLL/J2EyrpbK50XHac4OncBzUI5Kak9zGynvkFiuEr/AG8P2u9v4VB8ZX0yikou5J9ptUe60+xWw6btTsXWPeBHxw9NfkS68n+Daq6fY1+KtNfZRie8sR7pqtpJmbfrKgHMKVNffqX98+XzhBuDHsAHjMLZzzJ3t/SNVKC2ijDqSfJkbNszP62r3qPCfP6RzL/erfbH5zGc5b1B3mP0y3qL3md+mvtRzO/LMwzrNF3VavdTbxBmWnpdmacZmb26KW70UTVGcn1B9o/lPtc5HKh7GB+AnHTj9qBTl5ZI0eEjFKbVKVJuoPTPeS3hJjCcJtE28rQdOlSrgd+qfdK2M1ptxgw61BHuvPDSwz8iXPN5h+BmJUIPg2q0lydHy/S3B1rBa6hj81702vzAPa/ZeTl5xSvo+h4jMvXZh8D75jwpx2E20Kj6o+ah1k7abC3cO2JlhftfyNjXfKO4RObZLwlbQmLp6vIXpg2HtIdo7CeqX/A46nWQPSdXU7mU3HSDzHoO2TTpyhuh0ZqWxtxETBsREQA8iJXdNM5OGw5KG1SodVD6uy7N2D3kTsYuTSRyUlFXZF6XaYeRJo0CDU3M28IfVA3M/uHTulLoZa7sXrMxZjc3JLN7THw8J9ZRhNnlG2k31b+9jflmDH5iWJVDZeflb+k9OnSUFZfJBObk7s3qmNp0hqqASPmr8T/ZkdXzR23WUdG/vM0YjVFGLnruSbkknnJv4zyImjgiIgAiIgAiIgAiIgBkpV3TisR1HZ3bpv0M4YccBukbD3bj7pGRONJhcnqlKjiByE8481x/faJGUziMA/laDnV2XNrqw5FqLuI6enYQZqoxBBBsRuIk5l+OFQFHtrW7GHLs5+iYlHT8GlI6BonpRTxqbBqVV49O99m7XQ/OW/duPJexzgmI18FiEq0Tax1k5v2kbnWxt1HnnbMnzFcRQp1l3VFBtyg7ip6QQR2Tz61LI7rZllKpmVnuSEREQOPJzThQqE1qC8i02YdbNY/yidLnMuE/0il9F+No/D9xCa3QzXzHC6mGYryIo7CVB9xlUnRtHdTEYfybi5VNRxzrawYdmzrHSJTM9yWphX1XBKMfMe2xh8G5x8JdTqK7i9yWUNFJbEZERHCxERABERABERABERABERABERABMmFJ10tv1lt3jZMct2h2jbOy4iopCLtQEbXPI9vVHJzm3JvxUmoRuzUYuTsjR0vwgWgG5Q627Q399ktPBTWLYN1O5K7qvUUR/FzKxp/jFY+SQ3FM+eRu1ybW7B7yRySx8Enolb6w33VGSVtaV2Pp6Tsi+RESIrPJzHhN9IpfRfjadOnMeE30il9F+No/DdxCa3Samj2NalURlPJtHOLToi1aOJp6rqrKw2qwuD1cx94nMsu4ydXwk/hcSyHZuO8ch/rH14Xd1uJpSsrcHznPB+wu2Ge4/wBtzYjoV+XqNuuU3G4CrRbVqo6Hk1hYH2W3N2EzrGAzMlbg3A2Wbk7ZIfK0YFXXYd4IDKf76piOInDR6m5UYy1Whw6J1zF6I4KtchAhPLTYpb90eb7pCYrg4X9XiGHQ6hvepXwj44qD30FuhJbHPoltr8H+KXitSce0ynuK2980amhuOX9TrdKvT+LAxirQfKMOnNcEBEmG0Xxo/UP2ap8DPkaNYz/y9TuH5zX1IeV8mckvDImJNJopjTuw79rIPFps0dCca2+mq+06fhJnHUguV8nckvDK5EuWG4PMQePVpL7Os57iF8ZL4Tg7oixqVXe3IoVFPiffMSxNNcmlRm+DmpMlcr0exNe3k6bap+e/mpbn1jxv3bzoiYbLcJtApBl5Teq4PbrMPdNPMNOALijTJPrPsH2RtI7RFvESl0R+Taoxj1P4Pcn0KoYceUxLCoy7fO82kluUg8brbZ0CamkmmQs1PDHfsNXd2IPxd3IRWc0zWtXN6rlhfYu5B1KNnbvkY85Gk5PNN3f+glNJWirGtj+IezxnReCT0St9Zb7qjOdY7iHs8Z0Xgk9ErfWW+6ozWK7YUOovkRE84sPJzHhN9IpfRfjadOnMeE30il9F+No/DdxCa3SRmXcZOr4SYWQ+X8ZOr4SYWVVNyeJMZTxG9r4CSIkblJ81useEruYaX1q1Y4XLKIxFVePVP+lT2233APLtJAuNmtI5blMdi7rPp8UyC5LW3c/jKFW0QxRs2Y5waZI206TCmvYbqD9iYP8AB2XcmbYgHnNZbfyjxmLN7I3dLdnQP02Rzn90fnPDpDb5nw+MotPQnFWY4LOBV5lezgdBYM/8s162Cz5D5H5PRcsQFroV1RzswLC3ao6junNtw32Ogf4l/wDT/i/pMZ0pb/aH2z/9ZRauggG3Ms1YOwuadNggHPqhuMOpBNddBclv5mOxCtzl0A7/ACQ8ZpJvg42lyXuppW43U1HWx/KRWK0/1TY1MMp5i4v73+Eisv4LMNWuXzCtiKQI1VRk83oZrsD2ARmOjeSYRtSrg67MNxLVbN0qTUVWHVOrV2SOXsrtmZtOGc2XF0tvIrUwezlmtiMbUqDzqjuDzuWHYL2mD5Bo++/CVaf7WvV2diVG8J8LwfYepd8qx7I+0+SqG4PMCAAyr0lWjE8u8TNlLaR8tMTyLrY+vhKooZhS8m54lUcRx61xstu2jdfaBJNjKISUthM4uO5iaYXmZpheOQpmtj+IezxnReCT0St9Zb7qjOdY/iHs8Z0Xgk9ErfWW+6oxWK7Y2h1F8iInnFh5OY8JvpFL6L8bTp05jwm+kUvovxtH4fuITW6SOwG9Or4SWWRWA3p1fCSqyqpuTwIbSvM6q00wmH/18a4RSNmqpsGN+S9wL82seSSePrJlWHTA4OwqFQ1arYaxZhv9o9PFW1t4IjdGKYr5+S27CYYsvNdgo/6zd3RIrNsUatetUJvruxHs3so7FAHZJ6cVObvwOqScYpLk1XcsSzEszbSxJJJ5yTtJnzESskNrLcA1eslNOOzWB9W20segAE9kumk+kBwqLg8O7FkUCpVYlnBO3VDHcxvcncoIAt83U0JVaFDFY1gCaalEvytYMR2k0x3ynVHZmZmN2YlmJ3libknrJMTbPPXZfsZfJHTd/o8ZiSSSSSbkk3JPOTymeREcLPujVZWDozKw3MpKsOojaJbsr0qWsvyfHqHRtgqWsynkL23e0tiOW+0ynRMygpbmozcdic0m0ebCMCp1qL8R9nNfVa2zWttvuI2jlAhEYgggkEG4INiDzgjcZcdD8xSsjYDEeclQHyRO9SNuoDyWtrLzEEcoEq+ZYFqFV6T8ZGtfkI3qw6CCD2zMJO+WW/7OyStmjt+iy5bmtLH0/kWYKHD7KVXYGD7l87kfbYNy3sb3N6jTwlXA4t8BWOsFGtQfdrUzcjZ1A7OQqwuRafJJG0bCNoPMeeT/AArKPl+W1Lec6FWPQGFh/G3fFTioTTjyOpyc4tPg0mmF5maYXlSEM1sfxD2eM6LwSeiVvrLfdUZzvH8Q9njOicEnolb6y33VGLxPbG0OovkRE84sPJzHhN9IpfRfjadOnMeE70il9F+No/D9xCa3SaGA3r1fCSiyLwG9er4SUWVVNyeJH8HrD9NZgDxjRQjqHkr+KyqINg6hLFo7VFHSBf8A3WGZe1Vv/wBAd8jc6w/k8RXT1ajgezrEr/CRE0OqSN1+lM0YiJSTl6OCqHKKFKlTZ3r1bsFHJrvUDMdwHmILnZumnh9AMSRdmpJ0EsxHQbC3cTJTGZvVw+V4RqJCs+qhJFyo1WN1B2XuvKDKrlWY0mr62NVq6FSPOZnKsSLNYnaLXFunZukyz2bXl+o+WS6T8L0Pc70axGFAaoFZSbB0JK35A1wCp6xbpkNOi5JiaOKTGYWiGFE0waSuSxViGDFbklVDahC32G+69hzlTsjacm7p7oXOKVmtmezby3LquIqCnSFydp5AoG8seQTUl10SY08vx1VNlQXAYbwFpggjqLMeydqScVdBCOZ2Z7T0Jamys+MpU6gIZRq3swNwQWdSdtuSffCZhV1sPWBBLoyMRuOrZlI+03ulexmdU2wwojDUlfYWrbGdiu0tcrcM1tpLHeefZOcIC6i4KiP1dIj3Io/lMSlLOsz8jG45XlXgp+Hol2RBvdlQdbEKPGS/CfV183wlIbqVDWPQSajeCr3zJoRgvK4ylsuKd6jfu8X+IrIPE4v5Tm2OxA2qjeTXmIS1MEdYpk/vQqf2qKJ2lpBs3mmF5maYXlaEs18fxD2eM6JwSeiVvrLfdUZzvH8Q9njOicEnolb6y33VGJxPbG0OovkRE88sPJzHhO9IpfRfjadOnMeE70il9F+No/D9xCa3SaOB3p1fCSayNwPzer4SSWVVNyeJWNK63yfFZdi72WlXCuf2SQxH2RU75LcIWF1MYzDdVRW6LgahH8APbNbTXBeVwVYcqAVB0ahu38Gv3zczWv8AK8qwGL3sqinUPTbUcn9+mPtSeLy1PUdJZqfoVSIiVkhc8/2ZTghzuD2alT8xKZLnpX/4fltuLqLf2vJL/wDqUyKp9PuzdTq9kWzg2a2LYc9F/wCemfhKzjEC1HA3K7gdQYiWzg8phGxGJfYtGkQTybfPbtAQfalOdyxLHexJPWdphHrl7BLoXueS38H+IVmr4Z+LiKZA61BDAdJVif3JUJmwWKelUSohsyMGHZyHoO49BmpxzRaOQlaSZ847DNTapTfjIWVusXFx0Hf2y38JgvWoMNzUtnYxP4hPnTfCJVSljqQ82sqip0MBZS3TsKHpVRyzY0uwr1lyymB59Smy9RK0bk9A2nqBis93F+ozLZNehp5RiPkOWYvGnY7ApR9q+opH/Mbb0U5TtFcH5PDqTvqeeeo7F/hAPbJvhOrrUr4TK6PEw4VqvQdWy3PrBCx6TUE8KgbBsA2AdE5S/tJyGSWWCiYmmF5maYXlaJ2a+P4h7PGdE4JPRK31lvuqM53j+IezxnROCT0St9Zb7qjE4ntjaHUXyIieeWHyTOYcJjXxFL6L8bTpFZ5zLhFa9en9H+No/DdxCa3SYsF83q+EkVkfgvm9Q8JILKqhPEyFAQQRcEEEc4OwiQXBzT1qWY5U586mS9LWN7g2Aa3IoZaTfvndJ1ZVs7xBwGYYXMFB8mx8liLcqkWuQN51No6aayWflD4a6MjCpBsRYjYQd4I3gzyWXTnLBTr+WSxpYga6sNq6x2uARz3DdOseaVomVwkpJNEko5XZl10eK4zBvgnYLVpktRJ5Rckd2sVP7LC0qOPwb0GKVUKMOQ8o51O5h0iWnL6FHLcP8vxo8+3/AAKW5izA22H55F/ZFyduwauhmnuMzCt5CpgqVVCxLPcolJCSfPurBiBsA2E2HSZM6qhJpaooVJyim9H/AMJDOv8AJ5dQw42PiPOqc9tjMD3ovSAZSZ1DN8ZgcTihhqqlqltQVF2BG2nUDA3vfoIvsPNOd5vgDQr1KLG5RrX5wQGU25CVIMZSlw99xdWOt1tsacREeKLhoRjUdauCrnzK4JTbazW85QeQmwYdIPKZZ9IcamEFbG1h5uHp+ToJ6zvYkr7RKLu2BGO4yoaH5ZSZa2Kr6xTD2IVSQS6jXvsINx5thfaT0TfznN8tzFFTGCtTCMWWzPa5Fr2S4Jt6y7Lmx2m8dVXk8pVSklFZigZE/wDq4zEugqYhixLMq2UtfZfdc8nMFkxSxdOpfUdWtv1WDW6wJNZTofkdRtWlTr4g8u2soXpZvMA7TK/wh5VhMJj8JTwKhKpP/HRGZgASmpcEnVJXXJHNY223JCo42i0blBSu0zO0wvMzTC8tRIzXx/EPZ4zoPBM9sLV+sN91SnPsfxD2eMvXBc1sNV+sN93Si8R2xtHqOigz2a9F5sTziwjq7Tm+n5/49P6P8bTolec609/1k+j/ABtH4buITW6Rgvm9Q8JILNDB/N6h4TfWVVCeJkWYc0y9cRRei/FcWvyqd6sOkGxmZZlWTSHRKvovnlNaZynNTqeT9HrsbKFF9Xz22LbbqsdlrqbWsZpcmweA/wAzjMVTdE201UC7sNq2XWJY/sjZyk2n1muS0MSgWuga3Fbcy39VhtHJs3SGwXB5gkbWIqPY3Cu41e5VUntMVncVZPQZljJ3a1JnRPG4bN2r4ivTp1a9NmWjhqpBSlRsuqQhBBLNcs5Um+zYABJTH1M0K+So4anQTdrI9MkD9kkrq9iX5rSq5xoVQquKtFmw9Ubnp7FvawOqLWPskTU/QWZgav6VravOXq63Yda475yLtxc1JX5sWzIMgo4OrSfF1U8tUa1CkDfzjsvzuRffay77nYRXNNz/AJ/EdafdJIrA5C2GzHLqj13rVKuIs7vfkAtvJJ38pkrpuP8AP4jrp/dJH0W3Nt+CetFRgkvJAxESsmLtkOYU8JlOJxFan5Sn5UBk83z1byVO1m2HaSeyQI4Qsp+blzs3IpSmRf7R8Jk0xq+S0epLy164HZr1KgPci98yItgBzADuEis5SdnYsVowV0amN09zCuvksFhVwaHZr2uwH7BKqq7OZSeYiReVZMKJZ3Y1Kzkl3a5Nybta+25O8naZNvMTx0KUYu/Jic21YwtMLzM0wvKUIZr4/iHs8ZdODNv8vU+nb7unKXj+Iezxlx4NvR6n07fd04vEdsbR6i/0Gm8m6R1Cb9PdPNLDQrrOeafUiKlJ+Qoy9qtf8U6VXpyu6S5T8oosg46+chPrDkPQQSO2/JG0ZKM02YqxzRaRUcG90Rh6o/IjvvJFDKzgMUabFHBAuQbjajDYbjm55P0nt0g/3cS2aI4s3FmVZhRgd0zLJZj0ZVmRZjWZFiJDonw0xNMrTE0EDK7pAdXEZY3Nj6IJ6GYX9wM+tPadsdVPrBD/AAKv4Z5pjSY4Y1Ftr4d0rJfnptcn7OtN/TimK6YfHUfOpVqaAn1SSWS/MTrFTzFQN5jqTtMVWV4ehToMSW0cyR8XVVAp8mCPKN81V3lb+sRsA37b7gZY2krskSbdkZuE5LYbJ8Jba5UsOlURD76jd0zNNbSXGrjM2LIb0cCnkwRxWqnW1rdV7f8ALHPNlpLS5fkqqcIwvMTzK8xPKUKZhaYiJmYTDWcILmMQtmpmL2W3OfCXvg6w5XClj8+o7DqAVPFDKFgcHUxVZUQb955EQb2P97TYTseW4NaaIiCyooVeoDl6ZPippRyj6EdcxIUFm9TGya9BJtSEqPl0vNKtSkhPh1vACkaSaNLXu6WSoBv+a9twe3j4ykCpWwz6jqRb5jbutG+IuJ2OrQkZmGWpVXUdAy8xG7pB3g9IlFOu4rLLVCZ0VJ3WjKNg8xR7WbVb1W2HsO49kk0qkb5p5noUdpoP+5U+Dj4jtkHUTF4bjq6qOca6djbQOwiOtCfS/Ziv7R3RcEqiZlMqGH0jPz0B6UNv4T+ckKOf0DvZl9pT4rcRE6ElwMjVXknWmJpppmNNuLVQ9GuL9xMy+UvuN+qxmPptbm8yYqKCCCLgixB5QeSVnLMwxWVF6a0TisC5JFPe1PW4wGw+bzggg2v5pJvY2czEzGdyXOZrEUmm+VE3TLa7VPVNNCt+a2uf5Z843STMsWvkqNJcBQIsSNtUg3uF2Lq9gU/tSTdjNepVUb2A6yBNqm3u7mc6WyNPL8vShTFOmLKNpJ3seVmPKf6TM0w1cwpDe69nneE06ucIOKGPuHv/ACj4wfgU5G40xOQNp2dci6uauxsoAvu+cez/ALTawmjuLxBBKFQfnVCUHYvG7hGWUdW7GNZbGDE5io2L5x5+T+sZVk+Ixj3UWS+122IvOB6x6B223y5ZToPSSzVSarcxGrT+zvbtNuiXHD4UAAAAAbAALADmAG6JniUtI/I2FFvWRGZBkdPDJqILk2LueM56eYcw5O+T1GlPulQmyq2kbbbuylJJWR6q2n1ETh0REQA8ImJ6IMzRACPqYaaz4aTM+GQGAFSxuj2He+vSS55QNU/aWxkLiNCaJ4junRcMPeL++dCOHExNhZtVZrZmHCL3RzCtoQ44tVT7SFfAmaT6G4kbjTPUzDxWdYbCzEcLGLE1FyYdGJyk6MYsbgOxxPP8N4z1f/kH5zqpws8+S9E7/Kl4QfRj+Tlf+EsUd4Tte/gDMtLQqueM9Neou34ROoDCz7GFh/Jn+A+jE53Q0E9esepUt7yT4STwuheGW2sr1Pacj3JaXVcLMq4aYlWm+TapRXBBYLKKdPiU0T2VAJ6yNpkimGkiKAn2qARbbe5tKxq08NNlaQEyxOAeT2IgAiIgAiIgAiIgAiIgAiIgAnlp7EAPnVjVn1EAPnVntp7EAEREAEREAEREAEREAEREAEREAEREAEREAEREAEREAEREAEREAEREAEREAEREAEREAEREAP/Z;" parent="1" vertex="1">
          <mxGeometry x="935" y="498.5" width="50" height="70.63" as="geometry" />
        </mxCell>
      </root>
    </mxGraphModel>
  </diagram>
</mxfile>
